/* XPM */
static char *safeimagekit_player31740129946[] = {
/* columns rows colors chars-per-pixel */
"32 32 151 2 ",
"   c #0A0B0C",
".  c #140E0F",
"X  c #1C0C0F",
"o  c #0D0F12",
"O  c #110F11",
"+  c #190E10",
"@  c #0F1410",
"#  c #0D1F14",
"$  c #131314",
"%  c #1B1515",
"&  c #15171A",
"*  c #1A161A",
"=  c #1C1B1C",
"-  c #240F11",
";  c #261F15",
":  c #201E1D",
">  c #391115",
",  c #092115",
"<  c #0C3A1E",
"1  c #23201C",
"2  c #372911",
"3  c #382A11",
"4  c #1D1C20",
"5  c #1F2126",
"6  c #222123",
"7  c #292726",
"8  c #2A2827",
"9  c #24242B",
"0  c #25282A",
"q  c #2D2B2A",
"w  c #312C2C",
"e  c #2C2D35",
"r  c #2D333C",
"t  c #363434",
"y  c #3A3735",
"u  c #35363A",
"i  c #3E3C39",
"p  c #471317",
"a  c #4A1317",
"s  c #591419",
"d  c #62141A",
"f  c #77161E",
"g  c #4C3812",
"h  c #413D3B",
"j  c #4F3F3D",
"k  c #09421F",
"l  c #314D1E",
"z  c #064221",
"x  c #0A4621",
"c  c #174520",
"v  c #0B5E2A",
"b  c #03642D",
"n  c #1E752F",
"m  c #026E31",
"M  c #037031",
"N  c #0A7331",
"B  c #5A4215",
"V  c #654816",
"C  c #6F4E14",
"Z  c #704E14",
"A  c #665C1D",
"S  c #7B5D17",
"D  c #44403D",
"F  c #393943",
"G  c #3E414D",
"H  c #494642",
"J  c #4B4744",
"K  c #4D4A47",
"L  c #514D4A",
"P  c #57534F",
"I  c #464955",
"U  c #484956",
"Y  c #595551",
"T  c #5D5954",
"R  c #625D58",
"E  c #65605C",
"W  c #68635E",
"Q  c #545766",
"!  c #535669",
"~  c #555969",
"^  c #5A5D6E",
"/  c #5C5F70",
"(  c #6B6661",
")  c #6E6A63",
"_  c #726C65",
"`  c #736E69",
"'  c #76716A",
"]  c #79746C",
"[  c #616577",
"{  c #63677B",
"}  c #656A7D",
"|  c #7E7974",
" . c #80181F",
".. c #931A23",
"X. c #9E1B24",
"o. c #A01B24",
"O. c #B71C27",
"+. c #BC1C27",
"@. c #BC1E29",
"#. c #C21E29",
"$. c #CD1F2B",
"%. c #D51F2B",
"&. c #DB212D",
"*. c #E1212E",
"=. c #8E6417",
"-. c #8E631A",
";. c #916717",
":. c #A2741D",
">. c #AD791D",
",. c #9A4648",
"<. c #92726E",
"1. c #827C75",
"2. c #827D78",
"3. c #CE5F61",
"4. c #D77777",
"5. c #4E832D",
"6. c #51832D",
"7. c #AE9B28",
"8. c #B09F29",
"9. c #C48B1F",
"0. c #C68D20",
"q. c #D59C24",
"w. c #C7A328",
"e. c #D5A225",
"r. c #E5A624",
"t. c #87817A",
"y. c #6B6F82",
"u. c #6D7285",
"i. c #71758A",
"p. c #74788E",
"a. c #767B91",
"s. c #797E94",
"d. c #7D8299",
"f. c #8F8881",
"g. c #948D85",
"h. c #9B938B",
"j. c #80869D",
"k. c #A39B93",
"l. c #A8A097",
"z. c #ADA39B",
"x. c #B2AA9F",
"c. c #848AA2",
"v. c #888EA7",
"b. c #898FA9",
"n. c #8C92AC",
"m. c #BDB4AA",
"M. c #C2B9AE",
"N. c #C7BDB2",
"B. c #D2C6BA",
"V. c #D4CABE",
"C. c #DBD1C4",
/* pixels */
"n.n.n.n.n.n.n.n.n.n.n.n.n.n.n.n.n.n.n.n.n.n.n.n.n.n.n.n.n.n.n.n.",
"n.n.n.n.d./ ~ ~ ~ p.n.n.n.n.n.n.n.n.n.n.n.n.n.n.n.n.n.n.n.n.n.n.",
"n.n.n.n.} = . % @ G d.c.d.d.d.d.d.v.n.n.n.n.n.n.n.n.n.n.n.n.n.n.",
"n.n.n.n.} * d  .- & r u F r F r F / n.n.n.n.n.n.n.n.n.n.n.n.n.n.",
"n.n.n.n.{ = s ..s a a p p p a > o r } j.n.n.n.n.n.n.n.n.n.n.n.n.",
"n.n.n.n.} 4 + > X.@.@.#.#.+.$.o.>   9 y.n.n.n.n.n.n.n.n.n.n.n.n.",
"n.n.n.n.d.^ 0 + s d f +.*.&.&.$...p & y.n.n.n.n.n.n.n.n.n.n.n.n.",
"n.n.n.n.n.b.Q 6 @   X f +.$.%.$.O.d * Q a.p.p.s.v.n.n.n.n.n.n.n.",
"n.n.n.n.n.n.c.[ 5     - d #.&.O.a X @ = 9 9 6 F s.n.n.n.n.n.n.n.",
"n.n.n.n.n.n.n.a.9 t ( ) <.4.3.,.j i h D h i 6 9 a.n.n.n.n.n.n.n.",
"n.n.n.n.n.n.n.p.9 ( C.C.B.B.h._ ) ) ) ) _ ( t 6 y.b.n.n.n.n.n.n.",
"n.n.n.n.n.n.n.p.5 ` C.t.K J t 7 8 8 q q q 8 * O e / v.n.n.n.n.n.",
"n.n.n.n.n.n.n.p.9 R x.h $ D L L L H h y y i h t $ G v.n.n.n.n.n.",
"n.n.n.n.n.n.n.p.9 h ] q H N.C.B.V.m.k.k.k.k.l.t.8 G v.n.n.n.n.n.",
"n.n.n.n.n.n.n.p.9 i ) 7 L C.z.2.M.k.R h.h.E g.h.q G v.n.n.n.n.n.",
"n.n.n.n.n.n.n.p.9 i ) 8 K N.W 7 g.( : 2.2.: ( g.q G v.n.n.n.n.n.",
"n.n.n.n.n.n.n.p.9 h _ q D k.P 7 g.( : 1.1.: ( g.q G v.n.n.n.n.n.",
"n.n.n.n.n.n.n.p.9 h ( 8 h h.L 7 f.( = 1.1.= ( g.q G v.n.n.n.n.n.",
"n.n.n.n.n.n.n.p.9 h _ q h k.R t g.` q 2.t.w ` g.q G v.n.n.n.n.n.",
"n.n.n.n.n.n.b.s.9 h _ q h k.k.f.x.k.f.z.z.f.k.h.w G v.n.n.n.n.n.",
"n.n.n.n.n.b.s.~ = w L : q ` 2.2.| 1.2.| | 2.t.W 1 G v.n.n.n.n.n.",
"n.n.n.n.n.b.U = O $ % $ $ ; 6 : : : 1 ; 1 : : * $ I v.n.n.n.n.n.",
"n.n.n.n.n.n.I @ < x k z l S =.-.-.-.=.=.;.=.3 & I i.n.n.n.n.n.n.",
"n.n.n.n.v.p.u # b N N M 6.e.q.0.9.9.9.9.0.0.B 9 a.n.n.n.n.n.n.n.",
"n.n.n.n.u.e + # v N N m 6.e.-.2 3 3 3 3 3 2 ; 9 a.n.n.n.n.n.n.n.",
"n.n.n.n.} % , z b M m m 5.q.C o q u t y u t = 9 p.n.n.n.n.n.n.n.",
"n.n.n.n.} 4 c n n n n n 6.q.Z 1 E | ' ] ] ' y 9 p.n.n.n.n.n.n.n.",
"n.n.n.n.} 4 A 8.7.7.7.7.w.r.Z 6 ( t.1.1.1.1.h 9 p.n.n.n.n.n.n.n.",
"n.n.n.n.{ * V >.>.>.>.>.>.:.g * H T Y Y Y P q 9 p.n.n.n.n.n.n.n.",
"n.n.n.n.} 4 % ; ; ; ; ; 1 1 % $ & = = * = = $ 0 a.n.n.n.n.n.n.n.",
"n.n.n.n.d./ Q ! ! ! ! ! Q Q ~ ~ ~ Q Q ~ ! Q ! [ j.n.n.n.n.n.n.n.",
"n.n.n.n.n.n.n.n.n.n.n.n.n.n.n.n.n.n.n.n.n.n.n.n.n.n.n.n.n.n.n.n."
};
