/* XPM */
static char *L_11740421811[] = {
/* columns rows colors chars-per-pixel */
"32 32 146 2 ",
"   c #120B05",
".  c #160A09",
"X  c #0F100F",
"o  c #1D160B",
"O  c #120F12",
"+  c #121516",
"@  c #111A1D",
"#  c #280B0D",
"$  c #31090C",
"%  c #241905",
"&  c #3E150E",
"*  c #270B15",
"=  c #2C0A10",
"-  c #221D1A",
";  c #36200D",
":  c #31290A",
">  c #2E2511",
",  c #332712",
"<  c #383314",
"1  c #101E22",
"2  c #17172B",
"3  c #171831",
"4  c #390C23",
"5  c #301537",
"6  c #0F2C36",
"7  c #12293A",
"8  c #28292B",
"9  c #302D2E",
"0  c #383223",
"q  c #2E2E37",
"w  c #36363D",
"e  c #3E373F",
"r  c #3C3A3F",
"t  c #472404",
"y  c #5B0C23",
"u  c #5C102D",
"i  c #4D103B",
"p  c #660E26",
"a  c #6D1124",
"s  c #7D1723",
"d  c #601230",
"f  c #4B4629",
"g  c #5A4F2D",
"h  c #65432B",
"j  c #625A3C",
"k  c #7E762F",
"l  c #1B1E4A",
"z  c #052F42",
"x  c #162948",
"c  c #0F3848",
"v  c #182657",
"b  c #2D344F",
"n  c #3D3C42",
"m  c #21295F",
"M  c #233E54",
"N  c #163C6B",
"B  c #32286E",
"V  c #242B7A",
"C  c #21337F",
"Z  c #46184B",
"A  c #403841",
"S  c #6F2E4B",
"D  c #452760",
"F  c #412A68",
"G  c #5F3A68",
"H  c #0F4155",
"J  c #13465A",
"K  c #3B4148",
"L  c #284351",
"P  c #0D4D66",
"I  c #114E75",
"U  c #0E597D",
"Y  c #3D5266",
"T  c #2F646B",
"R  c #494648",
"E  c #525046",
"W  c #4B4A52",
"Q  c #595A62",
"!  c #5C5D6D",
"~  c #5D4173",
"^  c #5F606E",
"/  c #636676",
"(  c #AE2413",
")  c #AB291D",
"_  c #911F21",
"`  c #8C313C",
"'  c #8E4606",
"]  c #944807",
"[  c #AA4641",
"{  c #9A707B",
"}  c #A26E6C",
"|  c #C87C45",
" . c #958C25",
".. c #AA9F27",
"X. c #C19625",
"o. c #E9CF33",
"O. c #EAD033",
"+. c #999C7F",
"@. c #C5824F",
"#. c #C4A96A",
"$. c #FEFF42",
"%. c #C6C364",
"&. c #1D3B96",
"*. c #223C91",
"=. c #1B4283",
"-. c #1F4393",
";. c #27439D",
":. c #0C6286",
">. c #0C6489",
",. c #0D6890",
"<. c #0B709A",
"1. c #195AA4",
"2. c #1E54AC",
"3. c #2146A2",
"4. c #224AA6",
"5. c #214CAA",
"6. c #0C76A6",
"7. c #1963B7",
"8. c #1A64B8",
"9. c #0E7CB8",
"0. c #1371B8",
"q. c #6B6E81",
"w. c #73768A",
"e. c #7A7F94",
"r. c #196AC0",
"t. c #137CC8",
"y. c #0B84BA",
"u. c #7B8095",
"i. c #7D8198",
"p. c #0A8CC5",
"a. c #0D88CA",
"s. c #0D8ED2",
"d. c #1085D1",
"f. c #0B96D3",
"g. c #0D94DC",
"h. c #0A9BDB",
"j. c #0A9DE0",
"k. c #09A2E5",
"l. c #81879E",
"z. c #918599",
"x. c #A48783",
"c. c #858BA3",
"v. c #8E8CA4",
"b. c #8A8FA8",
"n. c #8C92AC",
"m. c #9393A1",
/* pixels */
"n.n.n.n.n.n.n.n.n.n.n.n.n.n.n.n.n.n.n.n.n.n.n.n.n.n.n.n.n.n.n.n.",
"n.n.n.n.n.n.n.n.n.n.n.n.n.n.n.n.n.n.n.n.n.n.n.n.n.n.n.n.n.n.n.n.",
"n.n.n.n.n.n.n.n.n.n.n.n.n.n.n.n.n.n.n.n.n.n.n.n.n.n.n.n.n.n.n.n.",
"n.n.n.n.n.n.n.n.n.n.n.n.n.n.n.n.n.n.n.n.n.n.n.n.n.n.n.n.n.n.n.n.",
"n.n.n.n.n.n.n.n.n.n.n.n.n.n.n.n.n.n.n.n.n.n.n.n.n.n.n.n.n.n.n.n.",
"n.n.n.n.n.n.n.n.n.n.n.n.n.n.n.n.n.n.n.n.n.n.n.n.n.n.n.n.n.n.n.n.",
"n.n.n.n.n.n.n.n.n.n.n.n.n.n.n.n.n.n.n.n.n.n.n.n.n.n.n.n.n.n.n.n.",
"n.n.n.n.n.n.n.n.n.n.n.n.n.n.n.n.n.n.n.n.n.n.n.n.n.n.n.n.n.n.n.n.",
"n.n.n.n.n.n.n.n.n.n.n.n.n.n.n.n.n.n.n.n.n.n.n.n.n.n.n.n.n.n.n.n.",
"n.n.n.n.n.n.n.n.n.n.n.m.@.x.n.n.n.n.n.n.n.n.n.n.n.n.n.n.n.n.n.n.",
"n.n.n.n.n.n.n.n.n.n.z.} | #.+.! ^ i.n.n.n.n.n.n.n.n.n.n.n.n.n.n.",
"n.n.n.n.n.n.n.n.n.n.{ [ z.%. .o o Q c.n.n.n.n.n.n.n.n.n.n.n.n.n.",
"n.n.n.n.n.n.n.n.n.n.v.z.n.E < f j 0 W b.n.n.n.n.n.n.n.n.n.n.n.n.",
"n.n.n.n.n.n.n.n.n.n.n.n.n.w.R ; g , w n.n.n.n.n.n.n.n.n.n.n.n.n.",
"n.n.n.n.n.n.n.n.n.n.n.n.n.w.Y J T M b / n.n.n.n.n.n.n.n.n.n.n.n.",
"n.n.n.n.n.n.n.n.n.n.n.n.l.q z y.y.1.v + q.n.n.n.n.n.n.n.n.n.n.n.",
"n.n.n.n.n.n.n.n.n.n.n.u.9   X 1 1 @ O   - / b.n.n.n.n.n.n.n.n.n.",
"n.n.n.n.n.n.n.n.n.n.w.K U >.>.:.:.:.>.,.>.L ^ b.n.n.n.n.n.n.n.n.",
"n.n.n.n.n.n.n.n.n.w.A @ p.k.j.g.d.g.p.<.f.:.L / b.n.n.n.n.n.n.n.",
"n.n.n.n.n.n.n.n.n.n X 6 6.f.h.f.2.0.U 7 9.j.>.> e.b.n.n.n.n.n.n.",
"n.n.n.n.n.n.n.n.n.e c 6.6 ,.h.s.2.x x -.2.d.>.@ i.n.n.n.n.n.n.n.",
"n.n.n.n.n.n.n.n.n.e H y.+ N r.8.2.3 x t.t.f.>.- i.n.n.n.n.n.n.n.",
"n.n.n.n.n.n.n.n.b.e c f.P =.4.4.*.v I h.h.j.>.- e.n.n.n.n.n.n.n.",
"n.n.n.n.n.n.n.n.n.e c a.s.7.4.;.V *.8.s.s.s.U - i.n.n.n.n.n.n.n.",
"n.n.n.n.n.n.n.n.n.r 2 C 2.5.5.4.;.4.5.2.2.*.l - i.n.n.n.n.n.n.n.",
"n.n.n.n.n.n.n.n.n.w * Z ;.~ S F 3.&.B D 3.F 4 - e.n.n.n.n.n.n.n.",
"n.n.n.n.n.n.n.n.n.n $ d F ` ( s G D i u m 5 $ - i.n.n.n.n.n.n.n.",
"n.n.n.n.n.n.n.n.n.r # y p _ ) ) ) s u y ; : % - i.n.n.n.n.n.n.n.",
"n.n.n.n.n.n.n.n.n.r   # y a a a a a 4 & X.O. .- e.n.n.n.n.n.n.n.",
"n.n.n.n.n.n.n.n.b.w t ] & * * * = = . : o.$...o e.n.n.n.n.n.n.n.",
"n.n.n.n.n.n.n.n.b.! h ' % 8 K n n n r g  ...k W l.n.n.n.n.n.n.n.",
"n.n.n.n.n.n.n.n.n.n.^     ! n.n.n.n.n.e.-   r n.n.n.n.n.n.n.n.n."
};
