/* XPM */
static char *L_101740421933[] = {
/* columns rows colors chars-per-pixel */
"32 32 67 1 ",
"  c #8C92AC",
". c #8D92AC",
"X c #8C93AC",
"o c #8C92AD",
"O c #8E94AE",
"+ c #8F94AE",
"@ c #8E94AF",
"# c #9197B1",
"$ c #9299B0",
"% c #9298B1",
"& c #959BB3",
"* c #969BB3",
"= c #969CB3",
"- c #9A9FB6",
"; c #9A9FB7",
": c #9BA0B6",
"> c #9CA1B7",
", c #9CA1B8",
"< c #9DA2B8",
"1 c #A3A7BD",
"2 c #A4A9BD",
"3 c #A6ABBF",
"4 c #A7ABBF",
"5 c #A7ACC0",
"6 c #A8ADC0",
"7 c #A8ACC1",
"8 c #A9AEC1",
"9 c #B0B4C6",
"0 c #B1B4C7",
"q c #B3B7C8",
"w c #B2B6C9",
"e c #B6BBCB",
"r c #B7BBCB",
"t c #B8BBCC",
"y c #B9BDCC",
"u c #BABECE",
"i c #BDC0CF",
"p c #C1C5D2",
"a c #C1C4D3",
"s c #C9CCD8",
"d c #CBCEDA",
"f c #D5D7E0",
"g c #D5D7E1",
"h c #D6D8E1",
"j c #D7D9E3",
"k c #D8DBE3",
"l c #D9DBE3",
"z c #D9DAE4",
"x c #DBDDE4",
"c c #DDDFE6",
"v c #DFE1E8",
"b c #E2E2EA",
"n c #E2E4EA",
"m c #E3E4EA",
"M c #EAEBF0",
"N c #ECEDF1",
"B c #EDEEF2",
"V c #EFF1F4",
"C c #F0F0F4",
"Z c #F2F3F6",
"A c #F3F3F6",
"S c #F5F6F8",
"D c #F9F9FA",
"F c #FAFCFC",
"G c #FBFCFC",
"H c #FCFCFD",
"J c white",
/* pixels */
"               OXXXX            ",
"          X     XX              ",
"    O                           ",
"                             @  ",
" O                              ",
"           O                    ",
"                                ",
"                         @      ",
"                                ",
"                                ",
"                                ",
"       O><=  &<:<& O;<&         ",
"       -nSd  dAAN9 :nSd         ",
"      1xJh2  xJJJt %wNDd#       ",
"+    2hJx1   uhgg5 O tMDa;    @ ",
"     hJn:             0AJt@     ",
"     zv-              +6Au      ",
" @   65      ubhl2     +9<      ",
"             uxxl6              ",
"     &<:O #<O   O %>+ %<>#      ",
"     dSb:Xwb>     9n- 9NA9      ",
"     gJA<XuA>     uA> rJJu      ",
"    XgJA<XuA-     uA> rJJr      ",
"    XdSb-X9b-     qm: 9VV9      ",
"     &<;O %-O     %>O $:-% O   O",
"  O          ibzx4     X        ",
"     56 O    iclh5    OO9>      ",
"     lb-         O    O2Ar      ",
"     gJb-             9AGeX.    ",
"     2hJx1   uggh2   rNGp:X.  . ",
"      1lHg2  lJJJeO%wMSs%... .  ",
"       <VJg  gJJJe :VJhO X.     "
};
