/* XPM */
static char *L_21740421828[] = {
/* columns rows colors chars-per-pixel */
"32 32 147 2 ",
"   c #090809",
".  c #120B03",
"X  c #180708",
"o  c #1C0A09",
"O  c #01151E",
"+  c #1C1611",
"@  c #101A1C",
"#  c #361809",
"$  c #2D0A10",
"%  c #3E0618",
"&  c #231D1A",
"*  c #36200D",
"=  c #30280A",
"-  c #2A2415",
";  c #30281A",
":  c #383112",
">  c #101E22",
",  c #1C1D22",
"<  c #0E193E",
"1  c #171D38",
"2  c #02212C",
"3  c #13242E",
"4  c #232125",
"5  c #312D2E",
"6  c #3D2831",
"7  c #31333A",
"8  c #3A393E",
"9  c #41071A",
"0  c #420A1A",
"q  c #510E1D",
"w  c #53101E",
"e  c #542103",
"r  c #44360E",
"t  c #4A371E",
"y  c #63340A",
"u  c #5A0C23",
"i  c #630D26",
"p  c #6E1225",
"a  c #6C1B21",
"s  c #7B1623",
"d  c #7A1728",
"f  c #5E3E29",
"g  c #4F4B2B",
"h  c #4B483C",
"j  c #6A5632",
"k  c #16264A",
"l  c #113849",
"z  c #373941",
"x  c #3B3A41",
"c  c #22305A",
"v  c #19366A",
"b  c #493B40",
"n  c #422760",
"m  c #5F3A68",
"M  c #0F4054",
"N  c #0E4358",
"B  c #20425B",
"V  c #0D4D65",
"C  c #154C67",
"Z  c #104178",
"A  c #48474A",
"S  c #424551",
"D  c #4A4952",
"F  c #514E5A",
"G  c #4C505E",
"H  c #5E595E",
"J  c #7E7542",
"K  c #4E5968",
"L  c #5B5D6D",
"P  c #744560",
"I  c #5E606D",
"U  c #736861",
"Y  c #626474",
"T  c #843304",
"R  c #9C231E",
"E  c #AA251A",
"W  c #AB291D",
"Q  c #B32C1C",
"!  c #BA2E1A",
"~  c #851A23",
"^  c #8A1C21",
"/  c #9B2220",
"(  c #9D540A",
")  c #B85A07",
"_  c #B3531F",
"`  c #A77C1D",
"'  c #9D5D3D",
"]  c #F27D0C",
"[  c #C06F26",
"{  c #95484A",
"}  c #A35759",
"|  c #B7851D",
" . c #978F28",
".. c #AA9F27",
"X. c #EB9B23",
"o. c #D0C335",
"O. c #E9CF33",
"+. c #8B815B",
"@. c #C48052",
"#. c #C89359",
"$. c #D4A351",
"%. c #FFFF43",
"&. c #0E5D82",
"*. c #155A96",
"=. c #205285",
"-. c #05608A",
";. c #0C6488",
":. c #1C6C89",
">. c #0B6892",
",. c #1F7C9E",
"<. c #1C49AE",
"1. c #1E54AD",
"2. c #1E57B4",
"3. c #214BA6",
"4. c #0C7AAA",
"5. c #146CB1",
"6. c #4E5486",
"7. c #5A7087",
"8. c #4A7193",
"9. c #6D7387",
"0. c #717589",
"q. c #7A7E94",
"w. c #1772C3",
"e. c #816F89",
"r. c #977886",
"t. c #0983BB",
"y. c #6D9389",
"u. c #7B8095",
"i. c #7E839A",
"p. c #0B8BC5",
"a. c #1085CD",
"s. c #0A91CB",
"d. c #0D8ED2",
"f. c #108AD6",
"g. c #0997DB",
"h. c #0B9CDD",
"j. c #099BE1",
"k. c #0AA2E7",
"l. c #81869E",
"z. c #88869F",
"x. c #82889F",
"c. c #90899F",
"v. c #B6B081",
"b. c #858AA3",
"n. c #8A8FA9",
"m. c #8C92AC",
"M. c #9392A2",
/* pixels */
"m.m.m.m.m.m.m.m.m.m.m.m.m.m.m.m.m.m.m.m.m.m.m.m.m.m.m.m.m.m.m.m.",
"m.m.m.m.m.m.m.m.m.m.m.m.m.m.m.m.m.m.m.m.m.m.m.m.m.m.m.m.m.m.m.m.",
"m.m.m.m.m.m.m.m.m.m.m.m.m.m.m.m.m.m.m.m.m.m.m.m.m.m.m.m.m.m.m.m.",
"m.m.m.m.m.m.m.m.m.m.m.m.m.m.m.m.m.m.m.m.m.m.m.m.m.m.m.m.m.m.m.m.",
"m.m.m.m.m.m.m.m.m.m.m.m.m.m.m.m.m.m.m.m.m.m.m.m.m.m.m.m.m.m.m.m.",
"m.m.m.m.m.m.m.m.m.m.m.m.m.m.m.m.m.m.m.m.m.m.m.m.m.m.m.m.m.m.m.m.",
"m.m.m.m.m.m.m.m.m.m.m.m.m.e.e.n.m.m.m.m.m.m.m.m.m.m.m.m.m.m.m.m.",
"m.m.m.m.m.m.m.m.m.m.m.m.n.P P m.m.m.m.m.m.m.m.m.m.m.m.m.m.m.m.m.",
"m.m.m.m.m.m.m.m.m.m.m.m.n.b.z.m.m.m.m.m.m.m.m.m.m.m.m.m.m.m.m.m.",
"m.m.m.m.m.m.m.m.m.m.r.} c.v.#.{ b 0.m.m.m.m.m.m.m.m.m.m.m.m.m.m.",
"m.m.m.m.m.m.m.m.m.m.r.} c.$.X.[ t D 0.m.m.m.m.m.m.m.m.m.m.m.m.m.",
"m.m.m.m.m.m.m.m.m.m.m.m.n.@.X.o.J ; x m.m.m.m.m.m.m.m.m.m.m.m.m.",
"m.m.m.m.m.m.m.m.m.m.m.m.m.M.U : g - x n.m.m.m.m.m.m.m.m.m.m.m.m.",
"m.m.m.m.m.m.m.m.m.m.m.m.m.L C >.,.=.c S b.m.m.m.m.m.m.m.m.m.m.m.",
"m.m.m.m.m.m.m.m.m.m.m.n.Y , 2 &.-.v <   G i.m.m.m.m.m.m.m.m.m.m.",
"m.m.m.m.m.m.m.m.m.m.m.9.3 O O O O O O O O L n.m.m.m.m.m.m.m.m.m.",
"m.m.m.m.m.m.m.m.m.m.Y 4 4.p.t.t.p.p.4.p.t.M D m.m.m.m.m.m.m.m.m.",
"m.m.m.m.m.m.m.m.m.I 4 @ p.k.h.g.w.f.4.V s.4.C D z.m.m.m.m.m.m.m.",
"m.m.m.m.m.m.m.m.m.8 @ M Z t.h.d.2.*.V k 5.j.;.& q.m.m.m.m.m.m.m.",
"m.m.m.m.m.m.m.m.m.t M t.3 ;.d.a.1.1 < 1.1.a.;.& q.m.m.m.m.m.m.m.",
"m.m.m.m.m.m.m.m.m.z N t.> v 2.<.<.1 l s.d.h.;.& u.m.m.m.m.m.m.m.",
"m.m.m.m.m.m.m.m.m.z t +.:.<.<.3.n a F h.h.y.j & u.m.m.m.m.m.m.m.",
"m.m.m.m.m.m.m.m.m.z e _ 7.6.K m d E { 8.8.' T & u.m.m.m.m.m.m.m.",
"m.m.m.m.m.m.m.m.m.z $ p E Q Q W Q Q E W W ~ 0 & u.m.m.m.m.m.m.m.",
"m.m.m.m.m.m.m.m.m.8 $ p W ! R s W ^ p s W ~ % & u.m.m.m.m.m.m.m.",
"m.m.m.m.m.m.m.m.m.8 $ p s E W R Q ~ u i d d 0 & u.m.m.m.m.m.m.m.",
"m.m.m.m.m.m.m.m.n.L 6 9 u ~ / / / d i i 0 % 0 G z.m.m.m.m.m.m.m.",
"m.m.m.m.m.m.m.m.m.x.H e q u u u q u u w * = h e.n.m.m.m.m.m.m.m.",
"m.m.m.m.m.m.m.m.m.B y ) # o o o o o X * ..O. .5 l.m.m.m.m.m.m.m.",
"m.m.m.m.m.m.m.m.m.7 y ] | r 4 I I Y z = O.%...+ q.m.m.m.m.m.m.m.",
"m.m.m.m.m.m.m.m.m.L f ( ` j I m.m.m.0.A  ...` D l.n.m.m.m.m.m.m.",
"m.m.m.m.m.m.m.m.m.m.I . . I m.m.m.m.n.u.,   z m.m.m.m.m.m.m.m.m."
};
