/* XPM */
static char *L_61740421881[] = {
/* columns rows colors chars-per-pixel */
"32 32 115 2 ",
"   c #020001",
".  c #0C0D0F",
"X  c #120B02",
"o  c #120B03",
"O  c #151417",
"+  c #33260C",
"@  c #322A0C",
"#  c #3E1D22",
"$  c #24252C",
"%  c #313038",
"&  c #34363F",
"*  c #3C3A39",
"=  c #6D3611",
"-  c #703E19",
";  c #403A22",
":  c #62520F",
">  c #675E17",
",  c #69511F",
"<  c #625C1F",
"1  c #625C35",
"2  c #635D36",
"3  c #706727",
"4  c #3D3B42",
"5  c #41434F",
"6  c #42424F",
"7  c #585B6B",
"8  c #595D6D",
"9  c #5F606E",
"0  c #676767",
"q  c #716D60",
"w  c #606474",
"e  c #767474",
"r  c #852B0B",
"t  c #954300",
"y  c #9D5C0C",
"u  c #9D5617",
"i  c #8C6D1B",
"p  c #C26D06",
"a  c #A35859",
"s  c #A65B5D",
"d  c #836360",
"f  c #A49826",
"g  c #A49B26",
"h  c #E38D12",
"j  c #DBB02B",
"k  c #FFA531",
"l  c #DDCD31",
"z  c #FFF13B",
"x  c #FFFE3E",
"c  c #BD8B5E",
"v  c #D9806D",
"b  c #F19E63",
"n  c #FEAC62",
"m  c #FEB778",
"M  c #D3C743",
"N  c #EDCD79",
"B  c #777B81",
"V  c #71758A",
"C  c #787D93",
"Z  c #787D94",
"A  c #997987",
"S  c #7C8198",
"D  c #7D8298",
"F  c #9E998F",
"G  c #808496",
"H  c #80879E",
"J  c #878B98",
"K  c #91889F",
"L  c #8F939F",
"P  c #969B9B",
"I  c #8589A3",
"U  c #8E88A2",
"Y  c #8B91AB",
"T  c #8D91AB",
"R  c #8C92AC",
"E  c #8C93AC",
"W  c #8D93AC",
"Q  c #8C92AD",
"!  c #8C93AD",
"~  c #8E95AE",
"^  c #8F95AE",
"/  c #9298B1",
"(  c #959BB3",
")  c #979DB4",
"_  c #A09FA1",
"`  c #9BA1B7",
"'  c #9CA1B8",
"]  c #A2A0A2",
"[  c #A8ADBB",
"{  c #A9ADC1",
"}  c #B0B4C5",
"|  c #B1B5C6",
" . c #B3B7C8",
".. c #B7BACA",
"X. c #B9BCCC",
"o. c #CCC3C1",
"O. c #C7C7CE",
"+. c #C0C4D2",
"@. c #C9CCD8",
"#. c #CACEDA",
"$. c #D5D6E1",
"%. c #D4D7E1",
"&. c #D8DAE2",
"*. c #D8DAE3",
"=. c #E1E1E1",
"-. c #E8E9EE",
";. c #FFF5EB",
":. c #F1F1F1",
">. c #F0F1F4",
",. c #F3F2F6",
"<. c #F3F3F6",
"1. c #F9F9FA",
"2. c #FFFEFD",
"3. c #FFFEFE",
"4. c #FEFFFF",
/* pixels */
"R R R R R R R R R R R R R R R R R R R R R R R R R R R R R R R R ",
"R R R R R R R R R R R R R ^ R R R R R R R ^ R R R R R R R R R R ",
"R R R R R R R ! R R R R R R R R R R ^ R R R R R R R R R R ^ R R ",
"R R R R ! R R R R R R R R R R R R R R R R R R R R R R R R R R R ",
"R R R R ! W W W R R R R R R R R R R R R R R R R R R R R R R R R ",
"R R R R ! ! T W R R R R R R R R R R R R R R ! R R R R R R R R R ",
"R R R R E E T E R R R R R R R R R R R R R ! R R R R R R R R R R ",
"R R R Y E E E E R R R R R R R R R R R R R R R R R R R R R R R R ",
"R R R R R R R R ! R ^ R E Y R R T T R R R R R R R R R R R R R R ",
"R R R R R R R R R R R R E E R U a A R R R R R R R R R R R R R R ",
"R R R R R R R R ^ R R R E E E U s A ^ R R R R R R R R R T R R R ",
"R R R R R R R R R R R R E S J P G I R R R R R R R R R R T ^ R ^ ",
"R R R R R R R R R R R R E 6 3 M ; w R R R R R R R R R R R ! Q Q ",
"R R R R R R R R R R R I 6 = p h r # 8 R R R R R R R R R R ! R T ",
"R R R R R R R R R R ) [ 0 c n b v d B | ^ ! R R R R R R R R R R ",
"R R R R R R R R R / +.3.3.3.3.3.3.3.3.,.{ ! R R R R R R R R R R ",
"R R R R R R R R E @.1.3.3.3.3.3.3.3.3.3.,.} E E E Y Q E Y Q E Y ",
"! ! R R R R R ( #.<.3.3.3.3.3.3.3.3.3.3.3.-.X.E E E T ! ! T T ! ",
"R R R R R R R ' <.3.3.3.3.3.3.3.3.3.3.3.3.3.*.Y E E Y Y E Q Q E ",
"R R R R R R ! ` >.3.3.3.3.3.3.3.3.3.3.3.3.3.$.E Y Y Q E Y T ! Y ",
"R R R R Q E Y ` >.3.3.3.3.3.3.3.3.3.3.3.3.3.$.E Q T E Q ! Q E E ",
"R R R R E Y Q ) >.3.3.3.3.3.3.3.3.3.3.3.3.3.$.E E ! Y T T Q ! Y ",
"R R R R E E E ` >.3.3.3.3.3.3.3.3.3.3.3.3.3.$.E Y ! Y ! ! Y T Q ",
"R R R R Q E E ` >.3.3.3.3.3.3.3.3.3.3.3.3.3.$.E Q T E Q T E E Q ",
"R R R R R R R ' >.3.3.3.3.3.3.3.3.3.3.3.3.3.$.E E Y ! ! ! R R R ",
"R R R R R R R ' <.3.3.3.3.3.3.3.3.3.3.3.3.3.*.T T ! T ! R R R R ",
"R R R R R R R ( @.>.3.3.3.3.3.3.3.3.=._ _ +.X.Y Q ! T Y R R R R ",
"R R R R R R R R S o.;.3.3.3.3.3.3.:.F + @ 9 I R E Y Q E R R R R ",
"R R R R R R R S $ u m 3.3.3.3.3.3.e , j l < 6 Y R R R R R R R R ",
"R R R R R R R Z . t k N q U  .....4 : z x > % Y R R R R R R ! R ",
"R R Y R E E R I 5 - y i * V E E T 7 1 g f 1 8 R ^ R R R R R R R ",
"R R E E E E Y Y Y &   O C E E Y E T w X o 9 T R R R R R R R R R "
};
