/* XPM */
static char *L_71740421894[] = {
/* columns rows colors chars-per-pixel */
"32 32 57 1 ",
"  c #8C92AC",
". c #8D92AC",
"X c #8C93AC",
"o c #8C92AD",
"O c #8D92AD",
"+ c #8D93AD",
"@ c #8F94AE",
"# c #9197B1",
"$ c #9298B0",
"% c #969BB3",
"& c #979BB3",
"* c #9A9FB6",
"= c #9AA0B6",
"- c #9CA1B7",
"; c #9CA1B8",
": c #9DA2B8",
"> c #A3A7BD",
", c #A3A8BD",
"< c #A7AABF",
"1 c #A9ADC1",
"2 c #ADB1C4",
"3 c #B1B4C6",
"4 c #B2B7C7",
"5 c #B2B6C8",
"6 c #B3B7C8",
"7 c #B5B8CA",
"8 c #B7BACA",
"9 c #B8BBCC",
"0 c #B9BCCD",
"q c #C0C4D2",
"w c #C8CAD6",
"e c #C8CBD8",
"r c #C9CCD8",
"t c #CACDD9",
"y c #D1D4DE",
"u c #D2D5DE",
"i c #D4D6E0",
"p c #D9DBE3",
"a c #DBDCE5",
"s c #DADDE5",
"d c #E1E3EA",
"f c #E2E3EA",
"g c #E8E9EE",
"h c #EBECF1",
"j c #EEEEF3",
"k c #EEEFF3",
"l c #EEF0F3",
"z c #EFF0F4",
"x c #F0F1F4",
"c c #F0F0F5",
"v c #F1F1F5",
"b c #F3F3F6",
"n c #F6F7F9",
"m c #F9F9FA",
"M c #FCFCFD",
"N c #FDFCFD",
"B c white",
/* pixels */
"                  X@            ",
"                      @         ",
"              @                 ",
"                X               ",
"                                ",
"                          @     ",
"                  @X            ",
" @    @            X            ",
"            @ XX           @ @ @",
"              XX                ",
"@                               ",
"          $*$$:==##*            ",
"  @       5d=rvzz24f*           ",
"         9hv:iBBB44Bs>     @    ",
"       @5gBz:uBBB34BBi>         ",
"      #1vBBz;uBBB44BBBs*     o  ",
"      4zBBBk:uBBB44BBBBf*       ",
"      9BBBg4#iBBB7#qmBBn=    @  ",
"      <uui7  9iiu<  wiir$       ",
"      $:;;:: %:::##-:::=@       ",
"@XXX  4jjjvf*evzj21vvkvf=      X",
" XXX  7BBBBv:iBBB74BBBBb:     XX",
"  X   7BBBBv:iBBB45BBBBv*     XX",
"      4jzzvf*evjj22vvlvf*       ",
"      #:::**@%::*#$::::*@   X o ",
"      1yui5  0iuu1  wiie% XX    ",
"      9BBBg4$iBBB7$qmBBv*  X    ",
"      5BBBBj:iBBB54BBBBv: @     ",
"@     7BBBBz:uBBB45BBBBz;       ",
"      7BBBBv:iBBB57BBBBv;     @ ",
"    XX<pMBvr$9piu,>pMBbr$      X",
"    X @:vBi        =vBi         "
};
