/* XPM */
static char *safeimagekit_ca1740130528[] = {
/* columns rows colors chars-per-pixel */
"32 32 154 2 ",
"   c #242A2E",
".  c #252F3F",
"X  c #2C333D",
"o  c #31383E",
"O  c #2B3441",
"+  c #2F3A41",
"@  c #22324E",
"#  c #333742",
"$  c #323C43",
"%  c #2B3A56",
"&  c #1E356A",
"*  c #1F3B75",
"=  c #213A6B",
"-  c #233F75",
";  c #35414A",
":  c #3A444D",
">  c #374A4B",
",  c #3E4652",
"<  c #174768",
"1  c #1B4C6B",
"2  c #33476E",
"3  c #304773",
"4  c #225672",
"5  c #3C5C70",
"6  c #424655",
"7  c #454F5A",
"8  c #425459",
"9  c #47635D",
"0  c #474F62",
"q  c #4D5163",
"w  c #4E5866",
"e  c #515564",
"r  c #535965",
"t  c #555A6B",
"y  c #595F6C",
"u  c #4D5972",
"i  c #535E77",
"p  c #4B6A65",
"a  c #4F6F6C",
"s  c #5A606D",
"d  c #53716D",
"f  c #40637A",
"g  c #5C6374",
"h  c #5B6B72",
"j  c #5A6D75",
"k  c #557672",
"l  c #5B7673",
"z  c #557C74",
"x  c #616475",
"c  c #62677B",
"v  c #646A7D",
"b  c #5A8275",
"n  c #5E847C",
"m  c #5D897F",
"M  c #1D4291",
"N  c #21448C",
"B  c #1647AE",
"V  c #1A4CAE",
"C  c #1A4DB3",
"Z  c #184CB6",
"A  c #2256B0",
"S  c #2159B7",
"D  c #676D81",
"F  c #6A6F84",
"G  c #6C7184",
"H  c #6E7589",
"J  c #767B92",
"K  c #797E96",
"L  c #7B7F98",
"P  c #1853C3",
"I  c #185AC4",
"U  c #1850C8",
"Y  c #155DCB",
"T  c #1565CF",
"R  c #176CCD",
"E  c #1672CE",
"W  c #1676D3",
"Q  c #1C74D1",
"!  c #167FD6",
"~  c #3C8294",
"^  c #1483BE",
"/  c #5F8A81",
"(  c #5B938C",
")  c #5F9B93",
"_  c #639180",
"`  c #6B9E8B",
"'  c #7A8097",
"]  c #7D829B",
"[  c #6BA292",
"{  c #71AA96",
"}  c #72AC98",
"|  c #74B29C",
" . c #5394B9",
".. c #5CA5A4",
"X. c #7CBCA6",
"o. c #7ABFAA",
"O. c #7FC4AC",
"+. c #1F92C9",
"@. c #1589D6",
"#. c #158DD9",
"$. c #0E94DC",
"%. c #1296DC",
"&. c #1499DC",
"*. c #1B9CDC",
"=. c #219BDA",
"-. c #29A4D7",
";. c #25A5DC",
":. c #27A8DE",
">. c #2CAADC",
",. c #3AAADA",
"<. c #33B0DE",
"1. c #3FB5D8",
"2. c #2DAEE1",
"3. c #3EBCE3",
"4. c #44A3D7",
"5. c #43B6D6",
"6. c #43BFE2",
"7. c #4FC4DC",
"8. c #58C1D0",
"9. c #5ACDDE",
"0. c #67C5C7",
"q. c #73CFC8",
"w. c #74D4CE",
"e. c #60CEDA",
"r. c #63D1DE",
"t. c #6CD7DE",
"y. c #72DFDF",
"u. c #74E1DF",
"i. c #7CE4DC",
"p. c #59CFE2",
"a. c #6BDCE1",
"s. c #77E5E0",
"d. c #7EE9E0",
"f. c #81879F",
"g. c #858CA4",
"h. c #888EA7",
"j. c #898EA9",
"k. c #8C92AC",
"l. c #83C8AE",
"z. c #86CDB2",
"x. c #86D8C5",
"c. c #8FE1C3",
"v. c #93E5C5",
"b. c #96E8C6",
"n. c #91E7CB",
"m. c #94EBCC",
"M. c #83ECDF",
"N. c #88ECDB",
"B. c #90EDD3",
"V. c #93F1D6",
"C. c #9BF6D3",
"Z. c #A0F9D4",
"A. c #84EEE1",
"S. c #94F9E1",
/* pixels */
"k.k.k.k.k.k.k.k.k.k.k.k.k.k.k.k.k.k.k.k.j.k.k.k.k.k.k.k.k.k.k.k.",
"k.k.k.k.k.k.k.k.k.k.k.k.g.' J J J J J J K g.k.k.k.k.k.k.k.k.k.k.",
"k.k.k.k.k.k.k.k.k.k.k.k.J w 6 , 6 6 6 6 q H k.k.k.k.k.k.k.k.k.k.",
"k.k.k.k.k.k.k.k.k.k.h.] v 8 > > > > > > 8 j ' h.j.k.k.k.k.k.k.k.",
"k.k.k.k.k.k.k.k.k.h.H w d [ | } { { { | [ l w F j.k.k.k.k.k.k.k.",
"k.k.k.k.k.k.k.k.k.k.c , a O.m.C.C.V.B.n.z.z : g j.k.k.k.k.k.k.k.",
"k.k.k.k.k.k.k.k.k.k.J x h m | m.S.y.8.../ j g J j.k.k.k.k.k.k.k.",
"k.k.k.k.k.k.k.k.k.k.k.h.v ; p z.M.6.+.4 ; x h.k.k.k.k.k.k.k.k.k.",
"k.k.k.k.k.k.k.k.k.k.k.k.D O w z.d.3.^ < X x k.k.k.k.k.k.k.k.k.k.",
"k.k.k.k.k.k.k.k.k.k.k.k.D $ 9 z.M.1.^ 1 $ g j.k.k.k.k.k.k.k.k.k.",
"k.k.k.k.k.k.k.k.k.k.k.k.D O p z.N.6.E < O x k.k.k.k.k.k.k.k.k.k.",
"k.k.k.k.k.k.k.k.k.k.k.k.D $ p O.d.3.+.1 # x h.k.k.k.k.k.k.k.k.k.",
"k.k.k.k.k.k.k.k.k.k.L F g k ( O.9.2.+.~ k h D L k.k.k.k.k.k.k.k.",
"k.k.k.k.k.k.k.k.k.k.D , a X.q.5.;.&.:.0.l.l , x h.k.k.k.k.k.k.k.",
"k.k.k.k.k.k.k.k.] H h p ` b.i.<.$.$.:.p.w.) p s H ] j.k.k.k.k.k.",
"k.k.k.k.k.k.k.j.c 7 k X.v.Z.i.<.$.$.*.:.1.0.o.n 7 g g.k.k.k.k.k.",
"k.k.k.k.k.k.k.g.t # z v.C.N.e.>.$.&.%.$.;.a.B._ ; 8 g.k.k.k.k.k.",
"k.k.k.k.k.k.k.g.t + b v.A.7.>.*.&.&.%.$.;.a.m./ o q ] k.k.k.k.k.",
"k.k.k.k.k.k.k.g.t # b v.s.2.$.%.&.&.%.$.;.t.m._ ; q ] k.k.k.k.k.",
"k.k.k.k.k.k.k.g.t $ b x.y.2.$.%.&.&.&.$.;.y.m._ o q g.k.k.k.k.k.",
"k.k.k.k.k.k.k.g.t $ b c.u.>.%.%.&.&.&.$.-.t.m.m + w ] k.k.k.k.k.",
"k.k.k.k.k.k.k.g.t $ b v.s.>.%.%.&.&.&.$.;.a.m._ $ w g.k.k.k.k.k.",
"k.k.k.k.k.k.k.g.t + z x.a.:.%.&.&.&.%.$.;.r.x.m $ q g.k.k.k.k.k.",
"k.k.k.k.k.k.k.h.t o 5  .4.=.&.&.&.&.&.%.*.,. .f + e ] k.k.k.k.k.",
"k.k.k.k.k.k.k.g.y + = A Q #.&.&.&.&.&.%.#.Q S - O r f.k.k.k.k.k.",
"k.k.k.k.k.k.k.g.y O & B T #.&.&.&.&.%.@.R Y Z * O r f.k.k.k.k.k.",
"k.k.k.k.k.k.k.g.s + = V T #.&.&.&.&.@.R U U Z - O w f.k.k.k.k.k.",
"k.k.k.k.k.k.k.g.t X = V T W ! ! ! ! W T P U Z - . q f.k.k.k.k.k.",
"k.k.k.k.k.k.k.g.y O * V P I I P I I I P Z U C 1 O r f.k.k.k.k.k.",
"k.k.k.k.k.k.k.h.G q 2 N M M N M N M M N M M M 3 0 v g.k.k.k.k.k.",
"k.k.k.k.k.k.k.k.g.J i % @ @ @ @ @ @ @ @ @ @ % u J g.k.k.k.k.k.k.",
"k.k.k.k.k.k.k.k.k.k.c +                     X s h.k.k.k.k.k.k.k."
};
