/* XPM */
static char *ca1740060509[] = {
/* columns rows colors chars-per-pixel */
"32 32 139 2 ",
"   c #1C1D28",
".  c #1E222C",
"X  c #202329",
"o  c #242A2D",
"O  c #202630",
"+  c #242C34",
"@  c #242D3A",
"#  c #273138",
"$  c #29333A",
"%  c #2C393E",
"&  c #22324E",
"*  c #1E356A",
"=  c #1E3B75",
"-  c #203762",
";  c #213A6B",
":  c #233F75",
">  c #334548",
",  c #374A4B",
"<  c #394C4D",
"1  c #3B504F",
"2  c #174768",
"3  c #1B4C6B",
"4  c #225672",
"5  c #3C5C70",
"6  c #43564F",
"7  c #405B59",
"8  c #47635D",
"9  c #48635D",
"0  c #476661",
"q  c #496761",
"w  c #4B6B65",
"e  c #4C6F69",
"r  c #4F746C",
"t  c #567A6E",
"y  c #40637A",
"u  c #547B72",
"i  c #578076",
"p  c #5A8275",
"a  c #59857A",
"s  c #5D8A7F",
"d  c #1D428B",
"f  c #1D4291",
"g  c #1647AE",
"h  c #1A4CAE",
"j  c #1649B4",
"k  c #1A4DB3",
"l  c #1A4EB8",
"z  c #2256B0",
"x  c #2159B7",
"c  c #194FC4",
"v  c #1853C3",
"b  c #185AC4",
"n  c #1850C8",
"m  c #185FC9",
"M  c #155DCB",
"N  c #1565CF",
"B  c #176CCD",
"V  c #1672CE",
"C  c #1676D3",
"Z  c #1C74D1",
"A  c #167FD6",
"S  c #3C8294",
"D  c #1483BE",
"F  c #1C8ABF",
"G  c #5B938C",
"H  c #5F9B93",
"J  c #639180",
"K  c #6B9E8B",
"L  c #69A08F",
"P  c #6CA593",
"I  c #71AA96",
"U  c #72AC98",
"Y  c #74B29C",
"T  c #5394B9",
"R  c #5CA5A4",
"E  c #7BBDA6",
"W  c #7ABFAA",
"Q  c #7FC5AD",
"!  c #1F92C9",
"~  c #158CD7",
"^  c #158DD9",
"/  c #1585D5",
"(  c #0E94DC",
")  c #1296DC",
"_  c #1499DC",
"`  c #1B9CDC",
"'  c #219BDA",
"]  c #29A4D7",
"[  c #25A5DC",
"{  c #27A8DE",
"}  c #2CAADC",
"|  c #3FA4D8",
" . c #34AFDC",
".. c #33B0DE",
"X. c #3FB5D8",
"o. c #2DAEE1",
"O. c #3EBCE3",
"+. c #5399C0",
"@. c #44A3D7",
"#. c #43B6D6",
"$. c #43BFE2",
"%. c #4FC4DC",
"&. c #58C1D0",
"*. c #5ACDDE",
"=. c #67C5C7",
"-. c #6AC3C0",
";. c #64C7CB",
":. c #73CFC8",
">. c #74D4CE",
",. c #60CEDA",
"<. c #63D1DE",
"1. c #6CD7DE",
"2. c #72DFDF",
"3. c #74E1DF",
"4. c #7CE4DC",
"5. c #59CFE2",
"6. c #6BDCE1",
"7. c #77E5E0",
"8. c #7EE9E0",
"9. c #85CBAF",
"0. c #88CDAF",
"q. c #86CDB2",
"w. c #87DBC9",
"e. c #85D4C2",
"r. c #8FE1C3",
"t. c #93E5C5",
"y. c #96E8C6",
"u. c #91E7CB",
"i. c #94EBCC",
"p. c #83ECDF",
"a. c #88ECDB",
"s. c #90EDD3",
"d. c #93F1D6",
"f. c #9BF6D3",
"g. c #A0F9D4",
"h. c #84EEE1",
"j. c #94F9E1",
"k. c #9EFFE0",
"l. c None",
/* pixels */
"l.l.l.l.l.l.l.l.l.l.l.l.l.l.l.l.l.l.l.l.l.l.l.l.l.l.l.l.l.l.l.l.",
"l.l.l.l.l.l.l.l.l.l.l.l.l.l.l.l.l.l.l.l.l.l.l.l.l.l.l.l.l.l.l.l.",
"l.l.l.l.l.l.l.l.l.l.l.l.l.. . . . . . . . l.l.l.l.l.l.l.l.l.l.l.",
"l.l.l.l.l.l.l.l.l.l.l.l.l., , , , , , , , > l.l.l.l.l.l.l.l.l.l.",
"l.l.l.l.l.l.l.l.l.l.l.+ 0 L U U I I U Y P e $ l.l.l.l.l.l.l.l.l.",
"l.l.l.l.l.l.l.l.l.l.l.+ e 9.i.f.f.d.s.u.q.t $ l.l.l.l.l.l.l.l.l.",
"l.l.l.l.l.l.l.l.l.l.l.l.7 a Y y.j.6.&.R s 8 l.l.l.l.l.l.l.l.l.l.",
"l.l.l.l.l.l.l.l.l.l.l.l.l.$ e q.p.$.! 4 % l.l.l.l.l.l.l.l.l.l.l.",
"l.l.l.l.l.l.l.l.l.l.l.l.l.. 0 9.p.O.D 2 . l.l.l.l.l.l.l.l.l.l.l.",
"l.l.l.l.l.l.l.l.l.l.l.l.l.O q q.p.O.D 3 + l.l.l.l.l.l.l.l.l.l.l.",
"l.l.l.l.l.l.l.l.l.l.l.l.l.O w Q p.O.D 3 + l.l.l.l.l.l.l.l.l.l.l.",
"l.l.l.l.l.l.l.l.l.l.l.l.l.@ w Q p.O.D 3 @ l.l.l.l.l.l.l.l.l.l.l.",
"l.l.l.l.l.l.l.l.l.l.l.l.< w G Q *.o.! S r 6 l.l.l.l.l.l.l.l.l.l.",
"l.l.l.l.l.l.l.l.l.l.l.+ e E :.#.[ _ ] =.Q t # l.l.l.l.l.l.l.l.l.",
"l.l.l.l.l.l.l.l.l.l.< 0 K y.p. .( ( { 5.>.H w < l.l.l.l.l.l.l.l.",
"l.l.l.l.l.l.l.l.l.$ r E t.g.4. .( ( _ o.X.=.W p % l.l.l.l.l.l.l.",
"l.l.l.l.l.l.l.l.l.$ u t.f.a.,.{ ( ) ) ( [ 6.u.J %   l.l.l.l.l.l.",
"l.l.l.l.l.l.l.l.l.$ p t.h.%. .` ) _ ) ( [ 6.s.J %   l.l.l.l.l.l.",
"l.l.l.l.l.l.l.l.l.$ p t.7.o.( ) _ _ ) ( [ 1.u.J %   l.l.l.l.l.l.",
"l.l.l.l.l.l.l.l.l.$ p w.1.o.( ) _ _ _ ( [ 6.u.J %   l.l.l.l.l.l.",
"l.l.l.l.l.l.l.l.l.$ p t.2. .) ) _ _ ) ) [ 1.u.J %   l.l.l.l.l.l.",
"l.l.l.l.l.l.l.l.l.$ p t.7.} ( ) ) ) ) ) { 6.i.J %   l.l.l.l.l.l.",
"l.l.l.l.l.l.l.l.l.$ u e.6.{ ) ) _ _ ) ) [ <.w.J %   l.l.l.l.l.l.",
"l.l.l.l.l.l.l.l.l.# 5 T @.' _ _ ) _ _ _ ` | T y $ X l.l.l.l.l.l.",
"l.l.l.l.l.l.l.l.l.@ ; z Z ^ _ _ _ _ _ _ ~ Z x : @ o l.l.l.l.l.l.",
"l.l.l.l.l.l.l.l.l.+ ; g N ^ _ _ _ _ ) / V M j = @ o l.l.l.l.l.l.",
"l.l.l.l.l.l.l.l.l.@ ; h B ~ _ _ _ _ ~ B b v l = @ o l.l.l.l.l.l.",
"l.l.l.l.l.l.l.l.l.@ ; h N C A A A A C M c n l = @ o l.l.l.l.l.l.",
"l.l.l.l.l.l.l.l.l.@ ; h v v b b b b b v v v l = @ o l.l.l.l.l.l.",
"l.l.l.l.l.l.l.l.l.@ - d f f f f d f f d f f d ; @ l.l.l.l.l.l.l.",
"l.l.l.l.l.l.l.l.l.l.& & & & & & & & & & & & & & l.l.l.l.l.l.l.l.",
"l.l.l.l.l.l.l.l.l.l.l.o o + + o o o o + o o o l.l.l.l.l.l.l.l.l."
};
