/* XPM */
static char * coll_xpm[] = {
"66 64 306 2",
"  	c #4A3222",
". 	c #493122",
"+ 	c #412D20",
"@ 	c #38291F",
"# 	c #37291F",
"$ 	c #4A3122",
"% 	c #36281F",
"& 	c #1E1C1B",
"* 	c #1C1B1B",
"= 	c #37281F",
"- 	c #1D1C1B",
"; 	c #1A1A1A",
"> 	c #1B1B1B",
", 	c #1A1A1B",
"' 	c #493121",
") 	c #35261F",
"! 	c #15141C",
"~ 	c #11111B",
"{ 	c #12111B",
"] 	c #36261F",
"^ 	c #483121",
"/ 	c #3C2B20",
"( 	c #392A1F",
"_ 	c #39291F",
": 	c #776C29",
"< 	c #9E9931",
"[ 	c #9F9930",
"} 	c #9E9930",
"| 	c #766A29",
"1 	c #3C2B1F",
"2 	c #2F251E",
"3 	c #1B1A1B",
"4 	c #1D1B1B",
"5 	c #B3AE36",
"6 	c #FDFA46",
"7 	c #FCF645",
"8 	c #B2AC36",
"9 	c #1C1B1A",
"0 	c #2F251D",
"a 	c #30251E",
"b 	c #1B1A1A",
"c 	c #1B1B1A",
"d 	c #19191A",
"e 	c #AEA534",
"f 	c #FFF544",
"g 	c #FEF044",
"h 	c #FEEF43",
"i 	c #FFF644",
"j 	c #ACA334",
"k 	c #1A1B1B",
"l 	c #19191B",
"m 	c #FEEF44",
"n 	c #1A1B1A",
"o 	c #4A3121",
"p 	c #483021",
"q 	c #2C211D",
"r 	c #13121A",
"s 	c #12131A",
"t 	c #10111A",
"u 	c #ABA334",
"v 	c #FEF043",
"w 	c #FEF144",
"x 	c #FFF745",
"y 	c #A9A334",
"z 	c #12171A",
"A 	c #11161A",
"B 	c #12181A",
"C 	c #2D241E",
"D 	c #463021",
"E 	c #3E2C20",
"F 	c #3D2B1F",
"G 	c #402F21",
"H 	c #716729",
"I 	c #807C2D",
"J 	c #7F792C",
"K 	c #7E782C",
"L 	c #D1C63B",
"M 	c #FEF344",
"N 	c #FDF044",
"O 	c #FDE742",
"P 	c #FCDA41",
"Q 	c #FCDB41",
"R 	c #FCE041",
"S 	c #CDA535",
"T 	c #794223",
"U 	c #794224",
"V 	c #794324",
"W 	c #7C4524",
"X 	c #6E3F23",
"Y 	c #402C20",
"Z 	c #442F21",
"` 	c #2B231D",
" .	c #201D1B",
"..	c #211D1B",
"+.	c #201C1B",
"@.	c #29251F",
"#.	c #D0C73B",
"$.	c #F9F644",
"%.	c #F9F344",
"&.	c #FCF144",
"*.	c #FDF144",
"=.	c #FBDA40",
"-.	c #F9C03B",
";.	c #F9C13C",
">.	c #F9C33C",
",.	c #F7A738",
"'.	c #F37731",
").	c #F67B31",
"!.	c #C6652B",
"~.	c #27201E",
"{.	c #2B221D",
"].	c #442F20",
"^.	c #452F21",
"/.	c #28211C",
"(.	c #21211D",
"_.	c #D3CB3B",
":.	c #FFF846",
"<.	c #FEF244",
"[.	c #FDEF43",
"}.	c #FBDB40",
"|.	c #F8C03B",
"1.	c #F8C23B",
"2.	c #F8C23C",
"3.	c #F8C43C",
"4.	c #F6A737",
"5.	c #F17631",
"6.	c #F17531",
"7.	c #F87932",
"8.	c #CA652B",
"9.	c #1F1D1C",
"0.	c #191A1A",
"a.	c #29221D",
"b.	c #D1C93B",
"c.	c #FEF745",
"d.	c #F8C13B",
"e.	c #F9C53C",
"f.	c #F5A737",
"g.	c #EF7530",
"h.	c #EF7430",
"i.	c #F77832",
"j.	c #C8642B",
"k.	c #201D1C",
"l.	c #F9C23C",
"m.	c #F9C23B",
"n.	c #F07431",
"o.	c #F07531",
"p.	c #FBDC40",
"q.	c #FCE242",
"r.	c #FCE342",
"s.	c #FAD43F",
"t.	c #F9C63C",
"u.	c #FAD03E",
"v.	c #FAD33F",
"w.	c #F8C33C",
"x.	c #FACD3E",
"y.	c #FEEE44",
"z.	c #FAD23F",
"A.	c #FACE3E",
"B.	c #F8C13C",
"C.	c #F8BE3B",
"D.	c #FDF244",
"E.	c #FACF3E",
"F.	c #F9C43C",
"G.	c #F8C33B",
"H.	c #FACB3D",
"I.	c #FACA3D",
"J.	c #FAC93D",
"K.	c #FAD23E",
"L.	c #FCE943",
"M.	c #FDE843",
"N.	c #F7B239",
"O.	c #F7B53A",
"P.	c #F7B43A",
"Q.	c #F8BC3B",
"R.	c #FBD63F",
"S.	c #FDEF44",
"T.	c #FDED43",
"U.	c #FAC73D",
"V.	c #F38B34",
"W.	c #EF7330",
"X.	c #F07831",
"Y.	c #EF7631",
"Z.	c #F5A137",
"`.	c #FBD740",
" +	c #FCE442",
".+	c #F28733",
"++	c #EF6F30",
"@+	c #EF7130",
"#+	c #F59F36",
"$+	c #F28833",
"%+	c #EF7230",
"&+	c #EF6E30",
"*+	c #EF7030",
"=+	c #FDF245",
"-+	c #FDF145",
";+	c #FDF445",
">+	c #FDE542",
",+	c #FAC83D",
"'+	c #EE6D2F",
")+	c #F59E36",
"!+	c #F9C93D",
"~+	c #FBD43F",
"{+	c #F28A33",
"]+	c #F28C34",
"^+	c #F28B34",
"/+	c #F5A337",
"(+	c #F6AC38",
"_+	c #F6AA38",
":+	c #F6AB38",
"<+	c #F6A938",
"[+	c #F8B73A",
"}+	c #F8BF3B",
"|+	c #EF6C2F",
"1+	c #EE6C30",
"2+	c #F7B139",
"3+	c #FBCD3E",
"4+	c #F6AE39",
"5+	c #F9C33B",
"6+	c #F6AD39",
"7+	c #FAC63C",
"8+	c #FAC63D",
"9+	c #F5A938",
"0+	c #F7B93A",
"a+	c #F49D36",
"b+	c #F49E36",
"c+	c #F49635",
"d+	c #F49836",
"e+	c #F49936",
"f+	c #F39535",
"g+	c #EE6C2F",
"h+	c #F39735",
"i+	c #EF7531",
"j+	c #28211D",
"k+	c #2A221D",
"l+	c #1E1D1C",
"m+	c #26241E",
"n+	c #FFFB46",
"o+	c #FFF444",
"p+	c #FFF545",
"q+	c #FFF445",
"r+	c #FBD53F",
"s+	c #F9C73C",
"t+	c #F39835",
"u+	c #EF7431",
"v+	c #F47631",
"w+	c #FB7A32",
"x+	c #251F1D",
"y+	c #2A231D",
"z+	c #3A2A1F",
"A+	c #3D2E20",
"B+	c #8D822E",
"C+	c #A4A033",
"D+	c #A39D32",
"E+	c #A49D32",
"F+	c #D9A135",
"G+	c #F7A437",
"H+	c #F5A437",
"I+	c #F5A637",
"J+	c #F27631",
"K+	c #D2682D",
"L+	c #9D5128",
"M+	c #9D5127",
"N+	c #A05428",
"O+	c #884A25",
"P+	c #3B2A1F",
"Q+	c #2E241D",
"R+	c #1A191A",
"S+	c #A55428",
"T+	c #F57631",
"U+	c #F07430",
"V+	c #F57831",
"W+	c #A35428",
"X+	c #181A1A",
"Y+	c #2E231E",
"Z+	c #18181A",
"`+	c #16171A",
" @	c #A45428",
".@	c #F67831",
"+@	c #A25428",
"@@	c #18191A",
"#@	c #17191A",
"$@	c #2F241E",
"%@	c #191A1B",
"&@	c #A55528",
"*@	c #F57731",
"=@	c #F67731",
"-@	c #A85629",
";@	c #F97832",
">@	c #F97932",
",@	c #A65528",
"'@	c #32261E",
")@	c #33261E",
"!@	c #874925",
"~@	c #BD5F2A",
"{@	c #BA5E2A",
"]@	c #B95E2A",
"^@	c #BD602A",
"/@	c #864925",
"(@	c #3A291F",
"_@	c #231E1B",
":@	c #231E1C",
"<@	c #3A2A20",
"[@	c #3B2B1F",
"}@	c #2D241D",
"|@	c #2C231D",
"1@	c #473021",
"                                                                                                                                    ",
"                          . + @ # # # # # # # # # # # # # # # # # # # # # # # # # # # # # # # # # # @ + .                           ",
"                          $ % & * * * * * * * * * * * * * * * * * * * * * * * * * * * * * * * * * * & % $                           ",
"                            = - ; ; ; ; ; ; ; ; ; ; ; ; ; ; ; ; ; ; ; ; ; ; ; ; ; ; ; ; ; ; ; ; ; ; - @                             ",
"                            = - ; > > > > > > > > > > > > > > > > > > > > > > > > > > > > > > > > ; - @                             ",
"                            = - ; , , , , , , , , , , , , , , , , , , , , , , , , , , , , , , , , ; - @                             ",
"              ' ' ' ' ' ' . ) ! ~ { { { { { { { { { { { { { { { { { { { { { { { { { { { { { { { { ~ ! ] . ' ' ' ' ' '               ",
"              ^ / @ ( ( _ _ : < [ } } } } } } } } } } } } } } } } } } } } } } } } } } } } } } } } [ < | @ ( ( ( @ 1 ^               ",
"              ^ 2 - - - 3 4 5 6 7 7 7 7 7 7 7 7 7 7 7 7 7 7 7 7 7 7 7 7 7 7 7 7 7 7 7 7 7 7 7 7 7 7 6 8 9 * - - - 0 ^               ",
"              ^ a b ; c d > e f g h h h h h h h h h h h h h h h h h h h h h h h h h h h h h h h h g i j ; d c ; c a ^               ",
"              ^ a b k > d > e f g g g g g g g g g g g g g g g g g g g g g g g g g g g g g g g g g g i j ; l > , c a ^               ",
"              ^ a b , > d > e f g g g m h h h h h h h h h h h h h h h h h h h h h h h h h h h h h g i j ; d c n c a ^               ",
"  .   o o o o p q r s s t s u f g g m v g w w w w w w w w w w w w w w w w w w w w w w w w w w w w w x y z A B z B C ^ o o o o   .   ",
"  D E F F F F G H I J J K J L M g g g N O P Q Q Q Q Q Q Q Q Q Q Q Q Q Q Q Q Q Q Q Q Q Q Q Q Q Q Q Q R S T U V U W X Y F F F F E D   ",
"  Z `  .....+.@.#.$.%.%.%.%.&.v g g g *.=.-.;.;.;.;.;.;.;.;.;.;.;.;.;.;.;.;.;.;.;.;.;.;.;.;.;.;.;.;.>.,.'.'.'.'.).!.~. ..... .{.].  ",
"  ^./.; ; ; d (._.:.w w w <.g [.m g g *.}.|.1.1.1.1.1.1.1.1.1.1.1.1.1.1.1.1.1.1.1.1.1.1.1.1.1.1.1.2.3.4.5.6.5.6.7.8.9.0.; ; ; /.^.  ",
"  ^.a., ; k d (.b.c.h h h h h g g g g *.}.d.>.>.>.>.>.>.>.>.>.>.>.>.>.>.>.>.>.>.>.>.>.>.>.>.>.>.>.>.e.f.g.h.h.h.i.j.k.0.k ; , a.^.  ",
"  ^.a., ; > d (.b.c.h g g g g g g g g *.}.d.>.>.>.>.l.m.m.m.m.m.m.m.m.m.m.m.m.l.>.>.>.>.>.>.>.>.>.>.e.f.g.n.o.h.i.j.k.0.> ; k a.^.  ",
"  ^.a., ; > d (.b.c.h g m m g w w w w <.p.d.>.>.l.>.1.d.d.d.d.d.d.d.d.d.d.d.d.1.>.l.>.>.>.>.>.>.>.>.e.f.g.n.o.h.i.j.k.0.> ; k a.^.  ",
"  ^.a., ; > d (.b.c.h m g g O q.q.q.q.r.s.d.>.>.>.m.t.u.u.u.u.u.u.u.u.u.u.u.u.t.m.>.>.>.>.>.>.>.>.>.e.f.g.n.o.h.i.j.k.0.> ; k a.^.  ",
"  ^.a., ; > d (.b.c.h m g g v.2.3.3.3.3.w.m.>.>.>.|.x.N m y.y.y.y.y.y.y.y.m N x.|.>.>.>.>.>.>.>.>.>.e.f.g.n.o.h.i.j.k.0.> ; k a.^.  ",
"  ^.a., ; > d (.b.c.h m g g z.d.m.m.m.m.m.>.>.>.>.|.A.*.g g g g g g g g g g *.x.|.>.>.>.>.>.>.>.>.>.e.f.g.n.o.h.i.j.k.0.> ; k a.^.  ",
"  ^.a., ; > d (.b.c.h m g g z.d.m.>.>.>.>.>.>.>.>.|.A.*.g m m m m m m m m g *.x.|.>.>.>.>.>.>.>.>.>.e.f.g.n.o.h.i.j.k.0.> ; k a.^.  ",
"  ^.a., ; > d (.b.c.h m g g z.d.m.>.>.>.>.>.>.>.>.|.A.*.g h h h h h h h h g *.x.|.w.1.1.1.1.>.>.>.>.e.f.g.n.o.h.i.j.k.0.> ; k a.^.  ",
"  ^.a., ; > d (.b.c.h m g g z.d.m.>.>.l.1.d.d.d.B.C.x.D.w w w w w w w w w w D.E.m.e.e.e.e.F.G.l.>.>.e.f.g.n.o.h.i.j.k.0.> ; k a.^.  ",
"  ^.a., ; > d (.b.c.h m g g z.d.m.>.l.1.t.H.I.I.I.J.K.L.M.M.M.M.M.M.M.M.M.M.L.;.N.O.O.O.P.Q.>.>.>.>.e.f.g.n.o.h.i.j.k.0.> ; k a.^.  ",
"  ^.a., ; > d (.b.c.h m g g z.d.m.>.1.;.R.S.T.T.T.N q.F.F.e.e.e.e.e.e.e.e.e.U.V.W.X.X.X.Y.Z.e.>.>.>.e.f.g.n.o.h.i.j.k.0.> ; k a.^.  ",
"  ^.a., ; > d (.b.c.h m g g z.d.m.>.1.;.`.w g g g M  +d.1.1.1.1.1.1.1.1.1.>.F..+++h.h.h.@+#+t.>.>.>.e.f.g.n.o.h.i.j.k.0.> ; k a.^.  ",
"  ^.a., ; > d (.b.c.h m g g z.d.m.>.1.;.`.w h g h <.r.d.1.>.>.>.>.>.>.>.>.>.e.$+++o.o.o.%+#+t.>.>.>.e.f.g.n.o.h.i.j.k.0.> ; k a.^.  ",
"  ^.a., ; > d (.b.c.h m g g z.d.m.>.1.;.`.w h g h <.r.d.1.>.>.>.>.>.>.>.>.>.e.$+++o.o.o.%+#+t.>.>.>.e.f.g.n.o.h.i.j.k.0.> ; k a.^.  ",
"  ^.a., ; > d (.b.c.h m g g z.d.m.>.1.;.`.w h g h <.r.d.1.>.>.>.>.>.>.>.>.>.e.$+++o.o.o.%+#+t.>.>.>.e.f.g.n.o.h.i.j.k.0.> ; k a.^.  ",
"  ^.a., ; > d (.b.c.h m g g z.d.m.>.1.;.`.w h g h <.r.d.1.>.>.>.>.>.>.>.>.>.e.$+++o.o.o.%+#+t.>.>.>.e.f.g.n.o.h.i.j.k.0.> ; k a.^.  ",
"  ^.a., ; > d (.b.c.h m g g z.d.m.>.1.;.`.w h g h <.r.d.1.>.>.>.>.>.>.>.>.>.e.$+++o.o.o.%+#+t.>.>.>.e.f.g.n.o.h.i.j.k.0.> ; k a.^.  ",
"  ^.a., ; > d (.b.c.h m g g z.d.m.>.1.;.`.w h g h <.r.d.1.>.>.>.>.>.>.>.>.>.e.$+++o.o.o.%+#+t.>.>.>.e.f.g.n.o.h.i.j.k.0.> ; k a.^.  ",
"  ^.a., ; > d (.b.c.h m g g z.d.m.>.1.;.`.w h g h <.r.d.1.>.>.>.>.>.>.>.>.>.e.$+++o.o.o.%+#+t.>.>.>.e.f.g.n.o.h.i.j.k.0.> ; k a.^.  ",
"  ^.a., ; > d (.b.c.h m g g z.d.m.>.1.;.`.w h g h <.r.d.1.l.l.l.l.l.l.l.l.>.e.$+++o.o.o.%+#+t.>.>.>.e.f.g.n.o.h.i.j.k.0.> ; k a.^.  ",
"  ^.a., ; > d (.b.c.h m g g z.d.m.>.1.;.`.w g g g M  +1.>.F.F.F.F.F.F.F.F.F.t.$+&+h.W.W.*+#+t.>.>.>.e.f.g.n.o.h.i.j.k.0.> ; k a.^.  ",
"  ^.a., ; > d (.b.c.h m g g z.d.m.>.1.;.`.=+-+-+-+;+>+>.F.e.e.e.e.e.e.e.e.e.,+.+'+%+%+%+++)+t.>.>.>.e.f.g.n.o.h.i.j.k.0.> ; k a.^.  ",
"  ^.a., ; > d (.b.c.h m g g z.d.m.>.m.2.!+u.u.u.u.~+C.{+]+]+]+]+]+]+]+]+]+]+^+/+(+_+:+:+<+[+>.>.>.>.e.f.g.n.o.h.i.j.k.0.> ; k a.^.  ",
"  ^.a., ; > d (.b.c.h m g g z.d.m.>.>.>.d.}+}+}+}+F.<+|+&+++++++++++++++++&+1+2+3+,+,+,+,+e.2.m.>.>.e.f.g.n.o.h.i.j.k.0.> ; k a.^.  ",
"  ^.a., ; > d (.b.c.h m g g z.d.m.>.>.>.>.>.>.>.1.U.4+%+h.o.o.o.o.o.o.o.o.h.%+4+U.1.1.1.1.1.5+>.>.>.e.f.g.n.o.h.i.j.k.0.> ; k a.^.  ",
"  ^.a., ; > d (.b.c.h m g g z.d.m.>.>.>.>.>.>.>.1.U.6+@+h.o.o.o.o.o.o.o.o.h.%+4+U.1.>.>.>.>.>.>.>.>.e.f.g.n.o.h.i.j.k.0.> ; k a.^.  ",
"  ^.a., ; > d (.b.c.h m g g z.d.m.>.>.>.>.>.>.>.1.U.6+%+h.o.o.o.o.o.o.o.o.h.%+4+U.1.>.>.>.1.1.1.1.2.3.f.g.n.o.h.i.j.k.0.> ; k a.^.  ",
"  ^.a., ; > d (.b.c.h m g g z.d.m.>.>.>.>.>.>.>.1.U.6+&+*+@+@+@+@+@+@+@+@+*+&+6+U.1.>.>.1.F.7+8+8+8+,+9+h.n.o.h.i.j.k.0.> ; k a.^.  ",
"  ^.a., ; > d (.b.c.h m g g z.d.m.>.>.>.>.>.>.>.1.e.0+a+b+b+b+b+b+b+b+b+b+b+a+0+e.1.>.m.F.:+c+d+d+d+e+^+g.n.o.h.i.j.k.0.> ; k a.^.  ",
"  ^.a., ; > d (.b.c.h m g g z.d.m.>.>.>.>.>.>.>.5+2.F.U.U.U.U.U.U.U.U.U.U.U.U.F.2.5+>.m.e.f+g+++*+*+++@+o.o.o.h.i.j.k.0.> ; k a.^.  ",
"  ^.a., ; > d (.b.c.h m g g z.d.m.>.>.>.>.>.>.>.>.m.>.>.>.>.>.>.>.>.>.>.>.>.>.>.m.>.>.m.e.h+@+h.h.h.h.h.o.o.o.h.i.j.k.0.> ; k a.^.  ",
"  ^.a., ; ; d (.b.c.h m g g z.d.m.>.>.>.>.>.>.>.>.>.>.>.>.>.>.>.>.>.>.>.>.>.>.>.>.>.>.m.e.h+@+h.o.o.o.o.i+i+i+h.i.j.k.0.; ; , a.^.  ",
"  ^.j+, , , d (.b.c.h g g g z.d.m.>.>.>.>.>.>.>.>.>.>.>.>.>.>.>.>.>.>.>.>.>.>.>.>.>.>.m.e.h+@+h.o.o.o.o.o.o.o.h.i.j.k.0., , , a.^.  ",
"  Z k+& l+l+- m+_.n+o+o+p+q+r+>.F.F.F.F.F.F.F.F.F.F.F.F.F.F.F.F.F.F.F.F.F.F.F.F.F.F.F.F.s+t+@+h.o.u+h.6.v+v+v+v+w+8.x+- l+l+& y+^.  ",
"  D z+@ @ @ = A+B+C+D+D+D+E+F+G+H+H+H+H+H+H+H+H+H+H+H+H+H+H+H+H+H+H+H+H+H+H+H+H+H+H+H+H+I+{+%+h.o.o.J+K+L+M+M+M+N+O+/ @ @ @ @ P+D   ",
"  ' '         ^ Q+b R+; d ; S+T+U+U+U+U+U+U+U+U+U+U+U+U+U+U+U+U+U+U+U+U+U+U+U+U+U+U+U+U+U+U+n.n.o.o.V+W+0.X+; 0.; 0 ^         ' '   ",
"              ^ Y+Z+Z+Z+`+Z+ @T+U+W.W.W.W.W.W.W.W.W.W.W.W.W.W.W.W.W.W.W.W.W.W.W.W.W.W.W.W.h.n.o.o.o..@+@@@#@@@@@X+$@^               ",
"              ^ a c > > %@c &@*@o.o.o.o.o.o.o.o.o.o.o.o.o.o.o.o.o.o.o.o.o.o.o.o.o.o.o.o.o.o.o.o.o.o.=@W+; %@> > c a ^               ",
"              ^ a b k > %@c &@*@o.h.h.h.h.h.h.h.h.h.h.h.h.h.h.h.h.h.h.h.h.h.h.h.h.h.h.h.h.h.h.h.h.o.=@W+; %@> , c a ^               ",
"              ^ a * * * , 9 -@;@v+v+v+v+v+v+v+v+v+v+v+v+v+v+v+v+v+v+v+v+v+v+v+v+v+v+v+v+v+v+v+v+v+v+>@,@9 3 * * * a ^               ",
"              ^ _ '@)@)@'@)@!@~@{@]@]@]@]@]@]@]@]@]@]@]@]@]@]@]@]@]@]@]@]@]@]@]@]@]@]@]@]@]@]@]@]@{@^@/@'@'@)@)@'@( ^               ",
"              ' ' ' ' ' ' ' (@_@....................................................................:@<@' ' ' ' ' ' '               ",
"                            = * 0., , , , , , , , , , , , , , , , , , , , , , , , , , , , , , , , 0.* #                             ",
"                            = - ; > > > > > > > > > > > > > > > > > > > > > > > > > > > > > > > > ; - @                             ",
"                            = - ; , , , , , , , , , , , , , , , , , , , , , , , , , , , , , , , , ; - @                             ",
"                            = - ; c c c c c c c c c c c c c c c c c c c c c c c c c c c c c c c c ; - #                             ",
"                            [@}@|@|@|@|@|@|@|@|@|@|@|@|@|@|@|@|@|@|@|@|@|@|@|@|@|@|@|@|@|@|@|@|@|@|@}@[@'                           ",
"                            1@D D D D D D D D D D D D D D D D D D D D D D D D D D D D D D D D D D D D 1@'                           "};
