/* XPM */
static char *safeimagekit_world_tileset1740130460[] = {
/* columns rows colors chars-per-pixel */
"32 32 161 2 ",
"   c #1C1718",
".  c #1C1A1A",
"X  c #221917",
"o  c #231C19",
"O  c #28221B",
"+  c #2B231B",
"@  c #162623",
"#  c #1E3D2E",
"$  c #262321",
"%  c #332E2F",
"&  c #26362B",
"*  c #2B362E",
"=  c #342F31",
"-  c #2D3C34",
";  c #2F3A3A",
":  c #353134",
">  c #34323B",
",  c #3A363A",
"<  c #343938",
"1  c #3A383D",
"2  c #4F2714",
"3  c #502613",
"4  c #542C14",
"5  c #4E3515",
"6  c #47371B",
"7  c #47391C",
"8  c #4B3C1D",
"9  c #523515",
"0  c #533916",
"q  c #533F1D",
"w  c #7D3A0F",
"e  c #6D3E12",
"r  c #57392D",
"t  c #5A3B2F",
"y  c #5C3F32",
"u  c #174937",
"i  c #16553D",
"p  c #2F4035",
"a  c #254835",
"s  c #34403D",
"d  c #57431D",
"f  c #58431C",
"g  c #6B4E1A",
"h  c #6F531B",
"j  c #7B5314",
"k  c #74541A",
"l  c #4A4925",
"z  c #534520",
"x  c #574920",
"c  c #5D4032",
"v  c #584D35",
"b  c #5C5036",
"n  c #5C5239",
"m  c #6E5B22",
"M  c #715E23",
"N  c #605336",
"B  c #7C6523",
"V  c #3A3940",
"C  c #275643",
"Z  c #1A6347",
"A  c #2C6E53",
"S  c #3E6F59",
"D  c #287D5C",
"F  c #46444A",
"G  c #4E4C55",
"H  c #4B4C5A",
"J  c #504D57",
"K  c #51505A",
"L  c #5F5E6C",
"P  c #5D626E",
"I  c #5E6370",
"U  c #66606B",
"Y  c #69656C",
"T  c #6B696E",
"R  c #646574",
"E  c #6C6670",
"W  c #6A6970",
"Q  c #A8470A",
"!  c #A14511",
"~  c #A24914",
"^  c #81601C",
"/  c #A76910",
"(  c #AC6F11",
")  c #C54C06",
"_  c #C84E06",
"`  c #C75B08",
"'  c #D45D06",
"]  c #FA5A00",
"[  c #C8630F",
"{  c #C3750C",
"}  c #C27B0E",
"|  c #C46110",
" . c #FF6500",
".. c #FC6D02",
"X. c #EF7E07",
"o. c #FE7302",
"O. c #F07F07",
"+. c #FC7B04",
"@. c #3D8366",
"#. c #468A6F",
"$. c #488C6F",
"%. c #9E8127",
"&. c #A68727",
"*. c #A5892D",
"=. c #AB8E2A",
"-. c #AF9029",
";. c #B39027",
":. c #A68A31",
">. c #AE9030",
",. c #D2870E",
"<. c #CF8C15",
"1. c #D89315",
"2. c #FF8406",
"3. c #FF840C",
"4. c #FA8D09",
"5. c #EE980C",
"6. c #FF9407",
"7. c #FC9309",
"8. c #FA9C0A",
"9. c #FCA10C",
"0. c #FDA512",
"q. c #FEAC14",
"w. c #F3AC1B",
"e. c #FFA81E",
"r. c #FEB61D",
"t. c #C69024",
"y. c #C99124",
"u. c #CFA026",
"i. c #C7A72E",
"p. c #C9A72E",
"a. c #C7A82F",
"s. c #CBA92E",
"d. c #D6A727",
"f. c #D7A827",
"g. c #D9AA27",
"h. c #D2AB2D",
"j. c #D9AA28",
"k. c #D9B42F",
"l. c #DAB530",
"z. c #E1B62D",
"x. c #FFB420",
"c. c #FEBD23",
"v. c #FFBF28",
"b. c #FFC122",
"n. c #FEC52A",
"m. c #FFCC2B",
"M. c #FFD12D",
"N. c #F7CC33",
"B. c #FFD433",
"V. c #FFDB34",
"C. c #717487",
"Z. c #72758A",
"A. c #74798D",
"S. c #777B92",
"D. c #797D93",
"F. c #7B8094",
"G. c #7D8198",
"H. c #878CA5",
"J. c #888DA6",
"K. c #888DA8",
"L. c #8C92AC",
/* pixels */
"L.L.L.L.L.L.L.L.L.L.L.L.L.L.L.L.L.L.L.L.L.L.L.L.L.L.L.L.L.L.L.L.",
"L.L.L.L.L.H.S.C.C.C.C.C.C.C.Z.D.H.L.L.L.L.L.L.L.L.L.L.L.L.L.L.L.",
"L.L.L.L.L.D.J , , , > V , , , H F.L.L.L.L.L.L.L.L.L.L.L.L.L.L.L.",
"L.L.L.H.D.R F , 1 1 < r , = + = L F.J.L.L.L.L.L.L.L.L.L.L.L.L.L.",
"L.L.L.A.J F R Z.Z.C.C.C.Z.L = o % K F.L.L.L.L.L.L.L.L.L.L.L.L.L.",
"L.L.L.C.: : Z.L.D.S.J.L.L.A.1 o X : L Z.Z.C.C.D.J.L.L.L.L.L.L.L.",
"L.L.L.C.: < A.H.J J D.L.L.Z.1 o X + : 1 , , , J D.L.L.L.L.L.L.L.",
"L.L.L.S.G F U U F G D.L.L.Z.1 o X $ * p p - & < U D.J.L.L.L.L.L.",
"L.L.L.H.D.R F F R D.H.L.L.A.1 o X * S $.#.#.A C s J D.L.L.L.L.L.",
"L.L.L.L.L.D.G G D.L.D.C.A.L = X X * S $.#.@.D Z # ; P S.H.L.L.L.",
"L.L.L.L.L.H.D.F.L.G.H > 1 : $ . X + * - * a Z Z i u < G S.L.L.L.",
"L.L.L.L.L.H.D.Z.C.T N 8 + + 8 x d 7 o + 8 l a u u u < G D.L.L.L.",
"L.L.L.L.L.F.H > > n >.&.7 6 %.h.h.%.7 7 &.*.l @ @ ; P D.H.L.L.L.",
"L.L.L.H.D.Y b x z B ;.-.M B k.V.V.l.B B -.;.k 0 x N W F.J.L.L.L.",
"L.L.L.D.H v *.s.h.=.M m =.k.N.B.B.N.l.=.M h ( <.u.:.n H S.L.L.L.",
"L.H.D.Y v B f.n.z.=.m B f.B.B.M.m.m.m.h.B g ( 1.c.j.^ v T F.H.L.",
"L.S.H b *.g.w.1.B M &.d.w.r.m.m.r.0.q.w.d.&.k j 1.w.g.*.b H S.L.",
"L.C.< z s.M.q.} 5 d s.m.0.w.c.r.0.5.8.q.m.i.z 5 } q.m.s.d < C.L.",
"L.Z.> d s.m.q.} 5 d s.m.q.8.w.0.8.8.8.0.m.i.z 5 } q.M.i.z > Z.L.",
"Z.E n B d.b.q.} 5 z s.m.q.5.4.4.4.7.8.q.n.i.z 0 } 0.b.f.B n W Z.",
"< n :.j.w.0.9.} 5 d i.m.q.4.+.....X.4.q.m.a.z 5 } 0.0.w.j.:.n 1 ",
"  z s.M.r.0.9.} 5 d t.r.0.4...] ] ..4.0.x.t.d 0 } 8.4.0.m.s.z   ",
". f s.B.m.c.0.} 9 5 | 2.7.4...] ] ..4.8.3.| 5 0 } 7.+.3.n.s.x   ",
". r t.v.m.b.0.} 5 2 ) o.7.7.O.....+.4.4.o.) 2 5 } 7.+.+.e.y.d   ",
". 9 [ 3.0.q.9.} 5 2 ) ..6.8.4.4.4.4.8.4.o.) 3 9 } 8.7.4.3.[ 9   ",
", t ! ' O.6.8.,.j e Q ' X.7.8.9.8.8.7.X.' Q e j ,.8.7.3.' ! y 1 ",
"A.Y t w ' +.6.5.,./ g w ' +.7.8.9.7.+.' w e / ,.5.6.+.' w r U A.",
"L.D.H r ! ' O.7.6.{ 4 2 ) ..2.4.4.2...) 2 0 { 6.7.O.' ! r H D.L.",
"L.K.D.U t w ' o.o.` 4 2 )  ...o.o.o. .) 2 5 ` o.o.' w r U D.K.L.",
"L.L.L.D.H t ! _ _ ~ c c ~ _ _ ) ) ) ) ~ y y ! _ ) ~ t H D.L.L.L.",
"L.L.L.H.D.Y y 4 4 c E E c 4 4 4 4 4 4 c E E y 4 4 y U F.K.L.L.L.",
"L.L.L.L.L.A.1 . . V S.S.V . . . . . . V S.S.V . . 1 A.L.L.L.L.L."
};
