/* XPM */
static char *world_tileset1740060666[] = {
/* columns rows colors chars-per-pixel */
"32 32 149 2 ",
"   c #151017",
".  c #1F1717",
"X  c #1F1817",
"o  c #171218",
"O  c #1C1618",
"+  c #15181B",
"@  c #1C1A1A",
"#  c #231716",
"$  c #221917",
"%  c #231C19",
"&  c #2D2117",
"*  c #22221F",
"=  c #2C2319",
"-  c #162623",
";  c #1A2722",
":  c #1F2A22",
">  c #1E3D2E",
",  c #262520",
"<  c #232F26",
"1  c #233127",
"2  c #26362B",
"3  c #2B362E",
"4  c #2D3D33",
"5  c #4E2713",
"6  c #4D2914",
"7  c #502613",
"8  c #532B14",
"9  c #4E3515",
"0  c #4F3917",
"q  c #43361C",
"w  c #47391C",
"e  c #4B3C1D",
"r  c #523515",
"t  c #533916",
"y  c #533F1D",
"u  c #7D3A0F",
"i  c #6D3E12",
"p  c #164232",
"a  c #194331",
"s  c #124C39",
"d  c #16553D",
"f  c #2F4035",
"g  c #254A31",
"h  c #254639",
"j  c #23543F",
"k  c #4F411E",
"l  c #54441F",
"z  c #58431C",
"x  c #6B4E1A",
"c  c #6F531B",
"v  c #7B5314",
"b  c #74541A",
"n  c #4A4925",
"m  c #534520",
"M  c #574920",
"N  c #5A4A20",
"B  c #6E5B22",
"V  c #715E23",
"C  c #776123",
"Z  c #7B6222",
"A  c #7F6924",
"S  c #1B5D44",
"D  c #166245",
"F  c #1E6348",
"G  c #2C6E53",
"H  c #3E6F59",
"J  c #287D5C",
"K  c #805514",
"L  c #A2420A",
"P  c #A8470A",
"I  c #81601C",
"U  c #A76910",
"Y  c #AC6F11",
"T  c #806722",
"R  c #C54C06",
"E  c #C84E06",
"W  c #C75B08",
"Q  c #D45D06",
"!  c #FA5A00",
"~  c #C8630F",
"^  c #C3750C",
"/  c #C27B0E",
"(  c #C46110",
")  c #FF6500",
"_  c #FC6D02",
"`  c #EF7E07",
"'  c #FE7302",
"]  c #F07F07",
"[  c #FC7B04",
"{  c #3E8064",
"}  c #3B8568",
"|  c #468A6F",
" . c #488C6F",
".. c #488D70",
"X. c #9E8127",
"o. c #A58627",
"O. c #A98927",
"+. c #A38628",
"@. c #A68A29",
"#. c #AB8E2A",
"$. c #AF902A",
"%. c #B39027",
"&. c #B1922A",
"*. c #D0860E",
"=. c #D4890E",
"-. c #CF8C15",
";. c #D69216",
":. c #DD9515",
">. c #FF8406",
",. c #FC8F07",
"<. c #FF840C",
"1. c #FA8D09",
"2. c #EE980C",
"3. c #FF9407",
"4. c #FC9309",
"5. c #FA9C0A",
"6. c #FCA10C",
"7. c #FDA512",
"8. c #FEAC14",
"9. c #F3AC1B",
"0. c #FFA81E",
"q. c #FEB61D",
"w. c #C88F23",
"e. c #C69024",
"r. c #C99124",
"t. c #CFA026",
"y. c #C7A72E",
"u. c #C9A72E",
"i. c #C7A82F",
"p. c #CBA92E",
"a. c #D6A727",
"s. c #D7A827",
"d. c #D9AA27",
"f. c #D2AB2D",
"g. c #D9AA28",
"h. c #D9B42F",
"j. c #DAB530",
"k. c #E1B62D",
"l. c #FFB420",
"z. c #FEBD23",
"x. c #FFBF28",
"c. c #FFC122",
"v. c #FEC52A",
"b. c #FFCC2B",
"n. c #FFD12D",
"m. c #F7CC33",
"M. c #FFD433",
"N. c #FFDB34",
"B. c None",
/* pixels */
"B.B.B.B.B.B.B.B.B.B.B.B.B.B.B.B.B.B.B.B.B.B.B.B.B.B.B.B.B.B.B.B.",
"B.B.B.B.B.B.B.B.B.B.B.B.B.B.B.B.B.B.B.B.B.B.B.B.B.B.B.B.B.B.B.B.",
"B.B.B.B.B.B.% % % % % % % % % % B.B.B.B.B.B.B.B.B.B.B.B.B.B.B.B.",
"B.B.B.B.B.B.% % % % % % % % % % B.B.B.B.B.B.B.B.B.B.B.B.B.B.B.B.",
"B.B.B.B.% % B.B.B.B.B.B.B.B.% % % % B.B.B.B.B.B.B.B.B.B.B.B.B.B.",
"B.B.B.B.% % B.B.B.B.B.B.B.B.% % % % B.B.B.B.B.B.B.B.B.B.B.B.B.B.",
"B.B.B.B.% % B.B.% % B.B.B.B.% % % % % % $ # $ $ B.B.B.B.B.B.B.B.",
"B.B.B.B.% % B.B.% % B.B.B.B.% % % , 3 f f 4 2 1 B.B.B.B.B.B.B.B.",
"B.B.B.B.B.B.% % B.B.B.B.B.B.% % $ 3 H .. .{ G j < # B.B.B.B.B.B.",
"B.B.B.B.B.B.% % B.B.B.B.B.B.% O O 3 H ..| } J F > , B.B.B.B.B.B.",
"B.B.B.B.B.B.B.B.B.B.O X % % @ @ X , 3 4 4 h S D d p : % B.B.B.B.",
"B.B.B.B.B.B.B.B.B.B.M e = = e N M w & & 0 n g s s p : % B.B.B.B.",
"B.B.B.B.B.B.O o o M $.+.w q X.f.f.X.q w o.@.n - - ; B.B.B.B.B.B.",
"B.B.B.B.B.B.l M l C &.&.V A j.N.N.j.A V $.&.b z z l B.B.B.B.B.B.",
"B.B.B.B.o e @.p.f.$.B B #.j.m.M.M.m.j.#.B b Y -.t.@.k   B.B.B.B.",
"B.B.B.B.k A d.v.k.$.B Z s.n.M.n.b.b.b.s.Z x Y :.z.g.T k B.B.B.B.",
"B.B.O l +.d.8.;.Z B #.a.9.q.b.v.q.7.8.9.s.O.c v ;.9.d.O.l O B.B.",
"B.B.O l i.n.8.^ 9 m p.b.7.7.z.z.7.5.5.8.b.p.m 9 / 8.b.y.l O B.B.",
"B.B.  l y.n.8./ r l y.b.8.2.9.7.5.5.5.8.b.y.m 9 / 8.n.y.m o B.B.",
"B.B.k A a.c.8./ 9 l y.b.8.5.1.1.1.1.2.8.b.y.m r ^ 8.c.a.T k B.B.",
"X m #.a.9.8.6./ 9 l y.b.8.4.[ _ _ [ 1.8.b.i.m 9 / 6.7.9.g.@.l X ",
"o M p.n.q.7.6./ r l e.q.7.1._ ! ! _ 1.7.l.e.y t / 5.1.6.b.p.M O ",
"o M p.N.b.z.8.*.t 8 ( <.3.1._ ! ! _ 1.5.<.( 8 t / 4.[ <.v.p.M O ",
"X z w.z.b.q.8.Y 0 7 R _ 1.2.[ _ _ ] 1.1.' R 5 0 / 4.[ <.0.r.l O ",
"@ r ~ <.7.8.6./ 9 7 R _ 4.5.4.1.1.4.5.1._ R 5 t / 5.4.1.<.~ r O ",
"@ 7 L Q ] 4.5.*.v i P Q ] 4.5.5.5.5.4.` Q P i v =.5.4.` Q L 8 @ ",
"B.B.7 u Q [ 4.2.=.U i u Q [ 4.6.6.4.[ Q u i U =.2.4.[ Q u 5 B.B.",
"B.B.+ 6 L Q >.4.3.^ 9 5 R _ >.1.4.<._ R 6 r ^ 3.4.>.Q L 6 + B.B.",
"B.B.B.B.6 u Q ' [ W 8 6 R ) _ ' ' _ ) R 8 6 W ' [ Q u 6 B.B.B.B.",
"B.B.B.B.+ 6 L R R P 6 8 L E E E R R R L 6 8 L E E L 6 + B.B.B.B.",
"B.B.B.B.B.B.6 8 8 8 B.B.8 8 8 8 8 8 8 8 B.B.8 8 8 7 B.B.B.B.B.B.",
"B.B.B.B.B.B.@ @ @ @ B.B.@ @ @ @ @ @ @ @ B.B.@ @ @ X B.B.B.B.B.B."
};
