/* XPM */
static char *safeimagekit_frame441740399556[] = {
/* columns rows colors chars-per-pixel */
"32 32 146 2 ",
"   c #050809",
".  c #17130F",
"X  c #0D0D11",
"o  c #110F12",
"O  c #190E10",
"+  c #0D1F14",
"@  c #151314",
"#  c #15161A",
"$  c #1A1619",
"%  c #1C1B1C",
"&  c #271D0C",
"*  c #220F11",
"=  c #390E12",
"-  c #231316",
";  c #2B1013",
":  c #251E15",
">  c #201E1E",
",  c #301013",
"<  c #0D2315",
"1  c #0B2916",
"2  c #2B2412",
"3  c #202E16",
"4  c #372911",
"5  c #1C1C21",
"6  c #201F20",
"7  c #1C2120",
"8  c #242222",
"9  c #2A2726",
"0  c #2B2927",
"q  c #24242A",
"w  c #2D2B2A",
"e  c #3F2425",
"r  c #33302F",
"t  c #2A2B33",
"y  c #2E313A",
"u  c #353432",
"i  c #393634",
"p  c #3B3836",
"a  c #3D3A3A",
"s  c #5B141A",
"d  c #6A161C",
"f  c #7B161D",
"g  c #463611",
"h  c #4F3912",
"j  c #503A11",
"k  c #403D3B",
"l  c #683B3B",
"z  c #085929",
"x  c #0B5E29",
"c  c #08672D",
"v  c #1C6129",
"b  c #1C752F",
"n  c #026E30",
"m  c #037232",
"M  c #0A7331",
"N  c #1F7930",
"B  c #5F4616",
"V  c #6E4F15",
"C  c #704D14",
"Z  c #715116",
"A  c #48762A",
"S  c #3B3C46",
"D  c #3E414D",
"F  c #3E4151",
"G  c #434541",
"H  c #494642",
"J  c #4C4945",
"K  c #41424E",
"L  c #524E4A",
"P  c #54514E",
"I  c #444351",
"U  c #454955",
"Y  c #5A5652",
"T  c #5D5A56",
"R  c #605B57",
"E  c #66625C",
"W  c #6A655E",
"Q  c #525564",
"!  c #52566A",
"~  c #535A6A",
"^  c #5A5E6E",
"/  c #5C5F70",
"(  c #6B6661",
")  c #6E6A63",
"_  c #726D66",
"`  c #76706A",
"'  c #7A746D",
"]  c #626779",
"[  c #656A7C",
"{  c #7E7971",
"}  c #81111A",
"|  c #951A23",
" . c #9B1B24",
".. c #A31B25",
"X. c #BF1E29",
"o. c #A52E34",
"O. c #C51E2A",
"+. c #CF202C",
"@. c #D3202C",
"#. c #DC212E",
"$. c #8E631A",
"%. c #A2741D",
"&. c #AC791D",
"*. c #B27C1D",
"=. c #856662",
"-. c #817C75",
";. c #857E78",
":. c #C9434A",
">. c #4E832D",
",. c #53852D",
"<. c #8F8023",
"1. c #AD9B28",
"2. c #B4A029",
"3. c #C89322",
"4. c #D29521",
"5. c #D19E24",
"6. c #DA9821",
"7. c #D0A327",
"8. c #E5A624",
"9. c #87817A",
"0. c #8B847C",
"q. c #6B6F82",
"w. c #6E7386",
"e. c #71768B",
"r. c #74788E",
"t. c #767B91",
"y. c #7D8399",
"u. c #8D8880",
"i. c #948D85",
"p. c #9C948C",
"a. c #B78E87",
"s. c #A49B93",
"d. c #ABA29A",
"f. c #858BA3",
"g. c #888EA7",
"h. c #898FA9",
"j. c #8C92AC",
"k. c #B6ADA3",
"l. c #BBB3A8",
"z. c #C4BDB1",
"x. c #E2BBB2",
"c. c #CFC5B9",
"v. c #D1C7BB",
"b. c #D7CDC1",
"n. c #DBD1C4",
"m. c #E6DBCE",
/* pixels */
"j.j.j.j.j.j.j.j.j.j.j.j.j.j.j.j.j.j.j.j.j.j.j.j.j.j.j.j.j.j.j.j.",
"j.j.j.j.y./ ~ ~ ~ ~ ~ ~ ~ ~ ~ ~ ~ e.j.j.j.j.j.j.j.j.j.j.j.j.j.j.",
"j.j.j.j.[ 5 O - - - - - - - - $ o D y.j.j.j.j.j.j.j.j.j.j.j.j.j.",
"j.j.j.j.[ $ s  . . . . .| |  .f * 5 S e.j.j.j.j.j.j.j.j.j.j.j.j.",
"j.j.j.j.[ $ s  . . ...O.#.#.#.X.d ; # [ j.j.h.j.j.j.j.j.j.j.j.j.",
"j.j.j.j.[ % O - O O ,  .@.@.@.+.X.d % ] j.g.h.h.j.j.j.j.j.j.j.j.",
"j.j.j.j.y.^ ~ U 5     , } +.#.X.f = o y I F F Q f.h.j.j.j.j.j.j.",
"j.j.j.j.j.j.j.t.q 3 r u l :.#.o.e 5 8 8 8 3 O q t.h.j.j.j.j.j.j.",
"j.j.j.j.j.j.j.r.q Y l.z.c.x.a.=.W W W W ( R r q r.j.j.j.j.j.j.j.",
"j.j.j.j.j.j.j.r.q _ m.k.0.9.T G H H J H L H 8 # U e.h.j.j.j.j.j.",
"j.j.j.j.j.j.j.r.q ( z.L @ 9 9 8 8 8 % > > > 6 $ o U g.j.j.j.j.j.",
"j.j.j.j.j.j.j.r.q L 0.u r i.d.d.d.i.;.-.-.;.;.( 8 K g.h.j.j.j.j.",
"j.j.j.j.j.j.j.r.q p W w L n.v.l.b.l.0.s.s.u.s.p.w K h.j.j.j.j.j.",
"j.j.j.j.j.j.j.r.q k W w L c.' p p.` r 0.0.w ' i.w K g.j.j.j.j.j.",
"j.j.j.j.j.j.j.r.q k _ w H k.Y 8 u.( % -.-.% ( i.w K h.j.j.j.j.j.",
"j.j.j.j.j.j.j.r.q k W w k p.L w i.( > ;.-.6 ) i.w S h.j.j.j.j.j.",
"j.j.j.j.j.j.j.r.q a ) w a s.L 0 i.( 6 ;.;.5 ( i.w I g.j.j.j.j.j.",
"j.j.j.j.j.j.j.t.q k _ w a s.;.( s.i.R p.p.E i.i.w D g.j.j.j.j.j.",
"j.j.j.j.j.j.h.q.q p E 9 i i.s.s.s.s.s.s.s.p.s.9.9 D g.j.j.j.j.j.",
"j.j.j.j.j.h.^ t o % 9 $ $ i a a i a a a a a G u $ D g.j.j.j.j.j.",
"j.j.j.j.j.g.K o < 1 1 1 3 g j h h h h h j j & o t / h.j.j.j.j.j.",
"j.j.j.j.j.g.I + z c c c A 3.6.6.4.4.4.4.6.3.B q q.h.j.j.j.j.j.j.",
"j.j.j.j.j.g.I < x M M M ,.7.*.Z V C C Z Z Z 4 q t.j.j.j.j.j.j.j.",
"j.j.j.j.j.h.I + x M M n ,.5.Z X 5 6 5 8 > % @ q r.j.j.j.j.j.j.j.",
"j.j.j.j.j.g.I + x M M n ,.5.C $ P W E E E E r q r.j.j.j.j.j.j.j.",
"j.j.j.j.j.h.I + z m n n >.5.C 8 W 9.9.-.-.-.k q r.j.j.j.j.j.j.j.",
"j.j.j.j.j.g.I + v N b b ,.5.C % T ` _ { { _ u q r.j.j.j.j.j.j.j.",
"j.j.j.j.j.g.I 2 <.2.1.1.7.8.Z @ 0 0 i 9.9.i # 8 r.j.j.j.j.j.j.j.",
"j.j.j.j.j.g.F 2 $.*.&.&.&.%.h @ t 7 @ T T @ 5 U y.j.j.j.j.j.j.j.",
"j.j.j.j.j.g.I @ % : : : 2 : . q w.Q @ % $ @ Q f.j.j.j.j.j.j.j.j.",
"j.j.j.j.j.j.w.~ ! ! ! ! ! ! Q ] f.y.^ Q Q ^ t.j.j.j.j.j.j.j.j.j.",
"j.j.j.j.j.j.j.j.j.j.j.j.j.j.j.j.j.j.j.j.j.j.j.j.j.j.j.j.j.j.j.j."
};
