/* XPM */
static char *L_31740421839[] = {
/* columns rows colors chars-per-pixel */
"32 32 151 2 ",
"   c #120B04",
".  c #1C0905",
"X  c #0F100F",
"o  c #120F12",
"O  c #13161A",
"+  c #280B0D",
"@  c #330F0E",
"#  c #261703",
"$  c #3F150E",
"%  c #2C0A10",
"&  c #201815",
"*  c #221D1A",
"=  c #37200D",
"-  c #31290A",
";  c #2B281C",
":  c #0B1B21",
">  c #101E22",
",  c #262528",
"<  c #312D2E",
"1  c #2F2E37",
"2  c #38363E",
"3  c #42091A",
"4  c #540E15",
"5  c #4A1915",
"6  c #53111E",
"7  c #621611",
"8  c #701914",
"9  c #472404",
"0  c #562300",
"q  c #5A2C05",
"w  c #683504",
"e  c #793D05",
"r  c #5A0C23",
"t  c #5D0A28",
"y  c #640E25",
"u  c #6A0F26",
"i  c #6D1125",
"p  c #7C1623",
"a  c #7F1F21",
"s  c #65432A",
"d  c #6F6922",
"f  c #7E762E",
"g  c #052F42",
"h  c #142954",
"j  c #2D344F",
"k  c #363841",
"l  c #3C3C41",
"z  c #213C55",
"x  c #7F3C50",
"c  c #0D445B",
"v  c #3B4148",
"b  c #264352",
"n  c #125A79",
"m  c #374E62",
"M  c #2A5F6D",
"N  c #215F74",
"B  c #484647",
"V  c #4B4A52",
"C  c #79515E",
"Z  c #5C5C6D",
"A  c #714464",
"S  c #5F606E",
"D  c #636676",
"F  c #7E6E74",
"G  c #863308",
"H  c #922C13",
"J  c #97211F",
"K  c #9E231C",
"L  c #A3261D",
"P  c #AC2A1C",
"I  c #B72815",
"U  c #B22C1B",
"Y  c #BA2C1A",
"T  c #B5331A",
"R  c #BB3419",
"E  c #831A22",
"W  c #891B22",
"Q  c #911F20",
"!  c #8C2E2C",
"~  c #942720",
"^  c #8F4408",
"/  c #994B06",
"(  c #8D5318",
")  c #A14C00",
"_  c #B65C0B",
"`  c #9E5D33",
"'  c #B64F2F",
"]  c #8B7824",
"[  c #AE633A",
"{  c #C94515",
"}  c #D55C16",
"|  c #DB6909",
" . c #DF721B",
".. c #E66A0B",
"X. c #E86C0B",
"o. c #F37906",
"O. c #FC7A04",
"+. c #CC6529",
"@. c #D67D33",
"#. c #9B5C53",
"$. c #A35859",
"%. c #93735C",
"&. c #938B26",
"*. c #ABA127",
"=. c #F49015",
"-. c #C19626",
";. c #FAC12E",
":. c #E9D033",
">. c #FDE637",
",. c #8E8A67",
"<. c #AE8875",
"1. c #ABAB74",
"2. c #B2A776",
"3. c #DEB751",
"4. c #FFFF42",
"5. c #324F98",
"6. c #0C6285",
"7. c #0C6389",
"8. c #0D6890",
"9. c #08709D",
"0. c #195BA4",
"q. c #1E55AE",
"w. c #1076A3",
"e. c #1177B8",
"r. c #6B6E80",
"t. c #72758A",
"y. c #7D7291",
"u. c #7A7F94",
"i. c #977886",
"p. c #96798C",
"a. c #0B83BA",
"s. c #7B8095",
"d. c #0A8CC5",
"f. c #1E99CC",
"g. c #0E8ED2",
"h. c #1184D0",
"j. c #0B98DB",
"k. c #059EE3",
"l. c #06A3EB",
"z. c #81869E",
"x. c #90899F",
"c. c #998E98",
"v. c #999399",
"b. c #9B999C",
"n. c #B2A383",
"m. c #858AA4",
"M. c #8A8DA7",
"N. c #8A8FA8",
"B. c #8C92AC",
"V. c #9293A4",
"C. c #959AA6",
/* pixels */
"B.B.B.B.B.B.B.B.B.B.B.B.B.B.B.B.B.B.B.B.B.B.B.B.B.B.B.B.B.B.B.B.",
"B.B.B.B.B.B.B.B.B.B.B.B.B.B.B.B.B.B.B.B.B.B.B.B.B.B.B.B.B.B.B.B.",
"B.B.B.B.B.B.B.B.B.B.B.B.B.B.B.B.B.B.B.B.B.B.B.B.B.B.B.B.B.B.B.B.",
"B.B.B.B.B.B.B.B.B.B.B.B.B.B.B.B.B.B.B.B.B.B.B.B.B.B.B.B.B.B.B.B.",
"B.B.B.B.B.B.B.B.B.B.B.B.B.B.B.B.B.B.B.B.B.B.B.B.B.B.B.B.B.B.B.B.",
"B.B.B.B.B.B.B.B.B.B.B.B.B.B.B.B.B.B.B.B.B.B.B.B.B.B.B.B.B.B.B.B.",
"B.B.B.B.B.B.B.B.B.B.B.B.B.B.B.B.B.B.B.B.B.B.B.B.B.B.B.B.B.B.B.B.",
"B.B.B.B.B.B.B.B.B.B.B.N.c.V.B.B.B.x.x.B.B.B.B.B.B.B.B.B.B.B.B.B.",
"B.B.B.B.B.B.B.B.B.B.B.c.@.<.B.B.B.$.$.B.B.B.B.B.B.B.B.B.B.B.B.B.",
"B.B.B.B.B.B.B.B.B.B.B.V.<.v.y.A m.i.i.B.B.B.B.B.B.B.B.B.B.B.B.B.",
"B.B.B.B.B.B.B.B.B.B.B.B.B.p.#.` 2.C.B.B.B.B.B.B.B.B.B.B.B.B.B.B.",
"B.B.B.B.B.B.B.B.B.B.V.C.V.$.+.;.>.1.M.B.B.B.B.B.B.B.B.B.B.B.B.B.",
"B.B.B.B.B.B.B.B.B.B.2.3.C.x.<.=.>.d m N.B.B.B.B.B.B.B.B.B.B.B.B.",
"B.B.B.B.B.B.B.B.B.B.b.n.C.B.F w ] 9 2 B.B.B.B.B.B.B.B.B.B.B.B.B.",
"B.B.B.B.B.B.B.B.B.B.B.B.N.t.m c M z j D N.B.B.B.B.B.B.B.B.B.B.B.",
"B.B.B.B.B.B.B.B.B.B.B.B.z.1 g e.a.0.h o r.B.B.B.B.B.B.B.B.B.B.B.",
"B.B.B.B.B.B.B.B.B.B.B.s.<   X > > O o   * D B.B.B.B.B.B.B.B.B.B.",
"B.B.B.B.B.B.B.B.B.B.t.v n 7.7.6.7.7.8.8.6.b S B.B.B.B.B.B.B.B.B.",
"B.B.B.B.B.B.B.B.B.t.2 : d.l.k.j.h.j.d.9.j.6.b D m.B.B.B.B.B.B.B.",
"B.B.B.B.B.B.B.B.B.l . ; w.f.f.g.q.e.n , e.f.N * s.B.B.B.B.B.B.B.",
"B.B.B.B.B.B.B.B.B.k q _ ; ( ,.h.q.h 5 ! 5.%.( * s.B.B.B.B.B.B.B.",
"B.B.B.B.B.B.B.B.B.k w | # G ' C x @ 0 } [  .) & s.B.B.B.B.B.B.B.",
"B.B.B.B.B.B.B.B.B.k w | e H Y I L 7 G o.O.=.) ; s.B.B.B.B.B.B.B.",
"B.B.B.B.B.B.B.B.B.2 q | ..{ Y P p Q { X.X.X.G * s.B.B.B.B.B.B.B.",
"B.B.B.B.B.B.B.B.B.2 @ a T R U U P U R R R ~ 4 * s.B.B.B.B.B.B.B.",
"B.B.B.B.B.B.B.B.B.l % i P T K E P J p W U W 3 * s.B.B.B.B.B.B.B.",
"B.B.B.B.B.B.B.B.B.2 % u Q P L W P E t y 8 4 % * s.B.B.B.B.B.B.B.",
"B.B.B.B.B.B.B.B.B.2 % 6 y Q P P P p t 6 = - # * s.B.B.B.B.B.B.B.",
"B.B.B.B.B.B.B.B.N.v   + r i i i i i 3 = -.:.&.* s.B.B.B.B.B.B.B.",
"B.B.B.B.B.B.B.B.N.2 9 / $ % % % % % . - :.4.*.O u.B.B.B.B.B.B.B.",
"B.B.B.B.B.B.B.B.N.Z s ^ # , l v B l l B &.*.f V s.B.B.B.B.B.B.B.",
"B.B.B.B.B.B.B.B.B.B.S     S B.B.N.B.B.s.*   l B.B.B.B.B.B.B.B.B."
};
