/* XPM */
static char *L_41740421855[] = {
/* columns rows colors chars-per-pixel */
"32 32 141 2 ",
"   c #120A03",
".  c #160D0A",
"X  c #0C181C",
"o  c #1B1111",
"O  c #2E0B0F",
"+  c #261404",
"@  c #251E09",
"#  c #301904",
"$  c #2B0611",
"%  c #2C0A11",
"&  c #3B0916",
"*  c #201A16",
"=  c #231D1A",
"-  c #37200D",
";  c #32290A",
":  c #312A1D",
">  c #121122",
",  c #2A2828",
"<  c #302D2E",
"1  c #283937",
"2  c #34343B",
"3  c #3A393C",
"4  c #4C180B",
"5  c #420B19",
"6  c #480918",
"7  c #53101E",
"8  c #761914",
"9  c #482405",
"0  c #5E330E",
"q  c #553210",
"w  c #692703",
"e  c #642D00",
"r  c #623105",
"t  c #6B3405",
"y  c #7A3901",
"u  c #632313",
"i  c #7F2312",
"p  c #5E0C25",
"a  c #660E25",
"s  c #6D1125",
"d  c #741127",
"f  c #781524",
"g  c #443B39",
"h  c #7E762E",
"j  c #0B2547",
"k  c #1A3F4B",
"l  c #003956",
"z  c #363841",
"x  c #333F63",
"c  c #6C3049",
"v  c #21434F",
"b  c #48434E",
"n  c #5B4841",
"m  c #484751",
"M  c #4D515F",
"N  c #5D5F6C",
"B  c #725B79",
"V  c #5E606E",
"C  c #881D1D",
"Z  c #82270D",
"A  c #85380A",
"S  c #9A231F",
"D  c #9E361A",
"F  c #A3261E",
"G  c #AA271D",
"H  c #AA291C",
"J  c #B42C1B",
"K  c #B92E1C",
"L  c #B83E17",
"P  c #BB3519",
"I  c #851A22",
"U  c #972120",
"Y  c #C23918",
"T  c #8C470A",
"R  c #954907",
"E  c #9C4D06",
"W  c #BF4313",
"Q  c #845825",
"!  c #C05C03",
"~  c #CA4715",
"^  c #CE4814",
"/  c #D65511",
"(  c #E35F0F",
")  c #D56807",
"_  c #D16608",
"`  c #D4690A",
"'  c #DD7A1B",
"]  c #E8660D",
"[  c #E96D0A",
"{  c #F06A0D",
"}  c #E87107",
"|  c #ED7308",
" . c #FB7A06",
".. c #F07508",
"X. c #E17B1C",
"o. c #CF6321",
"O. c #CF7620",
"+. c #985C42",
"@. c #AA4841",
"#. c #956356",
"$. c #997B6B",
"%. c #98707B",
"&. c #70857A",
"*. c #908721",
"=. c #ABA127",
"-. c #C38E2D",
";. c #D38A2C",
":. c #C19626",
">. c #FFB421",
",. c #E2A833",
"<. c #EAD033",
"1. c #FFEF34",
"2. c #B99F5E",
"3. c #B69B78",
"4. c #C5814E",
"5. c #C58351",
"6. c #DAB655",
"7. c #DFC949",
"8. c #DCD74B",
"9. c #3878AB",
"0. c #70768B",
"q. c #7A7E94",
"w. c #837F9A",
"e. c #2A82A2",
"r. c #2995BB",
"t. c #6B8980",
"y. c #7B8096",
"u. c #7E8399",
"i. c #128EC5",
"p. c #2BA1C1",
"a. c #85849D",
"s. c #90869A",
"d. c #968F9D",
"f. c #A68B83",
"g. c #B1A383",
"h. c #A4A293",
"j. c #848AA3",
"k. c #898BA5",
"l. c #8B8FA9",
"z. c #8C92AC",
"x. c #9295A6",
/* pixels */
"z.z.z.z.z.z.z.z.z.z.z.z.z.z.z.z.z.z.z.z.z.z.z.z.z.z.z.z.z.z.z.z.",
"z.z.z.z.z.z.z.z.z.z.z.z.z.z.z.z.z.z.z.z.z.z.z.z.z.z.z.z.z.z.z.z.",
"z.z.z.z.z.z.z.z.z.z.z.z.z.z.z.z.z.z.z.z.z.z.z.z.z.z.z.z.z.z.z.z.",
"z.z.z.z.z.z.z.z.z.z.z.z.z.z.z.z.z.z.z.z.z.z.z.z.z.z.z.z.z.z.z.z.",
"z.z.z.z.z.z.z.z.z.z.z.z.z.z.z.z.z.z.z.z.z.z.z.z.z.z.z.z.z.z.z.z.",
"z.z.z.z.z.z.z.z.z.z.z.z.z.z.z.z.z.z.z.z.z.z.z.z.z.z.z.z.z.z.z.z.",
"z.z.z.z.z.z.z.z.z.z.z.z.z.z.z.z.z.z.z.z.z.z.z.z.z.z.z.z.z.z.z.z.",
"z.z.z.z.z.z.z.z.z.z.z.z.z.z.z.z.z.z.z.z.z.z.z.z.z.z.z.z.z.z.z.z.",
"z.z.z.z.z.z.z.z.z.z.z.z.z.z.z.z.z.z.z.z.z.z.z.z.z.z.z.z.z.z.z.z.",
"z.z.z.z.z.z.z.z.z.z.z.z.z.z.z.d.4.f.z.z.z.z.z.z.z.z.z.z.z.z.z.z.",
"z.z.z.z.z.z.z.z.z.z.z.z.l.l.z.d.5.f.h.g.x.z.z.z.z.z.z.z.z.z.z.z.",
"z.z.z.z.z.z.z.z.z.z.z.z.j.k.l.l.s.z.g.6.x.z.z.z.z.z.z.z.z.z.z.z.",
"z.z.z.z.z.z.z.z.z.z.z.a.c w.z.s.@.%.x.x.z.z.z.z.z.z.z.z.z.z.z.z.",
"z.z.z.z.z.z.z.z.z.z.z.k.B w.h.6.,.+.B x.z.z.z.z.z.z.z.z.z.z.z.z.",
"z.z.z.z.z.z.z.z.z.z.z.z.d.l.3.>.1.-.#.z.z.z.z.z.z.z.z.z.z.z.z.z.",
"z.z.z.z.z.z.z.z.z.z.z.z.l.j.$.;.8.7.2.w.z.z.z.z.z.z.z.z.z.z.z.z.",
"z.z.z.z.z.z.z.z.z.z.z.z.l.b v r.p.9.x < q.z.z.z.z.z.z.z.z.z.z.z.",
"z.z.z.z.z.z.z.z.z.z.z.j.m o X l l j >   2 0.z.z.z.z.z.z.z.z.z.z.",
"z.z.z.z.z.z.z.z.z.z.u.N 0 1 1 e e 1 l k q n 0.z.z.z.z.z.z.z.z.z.",
"z.z.z.z.z.z.z.z.z.j.M # _ t.t...[ &.i.e.O.y g a.l.z.z.z.z.z.z.z.",
"z.z.z.z.z.z.z.z.l.m . # ` X.' [ Y o.Q : _ } T < u.z.z.z.z.z.z.z.",
"z.z.z.z.z.z.z.z.z.2 9 R t !  .[ P A w Z L { E * y.z.z.z.z.z.z.z.",
"z.z.z.z.z.z.z.z.z.z t ` + A ( / P 6 4 ^ ^ ] E = y.z.z.z.z.z.z.z.",
"z.z.z.z.z.z.z.z.z.z r ) 9 i K K G 4 t .... .E * y.z.z.z.z.z.z.z.",
"z.z.z.z.z.z.z.z.z.z 0 } _ W J G f C W | | ..E = y.z.z.z.z.z.z.z.",
"z.z.z.z.z.z.z.z.z.z 4 D ~ P K J S H Y ^ ^ L u = y.z.z.z.z.z.z.z.",
"z.z.z.z.z.z.z.z.z.3 % a H K H U J F U U 8 6 $ = y.z.z.z.z.z.z.z.",
"z.z.z.z.z.z.z.z.z.3 O s F J S 8 H I a 7 - ; @ = y.z.l.z.z.z.z.z.",
"z.z.z.z.z.z.z.z.z.3 O a s U J H J I & - :.<.*.= y.z.z.z.z.z.z.z.",
"z.z.z.z.z.z.z.z.z.3 . & p f I I I d & ; <.1.=.= q.z.z.z.z.z.z.z.",
"z.z.z.z.z.z.z.z.z.V , . & 5 5 5 5 6 $ @ *.=.h m u.z.z.z.z.z.z.z.",
"z.z.z.z.z.z.z.z.z.z.V                     + v z.z.z.z.z.z.z.z.z."
};
