/* XPM */
static char *L_51740421868[] = {
/* columns rows colors chars-per-pixel */
"32 32 198 2 ",
"   c #120305",
".  c #120A03",
"X  c #120B03",
"o  c #120B05",
"O  c #160B05",
"+  c #130D07",
"@  c #190B04",
"#  c #1F0C04",
"$  c #1E1003",
"%  c #1C1506",
"&  c #14100A",
"*  c #141415",
"=  c #1F1814",
"-  c #20080B",
";  c #2E0B0F",
":  c #330F0E",
">  c #380E09",
",  c #251303",
"<  c #291007",
"1  c #2E1704",
"2  c #331A04",
"3  c #2F0612",
"4  c #2B0910",
"5  c #2C0A10",
"6  c #370C13",
"7  c #3E091A",
"8  c #221712",
"9  c #211A18",
"0  c #231C1A",
"q  c #32240A",
"w  c #1E1F24",
"e  c #302C2D",
"r  c #2C2E37",
"t  c #32323B",
"y  c #36363A",
"u  c #411A07",
"i  c #460917",
"p  c #430B19",
"a  c #4D1416",
"s  c #491518",
"d  c #6A081D",
"f  c #6C1812",
"g  c #4A2405",
"h  c #592B06",
"j  c #612D06",
"k  c #682D08",
"l  c #613104",
"z  c #603105",
"x  c #6F3106",
"c  c #6B3505",
"v  c #6F3805",
"b  c #743A04",
"n  c #712110",
"m  c #5E0825",
"M  c #5C0C24",
"N  c #630D25",
"B  c #640F25",
"V  c #6E0E26",
"C  c #6C1124",
"Z  c #6C1125",
"A  c #7A1425",
"S  c #7F1F20",
"D  c #5E3E25",
"F  c #443B39",
"G  c #5F4413",
"H  c #5A5214",
"J  c #685B16",
"K  c #625D35",
"L  c #656039",
"P  c #373840",
"I  c #363841",
"U  c #3D3B41",
"Y  c #3D3F43",
"T  c #3B3B44",
"R  c #3E3F44",
"E  c #594A43",
"W  c #4B4A53",
"Q  c #74455F",
"!  c #585B6B",
"~  c #595D6C",
"^  c #5F606E",
"/  c #646676",
"(  c #676776",
")  c #7E7A75",
"_  c #921916",
"`  c #921B1A",
"'  c #961D1D",
"]  c #883503",
"[  c #803B0A",
"{  c #A92214",
"}  c #A1251F",
"|  c #A32B19",
" . c #A82C1A",
".. c #AC2D18",
"X. c #AC291C",
"o. c #B22C1B",
"O. c #B52C1B",
"+. c #A43116",
"@. c #AF3E12",
"#. c #BC3010",
"$. c #BA3517",
"%. c #B4331A",
"&. c #B7301C",
"*. c #BC3518",
"=. c #821724",
"-. c #942620",
";. c #8E4606",
":. c #8F4309",
">. c #8D470B",
",. c #994B06",
"<. c #984C06",
"1. c #9B4D06",
"2. c #9F4E06",
"3. c #82491B",
"4. c #A04F06",
"5. c #A25006",
"6. c #A55106",
"7. c #A75206",
"8. c #BD6D23",
"9. c #BD6826",
"0. c #CD5E0A",
"q. c #DD5D0E",
"w. c #C54116",
"e. c #DE5C11",
"r. c #E45D10",
"t. c #C36106",
"y. c #C56306",
"u. c #D46807",
"i. c #DB6C07",
"p. c #DD670C",
"a. c #E86602",
"s. c #E6630F",
"d. c #E76B0B",
"f. c #E96D0A",
"g. c #EF6E0B",
"h. c #EC7109",
"j. c #EE7309",
"k. c #F37707",
"l. c #F47B07",
"z. c #F87A04",
"x. c #F67A08",
"c. c #FA7A08",
"v. c #FC7B08",
"b. c #873241",
"n. c #AB4740",
"m. c #A14F55",
"M. c #8C7753",
"N. c #9B707A",
"B. c #A36874",
"V. c #AE6F76",
"C. c #C97770",
"Z. c #A49926",
"A. c #FE9814",
"S. c #D78D36",
"D. c #DBB12D",
"F. c #ECB22E",
"G. c #E4B135",
"H. c #DFCD32",
"J. c #FFC92A",
"K. c #FFF13B",
"L. c #FFFE3E",
"P. c #B5866D",
"I. c #D5816D",
"U. c #EE9F70",
"Y. c #CBB066",
"T. c #CDB065",
"R. c #F0A164",
"E. c #DAD05E",
"W. c #696E81",
"Q. c #707589",
"!. c #70758A",
"~. c #7A7E94",
"^. c #816F89",
"/. c #7B8094",
"(. c #7B8095",
"). c #7D8197",
"_. c #81869E",
"`. c #91869A",
"'. c #90869C",
"]. c #A9A08C",
"[. c #A1A79A",
"{. c #8885A0",
"}. c #868BA4",
"|. c #8E8DA4",
" X c #898FA8",
".X c #8A91AB",
"XX c #8C92AC",
"oX c #8D93AC",
"OX c #8D92AD",
"+X c #8C93AD",
"@X c #9797A1",
"#X c #9499A4",
"$X c #C59A93",
"%X c #E3B1AB",
"&X c #E5B4B2",
"*X c #F8CCB0",
"=X c #EDF0F1",
"-X c white",
/* pixels */
"XXXXXXXXXXXXXXXXXXXXXXXXXXXXXXXXXXXXXXXXXXXXXXoXXXXXXXXXXXOXOXXX",
"XXXXXXXXXXXXXXXXXXXXXXXXXXXXXXXXXXXXXXXXXXXXXXXXXXXXoXXXOXoXXXXX",
"XXXXXXXXXXXXXXXXXXXXXXXXXXXXXXXXXXXXXXoXXXXXXXXXXXXXXXXXOXXXXXOX",
"XXXXXXoXXXXXXXXXXXXXXXXXXXXXXXXXXXXXXXXXXXXXXXXXXXXXOXXXXXXXXXoX",
"XXXXXXXXXXoXXXXXXXXXXXXXXXXXXXXXXXXXXXXXXXXXXXXXXXXXXXXXXXOXXXOX",
"XXXXoXoXXXXXXXXXXXXXXXXXXXXXXXXXXXXXXXXXoXXXXXXXXXXXXXXXXXXXoXoX",
"XXXXXXXXXXXXXXXXXXXXXXXXXXXXXXXXXXXXXXXXXXXXXXXXXXXXXXXX.XoXoXoX",
"XXXXXXXXXXXXXXXXXXXXXXXXXXXXXXXXXXXXoXXXXXXXXXXXXXXXXXXXXXoXoXoX",
"XXXXXXXXoX+X+X.X+XXXXXXX XXXXXXXXXXXXXXXXXXXXXXXXXXXXXXXXXXXXXXX",
"XXXXXXXXoXoX+X+X+X.XXX{.Q ^.XXXXXXXXXXXXXXXXXXXXXXXXXXXXXXXXXXXX",
"XXXXXXXXXXoXXXXXXXXXXX{.Q ^.XXXXXX].].XXXXXXXXXXXXXXXXXXXXXXXXXX",
"XXXXXXoXXXXXXXXXXXXXXXXXXXXX|.'. XY.T.XXXXXXXXXXXXXXXXXXXXXXXXXX",
"XXoXXXXXXXXXXXXXXXXXXXXXXXXXN.n.`.#X@XXX X+X+X.XXXXXoXXXXXXXoXoX",
"XXXXoXXXoXXXXXXXXXXX.X+XXXP.S.G.E.[.XXXX+X+X+X+XXXXXoXXXXXXXXXXX",
"XXXXXXXXXXoX+X.XXXXXXX X/ 9.A.J.F.M.!.XXoX+XXXXXXXXXXXXXXXoXXXXX",
"XXXXXXXXXXXX+X+XXXXX.XW.* [ i.y.+.> r ~.oXXXXXXXXXXXXXXXXXXXXXXX",
"XXXXXXXXXXXXXXXXXXXX( 9 o , 2 1 < @ + e ).XXXXXXXXXXXXXXXXXXXXXX",
"XXXXXXXXXXXXXXXX+X~ D 1.4.,.<.,.5.5.6.>.F Q.XXXXXXXXXXoXXXXXXXXX",
"XXXXXXXXXXXXXX}./ w z v.z.c.g.s.c.t.t.f.b E Q.+XXXXXXXXXXXXXXXXX",
"XXXXXXXXXXXXXX).0 # c u.h.k.e.$.0.h k f.j.h P +XXXXXXXXXXXXXXXXX",
"XXXXXXXXXXXXXX~.0 ;.<.g u.l.e.| u n ..w.f.z P XXXXXXXXXXXXXXXXXX",
"XXXXXXXXXXXXXX~.0 7.1., @.U.*X$X8 ] r.q.h.z P .XXXXXoXXXXXXXXXXX",
"XXXXXXXXXXXXXX~.0 4.y.x  .&X-X=X) 8.z.x.k.z P .XXXXXXXXXXXXXXXXX",
"XXXXoXXXoXoXXX).0 :.d.p.*.%X-X-X-XR.a.d.p.h P .XXXXXXXXXXXXXXXXX",
"XXXXXXXXXXXXXX).0 a -.$.&.%X-X-X-XI.#.%.=.: T  XXXXXXXXXXXXXXXXX",
"XXXXXXXXXXXXoX).0 7 =.O.O.m.V.C.B.b.' X.Z 4 U XXXXXXXXXXXXXXXXXX",
"XXXXXXXXXXXXXX~.0 p A -.o.` _ { d m C f i - U  XXXXXoXXXXXXXXXXX",
"XXXXXXXXXXXXXX).9 7 N V } X.X.} Z M s q q % T XXXXXXXXXXXXXXXXXX",
"XXXXXXXXXXXXXX).0 O 6 N C C C Z B 3 G D.H.H P  XXXXXXXXXXXoXoXXX",
"XXXXXXXXXXXXoX~.= v b 6 4 4 ; ; ;   J K.L.J t OXOXXXXXXXXXXXXXXX",
"XXXXXXXXoXoX+X_.W 3.b & y R Y Y Y T L Z.Z.K ~ XXXXXXXXXXXXXXXXXX",
"XXXXXXXX.X.X+X+X.XU X 0 ~.XX.XoX.XoX^ X @ ^ XXXXXXXXXXXXXXXXXXXX"
};
