/* XPM */
static char *L_81740421908[] = {
/* columns rows colors chars-per-pixel */
"32 32 54 1 ",
"  c #8C92AC",
". c #8C93AC",
"X c #8D93AC",
"o c #8C92AD",
"O c #8D92AD",
"+ c #8E94AD",
"@ c #8E94AE",
"# c #9298B0",
"$ c #9298B1",
"% c #9398B1",
"& c #969BB3",
"* c #979DB4",
"= c #9A9EB6",
"- c #9A9FB6",
"; c #9AA0B7",
": c #9CA0B6",
"> c #9DA1B8",
", c #A3A6BC",
"< c #A3A8BD",
"1 c #A4A8BD",
"2 c #A7ABBF",
"3 c #B0B5C6",
"4 c #B5B8C8",
"5 c #B6BBCA",
"6 c #B7BBCA",
"7 c #B6BACB",
"8 c #B7BBCB",
"9 c #B8BACC",
"0 c #B9BBCD",
"q c #BDC0CF",
"w c #C0C4D2",
"e c #C9CDD8",
"r c #CBCDD9",
"t c #D2D4DE",
"y c #D3D5DF",
"u c #D5D6E1",
"i c #D4D7E1",
"p c #D7D9E3",
"a c #D9DBE3",
"s c #DADCE5",
"d c #E1E2E9",
"f c #E2E4EA",
"g c #EFF0F3",
"h c #EFF1F3",
"j c #F0F0F4",
"k c #F1F0F4",
"l c #F2F2F6",
"z c #F3F3F6",
"x c #F4F4F7",
"c c #F6F6F8",
"v c #F9F9FA",
"b c #FAFBFB",
"n c #FCFCFD",
"m c white",
/* pixels */
"         +        ++            ",
"    +             ..            ",
"                  ..            ",
"                   .            ",
"                  o oo          ",
"  +                 oo..        ",
"                o   o...        ",
"                    o...        ",
"                                ",
"         +                      ",
"            +                   ",
"       +:>&  &:=;$ +=>&         ",
"       =fcr  rllh3 =dcr @       ",
"   +  <smmp  pmmm8 >lmxr&       ",
"     1ummmu  pmmm8 >lmmvw=      ",
"     ummmvr  ummm8 ;dnmmm9     @",
"     ummmw#  ymmm8  ;smmm8      ",
"     1988=   ,483&  +1988=      ",
"           #3833343             ",
"     =:=-=#=gmmmmmt =:;;=$    + ",
"    .rljxle=gmmmmmy=fzglj3      ",
"    .pmmmmu-gmdqlmt>lmmmm8      ",
"    .pmmmmy>gmd9xmt>lmmmm8      ",
"     rllglr>lmmmmmt=dlggj3     +",
"     &>;;:$:gmmmmmp+;:;==$      ",
"+          $3843381     ..      ",
"   + 1988=   ,833*   1888=      ",
"     ummmw$  ymmm8++;smmm8      ",
"oo  +pmmmvr .ummm8 =dmmmm8   ...",
".o   1ymmmp .ummm8 =lmmxw=  +. .",
"... .o,avmu .ummm8 ;jmlr@       ",
".....+ ;kmt .immm8+:lmu         "
};
