/* XPM */
static char *L_91740421921[] = {
/* columns rows colors chars-per-pixel */
"32 32 55 1 ",
"  c #8C92AC",
". c #8C93AC",
"X c #8C92AD",
"o c #8D92AD",
"O c #8E94AD",
"+ c #8E94AE",
"@ c #9298B0",
"# c #9398B0",
"$ c #9298B1",
"% c #969BB3",
"& c #9A9EB6",
"* c #9A9FB7",
"= c #9AA1B7",
"- c #9CA1B6",
"; c #9CA1B8",
": c #9DA2B8",
"> c #A2A7BC",
", c #A3A8BD",
"< c #A7ABBF",
"1 c #A9ADC1",
"2 c #B0B4C6",
"3 c #B1B4C6",
"4 c #B1B5C7",
"5 c #B6BACA",
"6 c #B7BACA",
"7 c #B7BACB",
"8 c #B6BBCB",
"9 c #B7BBCB",
"0 c #B9BCCC",
"q c #B8BDCD",
"w c #C0C4D2",
"e c #C2C7D4",
"r c #CBCDD9",
"t c #CACFDA",
"y c #D4D6E0",
"u c #D5D7E0",
"i c #D7D8E2",
"p c #D8DAE3",
"a c #D9DBE4",
"s c #DADCE4",
"d c #DFE1E8",
"f c #E2E4EA",
"g c #E2E4EB",
"h c #E8E9EE",
"j c #EEEFF3",
"k c #EFF0F3",
"l c #EFF0F4",
"z c #F0F0F4",
"x c #F3F3F6",
"c c #F3F4F7",
"v c #F6F6F8",
"b c #F9F8FA",
"n c #FAFAFB",
"m c #FDFDFD",
"M c #FFFEFE",
/* pixels */
"                        X       ",
"                      +         ",
"                   O      X     ",
"          O               X     ",
"                  O             ",
"                                ",
"                                ",
"      O       O       O         ",
"         XXX                    ",
"        OX X                    ",
" O   O                   X+     ",
"       X==%  %:=:+  ::% +X   +  ",
"  X OXX=fvt  txlc4 &gvr   +     ",
"    .X,aMMa  pMMM7 :vMcr%       ",
"    .,yMMhq  pMMM7 %rcMbw&      ",
"  O .yMMj4   rcxl4X  tbMm7      ",
"O    yMc1@   %--=$X O$wMM8      ",
"X O  <84@  O    XX   O*88=      ",
"..         +4qqqq8<             ",
" X   %-*:+ -kbjkkMu  %-=*@      ",
"    Xtxxj4 -kw---dp  txjj4      ",
"    XiMMM8 :k8   pa  pMMMq      ",
"     iMMM8 :j8   pa  pMMM8      ",
"     txxj4 -xw*-:dp  tcxk4      ",
"     %=*=$O=knjjxMp  *-&=+      ",
"        O X@4qqqq7<      O      ",
"     <q4OOO  ..       *86=      ",
"     yMx1O  .%=*=@   +wMM8   O  ",
"     yMMx2   txjj4   tnMM7      ",
"     ,yMMh8  yMMM8 %tcMnw&      ",
"      ,anMp  pMMM8 =xMct$      O",
"       :xMu  uMMM8 -jMyO        "
};
