/* XPM */
static char *player31740061027[] = {
/* columns rows colors chars-per-pixel */
"32 32 144 2 ",
"   c #030305",
".  c #070608",
"X  c #0B070B",
"o  c #050C0D",
"O  c #0C0C0D",
"+  c #120D0F",
"@  c #1C0C0F",
"#  c #0F100F",
"$  c #14110F",
"%  c #1F190F",
"&  c #1A150F",
"*  c #0C0E15",
"=  c #100F10",
"-  c #1A0E10",
";  c #0E1711",
":  c #0D1F14",
">  c #131313",
",  c #181717",
"<  c #171817",
"1  c #1D1B1C",
"2  c #240F11",
"3  c #231C10",
"4  c #201E1D",
"5  c #3D1215",
"6  c #331114",
"7  c #092115",
"8  c #0C3A1E",
"9  c #23201C",
"0  c #372911",
"q  c #382A11",
"w  c #231F20",
"e  c #222120",
"r  c #292726",
"t  c #272826",
"y  c #2A2827",
"u  c #2D2B2A",
"i  c #312C2C",
"p  c #363434",
"a  c #373739",
"s  c #3E3C39",
"d  c #3A3735",
"f  c #471317",
"g  c #4A1317",
"h  c #511217",
"j  c #5E151A",
"k  c #561419",
"l  c #62141A",
"z  c #69161C",
"x  c #77161E",
"c  c #412F0F",
"v  c #4C3812",
"b  c #413D3B",
"n  c #4F3F3D",
"m  c #09421F",
"M  c #314D1E",
"N  c #064221",
"B  c #0A4621",
"V  c #174520",
"C  c #0B5E2A",
"Z  c #03642D",
"A  c #1E752F",
"S  c #026E31",
"D  c #037031",
"F  c #0A7331",
"G  c #5A4215",
"H  c #654816",
"J  c #6F4E14",
"K  c #704E14",
"L  c #665C1D",
"P  c #7B5D17",
"I  c #44403D",
"U  c #464340",
"Y  c #494642",
"T  c #4D4A47",
"R  c #4F4B48",
"E  c #514D4A",
"W  c #57534F",
"Q  c #595551",
"!  c #5D5954",
"~  c #625D58",
"^  c #65605C",
"/  c #68635E",
"(  c #6B6661",
")  c #6E6A63",
"_  c #726C65",
"`  c #736E69",
"'  c #79746C",
"]  c #76716A",
"[  c #7E7974",
"{  c #80181F",
"}  c #931A23",
"|  c #9E1B24",
" . c #A01B24",
".. c #B71C27",
"X. c #BC1E29",
"o. c #BC1C27",
"O. c #C21E29",
"+. c #CD1F2B",
"@. c #D51F2B",
"#. c #DB212D",
"$. c #E1212E",
"%. c #8E6417",
"&. c #8E631A",
"*. c #916717",
"=. c #AD791D",
"-. c #A2741D",
";. c #9A4648",
":. c #92726E",
">. c #827C75",
",. c #827D78",
"<. c #CE5F61",
"1. c #D77777",
"2. c #4E832D",
"3. c #51832D",
"4. c #61872C",
"5. c #BF881F",
"6. c #AE9B28",
"7. c #B09F29",
"8. c #C48B1F",
"9. c #C68D20",
"0. c #D29E25",
"q. c #DD9A22",
"w. c #C7A328",
"e. c #D5A225",
"r. c #E5A624",
"t. c #87817A",
"y. c #8B847E",
"u. c #8F8881",
"i. c #948D85",
"p. c #9B938B",
"a. c #9F9790",
"s. c #A39B93",
"d. c #A8A097",
"f. c #ADA39B",
"g. c #B2AA9F",
"h. c #BDB4AA",
"j. c #C1B7AD",
"k. c #C3BAAF",
"l. c #C7BDB2",
"z. c #D2C6BA",
"x. c #D4CABE",
"c. c #D8CEC1",
"v. c #DBD1C4",
"b. c None",
/* pixels */
"b.b.b.b.b.b.b.b.b.b.b.b.b.b.b.b.b.b.b.b.b.b.b.b.b.b.b.b.b.b.b.b.",
"b.b.b.b.b.b.b.b.b.b.b.b.b.b.b.b.b.b.b.b.b.b.b.b.b.b.b.b.b.b.b.b.",
"b.b.b.b.b.O - - O # b.b.b.b.b.b.b.b.b.b.b.b.b.b.b.b.b.b.b.b.b.b.",
"b.b.b.b.b.+ l { 2 o o o o o o o O b.b.b.b.b.b.b.b.b.b.b.b.b.b.b.",
"b.b.b.b.b.+ j } j g g g f g g 5 > O b.b.b.b.b.b.b.b.b.b.b.b.b.b.",
"b.b.b.b.b.+ + 5 | X.X.X.O.O.O. .6 O O b.b.b.b.b.b.b.b.b.b.b.b.b.",
"b.b.b.b.b.b.o - h z x O.$.#.#.+.} g + b.b.b.b.b.b.b.b.b.b.b.b.b.",
"b.b.b.b.b.b.b.O # . @ x ..+.@.+...l + b.b.b.b.b.b.b.b.b.b.b.b.b.",
"b.b.b.b.b.b.b.b.O O O @ l O.#...g @ O O O O O + b.b.b.b.b.b.b.b.",
"b.b.b.b.b.b.b.b.O p ( ) :.1.<.;.I s I s b s 9 O b.b.b.b.b.b.b.b.",
"b.b.b.b.b.b.b.b.O / v.v.z.z.p._ _ _ ) _ _ ( p O b.b.b.b.b.b.b.b.",
"b.b.b.b.b.b.b.b.o _ v.y.T T p y y y y u u y , X O b.b.b.b.b.b.b.",
"b.b.b.b.b.b.b.b.O ~ g.I > I E E R I b b d b b p , O b.b.b.b.b.b.",
"b.b.b.b.b.b.b.b.O I ' u I k.x.z.x.j.a.a.s.s.s.t.r   b.b.b.b.b.b.",
"b.b.b.b.b.b.b.b.O s / y W v.f.t.j.a.~ a.p./ i.p.u   b.b.b.b.b.b.",
"b.b.b.b.b.b.b.b.O s _ y T l./ r i.( 4 >.>.4 / i.u   b.b.b.b.b.b.",
"b.b.b.b.b.b.b.b.O b ( y I s.W r i.( 4 >.,.9 ( i.i   b.b.b.b.b.b.",
"b.b.b.b.b.b.b.b.O b _ u b p.R r i./ 4 >.,., ( i.u   b.b.b.b.b.b.",
"b.b.b.b.b.b.b.b.X s _ u b s.~ p p.` i ,.,.i ` i.u   b.b.b.b.b.b.",
"b.b.b.b.b.b.b.b.O b _ i b s.s.u.f.s.y.f.f.u.s.p.i   b.b.b.b.b.b.",
"b.b.b.b.b.b.b.b.O i E 9 u ` ,.,.>.>.>.>.>.>.t.( e . b.b.b.b.b.b.",
"b.b.b.b.b.b.+ O O > < > > 4 4 4 4 4 4 4 4 4 4 , > O b.b.b.b.b.b.",
"b.b.b.b.b.b.O ; 8 B m N M P &.&.*.%.%.%.*.%.c X X b.b.b.b.b.b.b.",
"b.b.b.b.b.b.X : C F F D 3.e.q.9.8.8.8.8.8.8.v + b.b.b.b.b.b.b.b.",
"b.b.b.b.b.+ O : C F F S 3.e.&.0 0 q q q q 0 % O b.b.b.b.b.b.b.b.",
"b.b.b.b.b.O 7 N Z D S S 2.0.J ; u a a p a a 1 O b.b.b.b.b.b.b.b.",
"b.b.b.b.b.O V A A A A A 4.0.K 1 ^ ' ' ' ' ] d O b.b.b.b.b.b.b.b.",
"b.b.b.b.b.$ L 7.6.6.6.6.w.r.J e ( t.>.>.>.>.s O b.b.b.b.b.b.b.b.",
"b.b.b.b.b.$ H =.=.=.=.=.=.-.v , T ! ! W ! W u O b.b.b.b.b.b.b.b.",
"b.b.b.b.b.+ & 3 3 3 3 3 3 3 > = > < < < , , > O b.b.b.b.b.b.b.b.",
"b.b.b.b.b.b.b.b.b.b.b.b.b.b.b.b.b.b.b.b.b.b.b.b.b.b.b.b.b.b.b.b.",
"b.b.b.b.b.b.b.b.b.b.b.b.b.b.b.b.b.b.b.b.b.b.b.b.b.b.b.b.b.b.b.b."
};
