/* XPM */
static char *king1740060232[] = {
/* columns rows colors chars-per-pixel */
"32 32 137 2 ",
"   c #060506",
".  c #080709",
"X  c #060C0C",
"o  c #0B0B0C",
"O  c #06070C",
"+  c #110E0D",
"@  c #180C0E",
"#  c #0E100F",
"$  c #17130F",
"%  c #18140F",
"&  c #0B0D13",
"*  c #100F11",
"=  c #1B0E10",
"-  c #0E1712",
";  c #0E1812",
":  c #151415",
">  c #181517",
",  c #1C1A1B",
"<  c #1B1B11",
"1  c #240B0E",
"2  c #220F11",
"3  c #2C1012",
"4  c #231C10",
"5  c #201E1E",
"6  c #341114",
"7  c #3E1215",
"8  c #0C2515",
"9  c #0B2917",
"0  c #3B2B0F",
"q  c #272813",
"w  c #302411",
"e  c #1E1E20",
"r  c #252424",
"t  c #282625",
"y  c #2B2927",
"u  c #262629",
"i  c #2C2B2B",
"p  c #312D2C",
"a  c #33302F",
"s  c #373432",
"d  c #393634",
"f  c #3B3836",
"g  c #3E3B39",
"h  c #451115",
"j  c #571419",
"k  c #6E151B",
"l  c #77171E",
"z  c #7E181F",
"x  c #463412",
"c  c #4D3710",
"v  c #4E3811",
"b  c #563C12",
"n  c #593F14",
"m  c #423E3C",
"M  c #0B5427",
"N  c #0B5728",
"B  c #0A6A2E",
"V  c #04662E",
"C  c #046E30",
"Z  c #057231",
"A  c #0A7331",
"S  c #594015",
"D  c #654814",
"F  c #684B14",
"G  c #45423F",
"H  c #537A29",
"J  c #6C7023",
"K  c #413F41",
"L  c #444243",
"P  c #494542",
"I  c #4D4946",
"U  c #4F4B48",
"Y  c #55514D",
"T  c #5E5A55",
"R  c #605B57",
"E  c #635E5A",
"W  c #65615C",
"Q  c #69645F",
"!  c #6C6661",
"~  c #6E6A63",
"^  c #676A63",
"/  c #716D66",
"(  c #746F69",
")  c #7C776F",
"_  c #7E7971",
"`  c #831820",
"'  c #891821",
"]  c #A31A24",
"[  c #AB1C26",
"{  c #B21C27",
"}  c #B91E28",
"|  c #C51F2A",
" . c #CB1D2A",
".. c #D11F2B",
"X. c #DB1E2B",
"o. c #D4202C",
"O. c #DB212E",
"+. c #E0212E",
"@. c #91671B",
"#. c #996C1B",
"$. c #9D711C",
"%. c #B27F1E",
"&. c #894243",
"*. c #956F6C",
"=. c #827C75",
"-. c #C8575A",
";. c #DA7273",
":. c #5E872C",
">. c #5E892D",
",. c #60872C",
"<. c #8D932A",
"1. c #92992B",
"2. c #B7A029",
"3. c #C1881F",
"4. c #C68C20",
"5. c #CE9823",
"6. c #D19521",
"7. c #D29B23",
"8. c #D89922",
"9. c #DDA324",
"0. c #E0A124",
"q. c #868079",
"w. c #91877F",
"e. c #8F8980",
"r. c #9E968F",
"t. c #A49C94",
"y. c #AAA199",
"u. c #B6ADA3",
"i. c #B9B0A6",
"p. c #C0B7AC",
"a. c #CCBFB4",
"s. c #D2C7BB",
"d. c #D6CCBF",
"f. c #D7CDC0",
"g. c #D9CFC2",
"h. c #DBD1C4",
"j. c None",
/* pixels */
"j.j.j.j.j.j.j.j.j.j.j.j.j.j.j.j.j.j.j.j.j.j.j.j.j.j.j.j.j.j.j.j.",
"j.j.j.j.j.j.j.j.j.j.j.j.j.j.j.j.j.j.j.j.j.j.j.j.j.j.j.j.j.j.j.j.",
"j.j.j.j.j.j.j.o + 1 3 3 3 3 3 3 2 o j.j.j.j.j.j.j.j.j.j.j.j.j.j.",
"j.j.j.j.j.j.o X > ` { [ [ [ [ [ l : o o j.j.j.j.j.j.j.j.j.j.j.j.",
"j.j.j.j.j.j.- 6 k z z ' | +.O.O.} l 3 # j.j.j.j.j.j.j.j.j.j.j.j.",
"j.j.j.j.j.j.o j ] h X = ' | ..o. .[ h o j.j.j.j.j.j.j.j.j.j.j.j.",
"j.j.j.j.j.j.o 2 6 % . . 1 k  .X.] h @ . o . o o j.j.j.j.j.j.j.j.",
"j.j.j.j.j.j.j.o X . a W ^ *.;.-.&.m f g g g a : j.j.j.j.j.j.j.j.",
"j.j.j.j.j.j.j.j.j.. T h.g.s.a.w.Q / ~ / ~ / Y > j.j.j.j.j.j.j.j.",
"j.j.j.j.j.j.j.j.j.. W h.) G m i q r r u u u q o o + j.j.j.j.j.j.",
"j.j.j.j.j.j.j.j.j.. Y y.f , Y E E R Y P P I U I t o j.j.j.j.j.j.",
"j.j.j.j.j.j.j.j.j.. f ( y Y g.h.f.h.i.t.y.t.t.y.I . j.j.j.j.j.j.",
"j.j.j.j.j.j.j.j.j.o d ~ t T h.=.( i.~ R y.~ T t.Y o j.j.j.j.j.j.",
"j.j.j.j.j.j.j.j.j.o d / t Y p.P d r.K s r.P p r.Y . j.j.j.j.j.j.",
"j.j.j.j.j.j.j.j.j.o d ~ y P t.m f t.K m r.I d r.Y . j.j.j.j.j.j.",
"j.j.j.j.j.j.j.j.j.. f ~ y P r.f f t.m s r.P a r.Y o j.j.j.j.j.j.",
"j.j.j.j.j.j.j.j.j.o d ( y P y.! Q t./ Q y.~ E y.Y & j.j.j.j.j.j.",
"j.j.j.j.j.j.j.j.j.o s ! u m t.t.t.t.t.t.y.t.t.t.I . j.j.j.j.j.j.",
"j.j.j.j.j.j.j.j.o o , p > , g L K K K K K K L P r o j.j.j.j.j.j.",
"j.j.j.j.j.j.j.j.* 8 9 9 9 q x c v c v v c b 0 o o o j.j.j.j.j.j.",
"j.j.j.j.j.j.j.j.: M B B V H 5.8.6.6.6.6.6.8.$.4 j.j.j.j.j.j.j.j.",
"j.j.j.j.j.j.j.j.- N A A C :.9.#.D D D D D D v = j.j.j.j.j.j.j.j.",
"j.j.j.j.j.j.j.j.; N Z A C :.7.b & r u r r u e * j.j.j.j.j.j.j.j.",
"j.j.j.j.j.j.j.j.; N A B C :.7.b u ! ( / / ( Y > j.j.j.j.j.j.j.j.",
"j.j.j.j.j.j.j.j.- N A A C :.7.b i ) q.=.) =.R > j.j.j.j.j.j.j.j.",
"j.j.j.j.j.j.j.j.; N Z Z C :.7.b r T W ~ q.w.Q , j.j.j.j.j.j.j.j.",
"j.j.j.j.j.j.j.j.; N A B C :.7.n o > > G r.u.=.5 j.j.j.j.j.j.j.j.",
"j.j.j.j.j.j.j.j.4 J 1.1.<.2.0.n X o   g y.q.m > j.j.j.j.j.j.j.j.",
"j.j.j.j.j.j.j.j.< @.3.3.4.4.%.x X o . d =.m . o j.j.j.j.j.j.j.j.",
"j.j.j.j.j.j.j.j.$ 4 w w w w w % & j.o : r > o j.j.j.j.j.j.j.j.j.",
"j.j.j.j.j.j.j.j.j.j.j.j.j.j.j.j.j.j.j.j.j.j.j.j.j.j.j.j.j.j.j.j.",
"j.j.j.j.j.j.j.j.j.j.j.j.j.j.j.j.j.j.j.j.j.j.j.j.j.j.j.j.j.j.j.j."
};
