/* XPM */
static char *p21740060938[] = {
/* columns rows colors chars-per-pixel */
"32 32 139 2 ",
"   c #030305",
".  c #080607",
"X  c #06060A",
"o  c #0D070C",
"O  c #040B0C",
"+  c #0C0B0D",
"@  c #120D0F",
"#  c #14120F",
"$  c #0D0D11",
"%  c #1A0E10",
"&  c #0E1210",
"*  c #0D1F14",
"=  c #151314",
"-  c #181516",
";  c #1F1910",
":  c #1A1719",
">  c #1C1B1C",
",  c #3B0A0F",
"<  c #271D0C",
"1  c #210F11",
"2  c #390E12",
"3  c #231C10",
"4  c #201E1E",
"5  c #2B1013",
"6  c #301013",
"7  c #0D2315",
"8  c #0B2916",
"9  c #0A2918",
"0  c #112014",
"q  c #2B2412",
"w  c #202E16",
"e  c #372911",
"r  c #201F20",
"t  c #1C2120",
"y  c #242222",
"u  c #2A2726",
"i  c #2B2927",
"p  c #2D2B2A",
"a  c #3F2425",
"s  c #33302F",
"d  c #353432",
"f  c #393634",
"g  c #3B3836",
"h  c #3D3A3A",
"j  c #5B141A",
"k  c #6A161C",
"l  c #7B161D",
"z  c #463611",
"x  c #4F3912",
"c  c #503A11",
"v  c #403D3B",
"b  c #683B3B",
"n  c #0B5E29",
"m  c #085929",
"M  c #08672D",
"N  c #1C6129",
"B  c #1C752F",
"V  c #026E30",
"C  c #037232",
"Z  c #0A7331",
"A  c #1F7930",
"S  c #5F4616",
"D  c #6E4F15",
"F  c #704D14",
"G  c #715116",
"H  c #48762A",
"J  c #494642",
"K  c #4C4945",
"L  c #434541",
"P  c #524E4A",
"I  c #54514E",
"U  c #5A5652",
"Y  c #5D5A56",
"T  c #605B57",
"R  c #5E615B",
"E  c #66625C",
"W  c #6A655E",
"Q  c #6B6661",
"!  c #6E6A63",
"~  c #726D66",
"^  c #746E69",
"/  c #76706A",
"(  c #7A746D",
")  c #7E7971",
"_  c #81111A",
"`  c #951A23",
"'  c #9B1B24",
"]  c #A31B25",
"[  c #BF1E29",
"{  c #A52E34",
"}  c #C41A26",
"|  c #C51E2A",
" . c #DB1C29",
".. c #CF202C",
"X. c #D3202C",
"o. c #DC212E",
"O. c #8E631A",
"+. c #AC791D",
"@. c #A2741D",
"#. c #B27C1D",
"$. c #D73B43",
"%. c #856662",
"&. c #817C75",
"*. c #857E78",
"=. c #C9434A",
"-. c #4E832D",
";. c #53852D",
":. c #61872C",
">. c #8F8023",
",. c #AD9B28",
"<. c #B4A029",
"1. c #C89322",
"2. c #D29521",
"3. c #D19E24",
"4. c #DA9821",
"5. c #C7A328",
"6. c #D9A425",
"7. c #E5A624",
"8. c #87817A",
"9. c #8B847C",
"0. c #8D8880",
"q. c #948D85",
"w. c #9C948C",
"e. c #B78E87",
"r. c #A49B93",
"t. c #A8A097",
"y. c #ABA29A",
"u. c #B5ACA3",
"i. c #B8AFA4",
"p. c #BBB3A8",
"a. c #CCBEB2",
"s. c #C4BDB1",
"d. c #E2BBB2",
"f. c #CFC5B9",
"g. c #D1C7BB",
"h. c #D7CDC1",
"j. c #DBD1C4",
"k. c #E6DBCE",
"l. c None",
/* pixels */
"l.l.l.l.l.l.l.l.l.l.l.l.l.l.l.l.l.l.l.l.l.l.l.l.l.l.l.l.l.l.l.l.",
"l.l.l.l.l.l.l.l.l.l.l.l.l.l.l.l.l.l.l.l.l.l.l.l.l.l.l.l.l.l.l.l.",
"l.l.l.l.l.+ % 1 ; 1 1 % 1 % 1 % @ + l.l.l.l.l.l.l.l.l.l.l.l.l.l.",
"l.l.l.l.l.@ j ' ' ' ' ` ` ` ' l 1 O @ l.l.l.l.l.l.l.l.l.l.l.l.l.",
"l.l.l.l.l.@ j ' ] ' ] ..o.o.o.[ k 5 @ l.l.l.l.l.l.l.l.l.l.l.l.l.",
"l.l.l.l.l.@ % 1 % % 6 ' X.X.X.....k @ l.l.l.l.l.l.l.l.l.l.l.l.l.",
"l.l.l.l.l.l.l.O $ O   2 _ ..o.[ l 2 $ X X . + l.l.l.l.l.l.l.l.l.",
"l.l.l.l.l.l.l.l.@ 0 d d b =.o.{ a 0 y r y y = + l.l.l.l.l.l.l.l.",
"l.l.l.l.l.l.l.l.+ U p.s.f.d.e.%.W E Q E Q T s $ l.l.l.l.l.l.l.l.",
"l.l.l.l.l.l.l.l.+ ~ k.u.0.8.R L J J K K K J y X + l.l.l.l.l.l.l.",
"l.l.l.l.l.l.l.l.+ ! s.I # y y y y y r r r r r : = + l.l.l.l.l.l.",
"l.l.l.l.l.l.l.l.+ K 9.d s w.y.y.r.w.*.&.) *.*.Q 4 . l.l.l.l.l.l.",
"l.l.l.l.l.l.l.l.+ h W i K j.g.i.h.p.0.r.y.0.r.w.p   l.l.l.l.l.l.",
"l.l.l.l.l.l.l.l.+ v ~ i P g.( v w./ s 9.8.s ^ q.p   l.l.l.l.l.l.",
"l.l.l.l.l.l.l.l.+ v ! i J i.U y 0.Q > &.) r Q q.p   l.l.l.l.l.l.",
"l.l.l.l.l.l.l.l.+ h ! i v w.I i q.Q r &.) q Q q.p   l.l.l.l.l.l.",
"l.l.l.l.l.l.l.l.+ h ~ p h r.P u q.Q r *.*.r Q q.p X l.l.l.l.l.l.",
"l.l.l.l.l.l.l.l.+ v ~ p v r.*.Q r.q.T w.w.E q.q.p   l.l.l.l.l.l.",
"l.l.l.l.l.l.l.l.+ g T p f q.r.r.r.r.r.r.r.w.r.*.u   l.l.l.l.l.l.",
"l.l.l.l.l.l.l.+ o > u - : f h h f h h h h h L s - o l.l.l.l.l.l.",
"l.l.l.l.l.l.@ = 7 9 8 8 w z c c x x x x c x 3 X $ l.l.l.l.l.l.l.",
"l.l.l.l.l.l.o * m M M M H 1.4.2.2.2.2.2.4.1.D + l.l.l.l.l.l.l.l.",
"l.l.l.l.l.l.o 0 n Z Z C ;.6.#.G F D G G F D e + l.l.l.l.l.l.l.l.",
"l.l.l.l.l.l.o * n Z Z V ;.3.G $ > r r r r r = $ l.l.l.l.l.l.l.l.",
"l.l.l.l.l.l.o * n Z Z V ;.3.F > I E E E E E s + l.l.l.l.l.l.l.l.",
"l.l.l.l.l.l.+ * m C V V -.3.F r W 8.8.&.&.&.h + l.l.l.l.l.l.l.l.",
"l.l.l.l.l.l.o * N A B B ;.3.F 4 R ~ / ) ) ~ f + l.l.l.l.l.l.l.l.",
"l.l.l.l.l.l.o q >.<.,.,.5.7.G - i i f 8.8.f : + l.l.l.l.l.l.l.l.",
"l.l.l.l.l.l.X q O.#.+.+.+.@.x + . . = Y T = + + l.l.l.l.l.l.l.l.",
"l.l.l.l.l.l.$ @ 3 3 3 3 3 3 = + l.l.& > : $ l.l.l.l.l.l.l.l.l.l.",
"l.l.l.l.l.l.l.l.l.l.l.l.l.l.l.l.l.l.l.l.l.l.l.l.l.l.l.l.l.l.l.l.",
"l.l.l.l.l.l.l.l.l.l.l.l.l.l.l.l.l.l.l.l.l.l.l.l.l.l.l.l.l.l.l.l."
};
