/* XPM */
static char *safeimagekit_player11740131845[] = {
/* columns rows colors chars-per-pixel */
"32 32 148 2 ",
"   c #040607",
".  c #0B0B0D",
"X  c #0E0E12",
"o  c #110F11",
"O  c #1B0E10",
"+  c #0E1210",
"@  c #0D1F14",
"#  c #141214",
"$  c #1C1215",
"%  c #15161A",
"&  c #191618",
"*  c #12191C",
"=  c #1D1B1C",
"-  c #3B0A0F",
";  c #271D0C",
":  c #230F11",
">  c #390E12",
",  c #241316",
"<  c #2D1013",
"1  c #201E1E",
"2  c #371114",
"3  c #0D2315",
"4  c #0A2918",
"5  c #202E16",
"6  c #352812",
"7  c #1D1E22",
"8  c #201F20",
"9  c #1D2123",
"0  c #242222",
"q  c #2A2726",
"w  c #2A2827",
"e  c #24242A",
"r  c #2D2B2A",
"t  c #3F2425",
"y  c #33302F",
"u  c #2B2C33",
"i  c #2E3139",
"p  c #343332",
"a  c #393635",
"s  c #3C3937",
"d  c #31333B",
"f  c #3D3A3A",
"g  c #5A141A",
"h  c #6A161C",
"j  c #7B161D",
"k  c #79181E",
"l  c #4A3710",
"z  c #503A11",
"x  c #403D3B",
"c  c #683B3B",
"v  c #085929",
"b  c #0B5D29",
"n  c #08672D",
"m  c #036E30",
"M  c #037232",
"N  c #0A7331",
"B  c #5F4416",
"V  c #6B4E16",
"C  c #714E15",
"Z  c #725116",
"A  c #755218",
"S  c #456D27",
"D  c #48762A",
"F  c #3A3B45",
"G  c #3E414D",
"H  c #3D4151",
"J  c #434541",
"K  c #494642",
"L  c #4D4945",
"P  c #41424E",
"I  c #524E4A",
"U  c #54514E",
"Y  c #444351",
"T  c #464955",
"R  c #4A4C5A",
"E  c #5A5652",
"W  c #5D5A56",
"Q  c #66625C",
"!  c #6A655E",
"~  c #515462",
"^  c #535A6A",
"/  c #5B5F6F",
"(  c #5F6475",
")  c #6B6661",
"_  c #6E6A63",
"`  c #726D66",
"'  c #76706A",
"]  c #7B756E",
"[  c #616679",
"{  c #64697B",
"}  c #7C7770",
"|  c #7F7972",
" . c #81111A",
".. c #951A23",
"X. c #9A1B23",
"o. c #A11B24",
"O. c #A52E34",
"+. c #C41A26",
"@. c #C51E2A",
"#. c #DB1C29",
"$. c #D3202C",
"%. c #DC212E",
"&. c #B27C1D",
"*. c #D73B43",
"=. c #856662",
"-. c #827C75",
";. c #857E78",
":. c #C9434A",
">. c #4E832D",
",. c #53842D",
"<. c #55882E",
"1. c #87932B",
"2. c #AB8220",
"3. c #C89322",
"4. c #D29521",
"5. c #D09E24",
"6. c #DC9B22",
"7. c #D7A325",
"8. c #DAA325",
"9. c #86817A",
"0. c #8B847D",
"q. c #6B6F82",
"w. c #6C7185",
"e. c #71758A",
"r. c #74788E",
"t. c #767C91",
"y. c #7E849B",
"u. c #8D8880",
"i. c #948D85",
"p. c #9C948C",
"a. c #B78E87",
"s. c #A39B93",
"d. c #ABA299",
"f. c #B0A79E",
"g. c #848AA3",
"h. c #888EA7",
"j. c #898FA9",
"k. c #8C92AC",
"l. c #B6ADA3",
"z. c #BBB3A8",
"x. c #C4BDB1",
"c. c #CCBEB2",
"v. c #E2BBB2",
"b. c #CFC5B9",
"n. c #D1C7BB",
"m. c #D7CDC1",
"M. c #DBD1C4",
"N. c #E6DBCE",
/* pixels */
"k.k.k.k.k.k.k.k.k.k.k.k.k.k.k.k.k.k.k.k.k.k.k.k.k.k.k.k.k.k.k.k.",
"k.k.k.k.k.k.e.^ ^ ^ ^ ^ ^ ^ ^ ^ ^ e.k.k.k.k.k.k.k.k.k.k.k.k.k.k.",
"k.k.k.k.h.g.P o , , , , , $ , $ o P g.h.k.k.k.k.k.k.k.k.k.k.k.k.",
"k.k.k.k.e.F * : j o.X.......X.k : * F e.k.k.k.k.k.k.k.k.k.k.k.k.",
"k.k.k.k.{ $ < g ..X.o.@.%.%.%.@.h < % { k.k.k.k.k.k.k.k.k.k.k.k.",
"k.k.k.k.{ 1 k o.> o 2 X.$.$.$.@.@.h = ( k.h.h.h.k.k.k.k.k.k.k.k.",
"k.k.k.k.[ & > g O     -  .+.#.+.j > # i Y H P ~ y.k.k.k.k.k.k.k.",
"k.k.k.k.w.i e 9 # 1 p p c :.*.O.t = 0 0 0 0 & e r.k.k.k.k.k.k.k.",
"k.k.k.k.g.t.t.( 7 E z.x.c.v.a.=.! Q ) Q ) Q y e r.k.k.k.k.k.k.k.",
"k.k.k.k.k.k.k.t.e ` N.l.u.9.Q J K K L K L K 0 % T e.j.k.k.k.k.k.",
"k.k.k.k.k.k.k.r.e _ c.U $ 0 q 8 0 0 1 1 1 1 8 & # T h.k.k.k.k.k.",
"k.k.k.k.k.k.k.r.e L 0.p y i.f.d.s.p.;.| -.;.;.) 5 H h.j.k.k.k.k.",
"k.k.k.k.k.k.k.r.e f ! w I M.n.l.m.z.u.s.d.u.s.p.r G j.k.k.k.k.k.",
"k.k.k.k.k.k.k.r.e f _ r I b.] x p.' y 0.9.r ' i.r G j.k.k.k.k.k.",
"k.k.k.k.k.k.k.r.e f ` r K f.W 5 i.Q = -.-., ) i.r P j.k.k.k.k.k.",
"k.k.k.k.k.k.k.r.e x ! r x p.U w i.) 1 ;.;.1 ) i.r G j.k.k.k.k.k.",
"k.k.k.k.k.k.k.r.e f ` r f s.I r i.) 1 ;.;.1 ) i.r G h.k.k.k.k.k.",
"k.k.k.k.k.k.k.t.e x ` r x s.;.) s.i.Q p.p.Q i.p.r G h.k.k.k.k.k.",
"k.k.k.k.k.j.h.q.e a Q q a i.s.s.s.s.s.s.s.p.s.9.q G h.k.k.k.k.k.",
"k.k.k.k.k.j./ u # , q & & p f f d f f a f F x p & G h.k.k.k.k.k.",
"k.k.k.k.k.h.Y o 3 4 4 4 5 l z z z z z z z l ; # u / h.k.k.k.k.k.",
"k.k.k.k.k.h.Y @ v n n n D 3.6.3.4.4.4.4.6.3.B e q.h.k.k.k.k.k.k.",
"k.k.k.k.k.h.Y @ n N N M ,.7.&.Z C C Z Z C V 6 e t.k.k.k.k.k.k.k.",
"k.k.k.k.k.h.Y @ b N N m ,.5.C X & 8 8 8 8 8 $ e r.k.k.k.k.k.k.k.",
"k.k.k.k.k.j.Y @ b N N m ,.5.C = U ! Q Q Q Q y e r.k.k.k.k.k.k.k.",
"k.k.k.k.k.j.Y @ b N N m ,.5.C 8 ! 9.-.-.-.] s e r.k.k.k.k.k.k.k.",
"k.k.k.k.k.j.Y @ b N N m ,.5.V = W ' ` } ;.} x e r.k.k.k.k.k.k.k.",
"k.k.k.k.k.j.Y @ v m m m >.5.A # w r a -.d.s.L e r.k.k.k.k.k.k.k.",
"k.k.k.k.k.h.P 5 S <.,.>.1.8.A . .   & 9.f.;.s e r.k.k.k.k.k.k.k.",
"k.k.k.k.k.h.F 6 2.7.5.5.8.8.V . + . = -.9.q o e r.k.k.k.k.k.k.k.",
"k.k.k.k.k.h.Y , B C C C C V 6 7 R F # x x # d [ g.k.k.k.k.k.k.k.",
"k.k.k.k.k.h.Y . . . X . . . . r r./ o . . # ^ k.k.k.k.k.k.k.k.k."
};
