/* XPM */
static char * wall_xpm[] = {
"64 64 604 2",
"  	c None",
". 	c #373544",
"+ 	c #383645",
"@ 	c #383646",
"# 	c #312F3F",
"$ 	c #262435",
"% 	c #2B2A3B",
"& 	c #302F3F",
"* 	c #2F2F3F",
"= 	c #323141",
"- 	c #343342",
"; 	c #323241",
"> 	c #333242",
", 	c #313040",
"' 	c #333342",
") 	c #363544",
"! 	c #A09FA7",
"~ 	c #C8C7CB",
"{ 	c #C4C3C8",
"] 	c #93929C",
"^ 	c #48485A",
"/ 	c #6E7481",
"( 	c #8B949E",
"_ 	c #8B939D",
": 	c #9DA4AC",
"< 	c #A8AEB5",
"[ 	c #A8ADB4",
"} 	c #A7ADB4",
"| 	c #A9AFB5",
"1 	c #A0A7AE",
"2 	c #8D959E",
"3 	c #9AA1A9",
"4 	c #A2A8B0",
"5 	c #8D959F",
"6 	c #87909A",
"7 	c #88919B",
"8 	c #89919B",
"9 	c #89929C",
"0 	c #89919C",
"a 	c #88909A",
"b 	c #949CA5",
"c 	c #A6ACB3",
"d 	c #969DA6",
"e 	c #6D7380",
"f 	c #C3C3C7",
"g 	c #FFFFFF",
"h 	c #F8FBFC",
"i 	c #FDFFFF",
"j 	c #B9BAC2",
"k 	c #58586B",
"l 	c #858C99",
"m 	c #A8B4BD",
"n 	c #A8B4BC",
"o 	c #C3CED4",
"p 	c #D4DFE3",
"q 	c #D2DDE1",
"r 	c #D3DEE2",
"s 	c #CCD7DC",
"t 	c #BBC8CF",
"u 	c #C6D2D8",
"v 	c #CDD9DD",
"w 	c #BCC8CF",
"x 	c #B7C4CB",
"y 	c #B8C4CC",
"z 	c #B8C5CC",
"A 	c #B5C2CA",
"B 	c #AAB5BE",
"C 	c #ADB9C1",
"D 	c #B7C4CC",
"E 	c #C2CED4",
"F 	c #D1DCE1",
"G 	c #D0DADF",
"H 	c #B7C3CA",
"I 	c #848B98",
"J 	c #DAE3E6",
"K 	c #DDE6E8",
"L 	c #A4A9B2",
"M 	c #4F4F61",
"N 	c #686D7C",
"O 	c #7F8692",
"P 	c #808793",
"Q 	c #97A0AA",
"R 	c #A5B0B9",
"S 	c #A4AFB8",
"T 	c #A4AFB7",
"U 	c #A3AEB7",
"V 	c #A4AEB7",
"W 	c #A3AEB6",
"X 	c #9EA9B2",
"Y 	c #858D99",
"Z 	c #8C949F",
"` 	c #A2ADB6",
" .	c #A2ACB5",
"..	c #8C959F",
"+.	c #676B7A",
"@.	c #F9FDFD",
"#.	c #DDE7E9",
"$.	c #E1EBED",
"%.	c #9DA3AB",
"&.	c #333243",
"*.	c #313141",
"=.	c #3B3B4B",
"-.	c #3B3C4B",
";.	c #424453",
">.	c #474957",
",.	c #464857",
"'.	c #474857",
").	c #484A58",
"!.	c #464756",
"~.	c #3D3E4D",
"{.	c #3F404F",
"].	c #474958",
"^.	c #313041",
"/.	c #2F2D3D",
"(.	c #888790",
"_.	c #A9AAB1",
":.	c #969BA3",
"<.	c #999FA6",
"[.	c #767984",
"}.	c #3A3B4C",
"|.	c #323244",
"1.	c #333345",
"2.	c #313143",
"3.	c #313144",
"4.	c #323144",
"5.	c #232132",
"6.	c #2F2E3E",
"7.	c #292838",
"8.	c #3C3C4D",
"9.	c #5C6073",
"0.	c #616679",
"a.	c #616678",
"b.	c #616578",
"c.	c #606477",
"d.	c #5F6376",
"e.	c #606577",
"f.	c #2A2939",
"g.	c #646975",
"h.	c #767D89",
"i.	c #5B5F6D",
"j.	c #2D2C3D",
"k.	c #757C8B",
"l.	c #7C8391",
"m.	c #7B8290",
"n.	c #7B8391",
"o.	c #7D8492",
"p.	c #7B8291",
"q.	c #6F7586",
"r.	c #656A7D",
"s.	c #313140",
"t.	c #969EA7",
"u.	c #B9C4CB",
"v.	c #8D96A1",
"w.	c #878F9A",
"x.	c #868E9A",
"y.	c #88909C",
"z.	c #818895",
"A.	c #737987",
"B.	c #7D8491",
"C.	c #7A818F",
"D.	c #707686",
"E.	c #808794",
"F.	c #848C98",
"G.	c #838B97",
"H.	c #707684",
"I.	c #545567",
"J.	c #6E7382",
"K.	c #838B98",
"L.	c #838A97",
"M.	c #878F9B",
"N.	c #818995",
"O.	c #595C6A",
"P.	c #4E5060",
"Q.	c #808895",
"R.	c #89919D",
"S.	c #858E99",
"T.	c #88919D",
"U.	c #88919C",
"V.	c #3E3F4F",
"W.	c #626775",
"X.	c #686D7B",
"Y.	c #636976",
"Z.	c #646976",
"`.	c #656A78",
" +	c #696E7C",
".+	c #717684",
"++	c #7C8390",
"@+	c #454656",
"#+	c #222031",
"$+	c #2A2839",
"%+	c #2E2D3D",
"&+	c #302F41",
"*+	c #48485B",
"=+	c #6B6F7F",
"-+	c #939BA4",
";+	c #C1CDD3",
">+	c #828996",
",+	c #5D6272",
"'+	c #3E3F52",
")+	c #3B3A4C",
"!+	c #7B7A85",
"~+	c #AAA9AF",
"{+	c #A7A6AD",
"]+	c #A7A6AC",
"^+	c #A8A7AE",
"/+	c #A6A5AB",
"(+	c #676673",
"_+	c #3A394C",
":+	c #505165",
"<+	c #6E7484",
"[+	c #303040",
"}+	c #9098A1",
"|+	c #BECBD1",
"1+	c #747B8A",
"2+	c #7F8794",
"3+	c #767D8C",
"4+	c #5E6274",
"5+	c #525164",
"6+	c #B8B7BF",
"7+	c #FDFDFD",
"8+	c #9999A4",
"9+	c #4D4E62",
"0+	c #676C7D",
"a+	c #A4AAB1",
"b+	c #CFDADF",
"c+	c #828A97",
"d+	c #6D7281",
"e+	c #525265",
"f+	c #B7B6BE",
"g+	c #9796A2",
"h+	c #4F5063",
"i+	c #767C8A",
"j+	c #828A96",
"k+	c #848C99",
"l+	c #969EA6",
"m+	c #C3CFD5",
"n+	c #7A8290",
"o+	c #535365",
"p+	c #FCFCFC",
"q+	c #898792",
"r+	c #2C2B3D",
"s+	c #3F4151",
"t+	c #464757",
"u+	c #454756",
"v+	c #414252",
"w+	c #2E2C3E",
"x+	c #898892",
"y+	c #87909B",
"z+	c #868E99",
"A+	c #959DA5",
"B+	c #88909B",
"C+	c #6F7583",
"D+	c #F5F5F5",
"E+	c #D1D1D4",
"F+	c #83838C",
"G+	c #484856",
"H+	c #434452",
"I+	c #3E3F4E",
"J+	c #7D7E88",
"K+	c #F5F5F6",
"L+	c #707584",
"M+	c #B6B5BD",
"N+	c #CFCFD2",
"O+	c #555461",
"P+	c #7F828C",
"Q+	c #C3CACF",
"R+	c #C1C9CD",
"S+	c #AEB7BE",
"T+	c #9CA7B0",
"U+	c #9DA7B0",
"V+	c #9DA8B1",
"W+	c #6B707C",
"X+	c #555360",
"Y+	c #D0CFD3",
"Z+	c #757C8A",
"`+	c #5B5D70",
" @	c #7D7D8B",
".@	c #9998A3",
"+@	c #9897A2",
"@@	c #9D9CA7",
"#@	c #7A7885",
"$@	c #2B293A",
"%@	c #757A85",
"&@	c #CAD5DA",
"*@	c #C8D3D8",
"=@	c #BDC8CF",
"-@	c #B3BFC7",
";@	c #B3C0C7",
">@	c #B4C0C8",
",@	c #6A707C",
"'@	c #7A7985",
")@	c #A7B3BC",
"!@	c #767C88",
"~@	c #2D2C3C",
"{@	c #6A7081",
"]@	c #595C6E",
"^@	c #505164",
"/@	c #515164",
"(@	c #4E4F62",
"_@	c #3F3E52",
":@	c #272537",
"<@	c #6D737F",
"[@	c #B0BCC4",
"}@	c #AEBAC3",
"|@	c #AEBAC2",
"1@	c #AFBBC3",
"2@	c #B1BDC5",
"3@	c #A1ACB5",
"4@	c #2C2B3B",
"5@	c #7B828F",
"6@	c #7A818E",
"7@	c #6B7182",
"8@	c #4D4F62",
"9@	c #292839",
"0@	c #6D727E",
"a@	c #B0BDC5",
"b@	c #B3C0C8",
"c@	c #848B96",
"d@	c #8A929C",
"e@	c #B8C5CD",
"f@	c #747B8B",
"g@	c #515467",
"h@	c #2A293A",
"i@	c #6C717D",
"j@	c #B5C1C9",
"k@	c #C3CDD3",
"l@	c #BAC5CC",
"m@	c #B2BEC6",
"n@	c #2E2E3E",
"o@	c #838A95",
"p@	c #A3ADB6",
"q@	c #7F8694",
"r@	c #727989",
"s@	c #505366",
"t@	c #6B717D",
"u@	c #B8C4CB",
"v@	c #CDD7DB",
"w@	c #C0CBD1",
"x@	c #ABB7BF",
"y@	c #A8B3BC",
"z@	c #A9B5BD",
"A@	c #696E7A",
"B@	c #A1ABB5",
"C@	c #6B7082",
"D@	c #797F8E",
"E@	c #6C727E",
"F@	c #B6C1C9",
"G@	c #9EA8B2",
"H@	c #8C95A0",
"I@	c #595D6B",
"J@	c #29283A",
"K@	c #6F7585",
"L@	c #707787",
"M@	c #777D8A",
"N@	c #ACB8C0",
"O@	c #9CA6B0",
"P@	c #99A3AD",
"Q@	c #545765",
"R@	c #515568",
"S@	c #777E8C",
"T@	c #777E8D",
"U@	c #7C828F",
"V@	c #6C7182",
"W@	c #6E7480",
"X@	c #919AA5",
"Y@	c #8C94A0",
"Z@	c #4D5063",
"`@	c #565769",
" #	c #505163",
".#	c #505063",
"+#	c #3F3F52",
"@#	c #272637",
"##	c #AFBCC3",
"$#	c #ABB6BF",
"%#	c #A9B4BD",
"&#	c #696E7B",
"*#	c #403F52",
"=#	c #777D8B",
"-#	c #6D7180",
";#	c #858894",
">#	c #8B8E9A",
",#	c #868A96",
"'#	c #797E8C",
")#	c #7A808E",
"!#	c #626675",
"~#	c #2C2A3B",
"{#	c #636774",
"]#	c #A0AAB4",
"^#	c #9FA9B3",
"/#	c #A2ADB7",
"(#	c #636875",
"_#	c #787E8B",
":#	c #606273",
"<#	c #7C7E8C",
"[#	c #C7D0D5",
"}#	c #CED6DA",
"|#	c #BBC3C9",
"1#	c #838B96",
"2#	c #353545",
"3#	c #4F5160",
"4#	c #7A818D",
"5#	c #79808C",
"6#	c #787F8C",
"7#	c #7D8593",
"8#	c #6A707D",
"9#	c #424352",
"0#	c #888C96",
"a#	c #BEC6CC",
"b#	c #B9C4CA",
"c#	c #898E9B",
"d#	c #646576",
"e#	c #57596A",
"f#	c #414054",
"g#	c #383749",
"h#	c #7E8694",
"i#	c #616573",
"j#	c #8F959E",
"k#	c #BDC7CD",
"l#	c #676B7B",
"m#	c #5C5E6F",
"n#	c #606374",
"o#	c #626575",
"p#	c #646778",
"q#	c #4E4F61",
"r#	c #393A4C",
"s#	c #3A3A4C",
"t#	c #3A3B4D",
"u#	c #484958",
"v#	c #636775",
"w#	c #2D2D3D",
"x#	c #7B828D",
"y#	c #949DA8",
"z#	c #595B6D",
"A#	c #6E7281",
"B#	c #797F8C",
"C#	c #79808D",
"D#	c #686D7D",
"E#	c #595D70",
"F#	c #595E70",
"G#	c #464856",
"H#	c #9FAAB3",
"I#	c #B6C2CA",
"J#	c #2B2A3A",
"K#	c #686D7A",
"L#	c #8C95A1",
"M#	c #797F8D",
"N#	c #747B88",
"O#	c #414352",
"P#	c #373747",
"Q#	c #3A3A4A",
"R#	c #393A49",
"S#	c #303042",
"T#	c #313042",
"U#	c #3D3E4E",
"V#	c #AAB6BF",
"W#	c #949DA7",
"X#	c #6D7280",
"Y#	c #3F4052",
"Z#	c #4D4F5F",
"`#	c #5D616F",
" $	c #5E6370",
".$	c #5F6371",
"+$	c #525564",
"@$	c #39394B",
"#$	c #343446",
"$$	c #353648",
"%$	c #363749",
"&$	c #363648",
"*$	c #8B939E",
"=$	c #ACB8C1",
"-$	c #3C3D4C",
";$	c #626778",
">$	c #3C3D4F",
",$	c #38384A",
"'$	c #5C6173",
")$	c #64697C",
"!$	c #5E6275",
"~$	c #62677A",
"{$	c #B2BFC7",
"]$	c #98A1AB",
"^$	c #434553",
"/$	c #5C6172",
"($	c #4B4D60",
"_$	c #4C4F61",
":$	c #4A4D60",
"<$	c #585C6E",
"[$	c #717786",
"}$	c #55576A",
"|$	c #676C7C",
"1$	c #7E8593",
"2$	c #B9C6CE",
"3$	c #787F8D",
"4$	c #6F7686",
"5$	c #707687",
"6$	c #767C8C",
"7$	c #56586A",
"8$	c #5F6273",
"9$	c #707583",
"0$	c #717788",
"a$	c #B9C6CD",
"b$	c #868F99",
"c$	c #A0ABB4",
"d$	c #666C7D",
"e$	c #4C4B5F",
"f$	c #4C4C5F",
"g$	c #2C2C3C",
"h$	c #757B88",
"i$	c #9BA5B0",
"j$	c #8A939E",
"k$	c #404150",
"l$	c #666B7C",
"m$	c #56596D",
"n$	c #57596D",
"o$	c #575A6D",
"p$	c #7E8592",
"q$	c #282738",
"r$	c #585B6A",
"s$	c #717685",
"t$	c #656A79",
"u$	c #303041",
"v$	c #626779",
"w$	c #7D8493",
"x$	c #7C8492",
"y$	c #717787",
"z$	c #464558",
"A$	c #57576A",
"B$	c #515063",
"C$	c #353444",
"D$	c #3B3B4C",
"E$	c #5E6375",
"F$	c #767D8B",
"G$	c #7E8692",
"H$	c #696E7F",
"I$	c #818894",
"J$	c #7D8591",
"K$	c #7F8693",
"L$	c #C3C3CA",
"M$	c #BDBCC3",
"N$	c #B9B8BE",
"O$	c #878690",
"P$	c #3E3E4F",
"Q$	c #3A3A4B",
"R$	c #333445",
"S$	c #3C3D4D",
"T$	c #3D3F4E",
"U$	c #3F4050",
"V$	c #3F4150",
"W$	c #3E404F",
"X$	c #F9FCFC",
"Y$	c #ACADB3",
"Z$	c #2C2A3A",
"`$	c #4C4E5C",
" %	c #525360",
".%	c #545561",
"+%	c #545461",
"@%	c #535461",
"#%	c #50515E",
"$%	c #4C4D5B",
"%%	c #51525F",
"&%	c #494B59",
"*%	c #4B4C5A",
"=%	c #DCE4E7",
"-%	c #E0E8EB",
";%	c #737A86",
">%	c #B2BCC3",
",%	c #C5CDD2",
"'%	c #C8D0D4",
")%	c #C7CFD4",
"!%	c #C8D1D5",
"~%	c #BEC7CC",
"{%	c #A7B1B9",
"]%	c #B3BDC3",
"^%	c #C3CBD0",
"/%	c #ACB6BE",
"(%	c #AFB9C1",
"_%	c #C6CED3",
":%	c #FAFDFE",
"<%	c #DEE8EA",
"[%	c #E2ECEE",
"}%	c #989DA5",
"|%	c #6F7582",
"1%	c #AEB9C2",
"2%	c #C6D1D7",
"3%	c #C9D5DA",
"4%	c #C8D4D9",
"5%	c #C4D0D6",
"6%	c #B9C5CD",
"7%	c #A6B1BA",
"8%	c #B4C1C8",
"9%	c #BFCBD2",
"0%	c #BDCAD1",
"a%	c #C8D3D9",
"b%	c #C9D4DA",
"c%	c #A1A0A7",
"d%	c #BCBEC4",
"e%	c #AAB0B7",
"f%	c #767983",
"g%	c #4E505F",
"h%	c #858E98",
"i%	c #757B87",
"j%	c #848C97",
"k%	c #343343",
"l%	c #2D2B3B",
"m%	c #272636",
"                                                                                                                                ",
"                                                                                                                                ",
"                                                                                                                                ",
"                                                                                                                                ",
"                                                                                                                                ",
"                                                                                                                                ",
"                                                                                                                                ",
"                                                                                                                                ",
"                  . + + @ # $ % & * = - - - - - - ; & = > & * * * * * * * * * * * * , ' - - > , % $ # @ + + .                   ",
"                ) ! ~ { ~ ] ^ / ( _ : < [ } } } | 1 2 3 4 5 6 7 7 7 7 7 7 8 9 0 7 a b c < < c d e ^ ] ~ { ~ ! )                 ",
"                + f g h i j k l m n o p q q q q r s t u v w x y y y y y z A B C x D E F r r G H I k j i h g f +                 ",
"                + { h J K L M N O P Q R S S S S S T U V T U W W W W W W S X Y Z ` U U S S R  ...+.M L K J h { +                 ",
"                + { @.#.$.%.&.*.=.-.;.>.,.,.,.,.,.>.>.>.'.>.>.>.>.>.>.>.).!.~.{.>.].>.,.,.>.!.{.^.&.%.$.#.@.{ +                 ",
"                /.(._.:.<.[.}.|.1.1.|.2.3.3.3.3.3.3.3.3.3.3.3.3.3.3.3.3.|.|.1.|.3.3.3.3.3.2.4.|.|.}.[.<.:._.(./.                ",
"                5.6.> 6.7.8.9.0.a.b.b.b.b.b.b.b.b.b.b.b.b.b.b.b.b.b.b.a.c.d.e.a.b.b.b.b.b.b.b.a.0.9.8.7.6.> 6.5.                ",
"                f.g.h.i.j.|.0.k.l.m.m.n.o.l.m.m.m.m.m.m.m.m.m.m.m.m.m.p.q.r.k.l.m.m.l.o.n.m.m.l.k.0.|.j.i.h.g.f.                ",
"                s.t.u.v.{.|.a.l.w.x.y.z.A.B.x.x.x.x.x.x.x.x.x.x.x.x.x.x.C.D.E.w.x.x.B.A.z.y.x.w.l.a.|.{.v.u.t.s.                ",
"                > c G  .!.4.b.m.x.F.G.H.I.J.x.Y Y Y Y Y Y Y Y Y Y Y Y Y K.L.F.Y Y x.J.I.H.G.F.x.m.b.4.!. .G c >                 ",
"                - < r R >.2.b.m.M.N.O.P.J.Q.R.y.y.y.y.y.y.M.S.F.F.S.M.y.T.R.U.y.y.R.Q.J.P.O.N.M.m.b.2.>.R r < -                 ",
"                - < r S ,.3.b.m.y.P V.* W.X.Y.Z.Z.Z.Z.`. +.+++Y Y ++.+ +`.Z.Z.Z.Z.Y.X.W.* V.P y.m.b.3.,.S q } -                 ",
"                ' c F S ,.3.b.m.y.E.@+#+$+%+& & & & & % &+*+=+Y Y =+*+&+% & & & & & %+$+#+@+E.y.m.b.3.,.S q } -                 ",
"                , -+;+U >.3.a.l.y.>+,+'+)+!+~+{+]+^+/+(+_+:+<+Y Y <+:+_+(+/+^+]+{+~+!+)+'+,+>+M.m.b.3.,.S q } -                 ",
"                [+}+|+U >.|.e.1+2+G.3+4+5+6+g g g g 7+8+9+0+p.M.M.p.0+9+8+7+g g g g 6+5+4+3+G.x.m.b.3.,.S r < -                 ",
"                > a+b+T '.|.d.r.D.c+Y d+e+f+g g g g 7+g+h+i+G.j+j+G.i+h+g+7+g g g g f+e+d+k+F.x.m.b.3.,.S q } '                 ",
"                , l+m+V >.|.c.D.n+I y.H.o+f+g g g g p+q+r+s+t+u+u+,.v+w+x+p+g g g g f+o+H.y+Y z+m.b.3.>.U m+A+,                 ",
"                * B+x W >.3.a.n.x.Y M.C+e+f+g g g D+E+F+G+G+H+{.{.{.I+I+J+E+K+g g g f+e+C+M.Y x.m.b.3.>.W D 7 *                 ",
"                * 7 D W >.3.b.m.x.Y M.L+o+M+g 7+g N+O+P+Q+R+S+T+T+U+V+X W+X+Y+g 7+g M+o+L+M.Y x.m.b.3.>.W x B+*                 ",
"                * 7 y W >.3.b.m.x.Y x.Z+`+ @.@+@@@#@$@%@&@*@=@-@-@;@>@A ,@$@'@@@+@.@ @`+Z+x.Y x.m.b.3.).` )@!@~@                ",
"                * 7 y W >.3.b.m.x.Y S.o.{@]@^@/@(@_@:@<@[@}@|@1@1@1@1@2@<@:@_@(@/@^@]@{@o.S.Y x.m.b.3.). .3@/ 4@                ",
"                * 7 y W >.3.b.m.x.Y Y G.E.l.5@6@7@8@9@0@a@1@|@1@1@1@1@2@0@9@8@7@6@5@l.E.G.Y Y x.m.b.3.].W b@c@6.                ",
"                * d@e@U >.3.b.m.x.Y F.Y w.M.y+x.f@g@h@i@j@k@l@|@|@1@2@m@<@h@g@f@x.y+x.x.x.Y Y z+m.b.3.>.U e@d@*                 ",
"                n@o@-@p@].3.b.m.x.Y Y L.q@j+Y F.r@s@h@t@u@v@w@|@|@x@y@z@A@h@s@r@F.Y Y F.E.Q.F.x.m.b.3.>.W y 7 *                 ",
"                4@/ B@ .).3.b.m.x.Y z+l.C@D@x.F.r@s@h@E@m@F@m@1@1@G@H@v.I@J@g@r@F.Y Y j+K@L@G.x.m.b.3.>.W y 7 *                 ",
"                ~@M@m ` ).3.b.m.x.Y Y 2+k.q@y.x.f@g@h@<@N@O@U 1@1@P@j+L.Q@J@R@f@x.y+y+Y S@T@I x.m.b.3.>.W y 7 *                 ",
"                * 7 D W >.3.b.m.x.Y Y j+U@6@5@6@V@8@9@W@z@X@O@1@1@V+Y@H@I@9@Z@V@6@5@6@U@j+Y Y x.m.b.3.>.W y 7 *                 ",
"                * 8 z W >.3.b.m.z+Y M.M@`@ #e+e+.#+#@#W@##n $#1@1@x@y@%#&#:@*#.#e+e+.#`@=#y+Y z+m.b.3.>.W y 7 *                 ",
"                * 7 y W >.3.b.m.y+x.L+-#;#>#,#'#)#!#~#{#3@3@]#^#^#]#3@/#(#4@!#)#'#,#>#;#-#L+x.y+m.b.3.>.W y 7 *                 ",
"                * 7 y W >.3.b.p.j+_#:#<#[#}#|#V S 1#2#3#4#5#6#6#6#6#5#4#3#2#1#S V |#}#[#<#:#_#j+p.b.3.>.W y 7 *                 ",
"                * 7 y W >.3.b.7#8#9#0#a#b#c#d#:#:#e#f#g#2#2#2#2#2#2#2#2#g#f#e#:#:#d#c#b#a#0#9#8#7#b.3.>.W y 7 *                 ",
"                * 7 y W >.3.b.h#i#4@j#k#l l#m#:#n#o#p#q#r#s#t#t#t#t#s#r#q#p#o#n#:#m#l#l k#j#4@i#h#b.2.u#S z 7 *                 ",
"                * 7 y U >.3.b.h#v#w#x#y#z#A#j+6@B#C#B#D#E#E#F#F#F#F#E#E#D#B#C#B#6@j+A#z#y#x#w#v#h#b.|.G#H#I#8 *                 ",
"                * 7 z T u#2.b.h#v#J#K#L#M#G.N#O#P#Q#R#2#S#S#T#T#T#T#S#S#2#R#Q#P#O#N#G.M#L#K#J#v#h#b.1.U#x.V#9 *                 ",
"                * 0 a@W#9#|.b.7#X#Y#Z#`# $.$+$@$#$$$%$%$&$&$&$&$&$&$&$&$%$%$$$#$@$+$.$ $`#Z#Y#X#7#b.|.{.*$=$0 *                 ",
"                * 9 m j+-$1.b.l.l.;$>$@#9@@#,$'$)$a.!$c.~$~$~$~$~$~$~$~$c.!$a.)$'$,$@#9@@#>$;$l.l.b.4.>. .x 7 *                 ",
"                * 8 {$]$^$|.b.p.F.C./$($_$:$<$S@q@[$}$|$h#1$1$1$1$1$1$h#|$}$[$q@S@<$:$_$($/$C.F.p.b.3.u#T z 7 *                 ",
"                * 0 2$R ).2.b.m.w.Y 3$4$5$q.6$I U.M#7$8$L+9$9$9$9$9$9$L+8$7$M#U.I 6$5$0$5$3$Y w.m.b.2.u#T a$9 *                 ",
"                6.b$j@c$,.4.b.m.x.F.K.G.G.G.G.F.x.o.d$}$e$f$f$f$f$f$f$e$}$d$o.x.F.G.j+N.j+K.F.x.m.b.4.,.c$j@b$6.                ",
"                g$h$i$j$k$|.b.m.z+Y x.x.Y Y Y Y Y L.m.l$m$n$o$o$o$o$n$m$l$m.L.Y Y x.m.q.p$x.Y z+m.b.|.k$j$i$h$g$                ",
"                q$r$s$t$u$2.v$w$y.x.q@1$x.M.M.M.M.y+y+m.4$5$5$5$5$5$5$4$m.y+y+M.M.y+x$y$2+y.M.y.w$v$2.u$t$s$r$q$                ",
"                $ z$A$B$C$D$E$F$N.G${@H$B.I$P P P P P G$J$J$J$J$J$J$J$J$G$P P P P E.K$p$K$E.P I$F$E$D$C$B$A$z$$                 ",
"                # ] L$M$N$O$P$Q${.U##$R$S$T$I+V.{.{.{.U$V$V$V$V$V$V$V$V$U${.{.V.U#V.W$V.T$U#U#V.Q$P$O$N$M$L$] #                 ",
"                + f g X$g Y$Z$2#`$ %.%+%@%@%#%u#,.>.,.G#,.,.,.,.,.,.,.,.,.G#G#$%%%&%*% %@%@% %`$2#Z$Y$g X$g f +                 ",
"                + { X$=%-%:.= ;%>%,%'%)%)%!%~%{%3@ .W W W W W W W W W W W W ` ]%^%/%(%_%'%'%,%>%;%= :.-%=%X${ +                 ",
"                + { :%<%[%}%*.|%1%2%3%4%4%3%5%6%7%` 8%e@y y y y y y y y y D D 9%u w 0%a%b%3%2%1%|%*.}%[%<%:%{ +                 ",
"                ) c%d%[ e%f%~#g%h$h%7 6 6 6 7 a i%|%j%9 7 7 7 7 7 7 7 7 7 7 7 B+a B+B+6 6 7 h%h$g%~#f%e%[ d%c%)                 ",
"                  . ) - k%l%#+m%g$6.* * * * * * g$4@6.* * * * * * * * * * * * * * * * * * * 6.g$m%#+l%k%- ) .                   ",
"                                                                                                                                ",
"                                                                                                                                ",
"                                                                                                                                ",
"                                                                                                                                ",
"                                                                                                                                ",
"                                                                                                                                ",
"                                                                                                                                ",
"                                                                                                                                "};
