/* XPM */
static char *safeimagekit_wall1740130831[] = {
/* columns rows colors chars-per-pixel */
"32 32 117 2 ",
"   c #20272E",
".  c #21282F",
"X  c #222931",
"o  c #232A32",
"O  c #29313A",
"+  c #29313B",
"@  c #2A323B",
"#  c #2A323C",
"$  c #303842",
"%  c #313945",
"&  c #343E4B",
"*  c #353F4B",
"=  c #363F4C",
"-  c #36404D",
";  c #37414E",
":  c #3B424D",
">  c #3A4553",
",  c #3D4450",
"<  c #3C4756",
"1  c #3D4857",
"2  c #3F4A5A",
"3  c #404B5B",
"4  c #454B58",
"5  c #454C58",
"6  c #464C59",
"7  c #434E5E",
"8  c #444F60",
"9  c #454F61",
"0  c #455061",
"q  c #465062",
"w  c #475263",
"e  c #475264",
"r  c #4C5361",
"t  c #4B5463",
"y  c #485264",
"u  c #4F5564",
"i  c #4E5565",
"p  c #4C566A",
"a  c #4D576A",
"s  c #4D576B",
"d  c #4E576B",
"f  c #4E586C",
"g  c #525969",
"h  c #535D72",
"j  c #5E6574",
"k  c #586178",
"l  c #5B637B",
"z  c #5B647B",
"x  c #5C6679",
"c  c #5B647C",
"v  c #5C647C",
"b  c #606879",
"n  c #666D7F",
"m  c #5E6680",
"M  c #5F6881",
"N  c #5F6882",
"B  c #606882",
"V  c #616983",
"C  c #636B85",
"Z  c #636B86",
"A  c #666D87",
"S  c #656D88",
"D  c #676F89",
"F  c #69708B",
"G  c #6D758F",
"H  c #6F7790",
"J  c #707791",
"K  c #707892",
"L  c #717993",
"P  c #757B91",
"I  c #767D91",
"U  c #727A94",
"Y  c #747B95",
"T  c #767D97",
"R  c #787F92",
"E  c #797F96",
"W  c #777E98",
"Q  c #787F99",
"!  c #7B8198",
"~  c #838BA5",
"^  c #858CA7",
"/  c #878DA7",
"(  c #888EA8",
")  c #8B91A7",
"_  c #8C92A7",
"`  c #8A91AA",
"'  c #8C93A8",
"]  c #8D93A9",
"[  c #8C92AC",
"{  c #8C93AD",
"}  c #8F96B0",
"|  c #9097B1",
" . c #9198B2",
".. c #969CB3",
"X. c #9BA1BB",
"o. c #9BA2BC",
"O. c #9CA2BC",
"+. c #9EA4BE",
"@. c #9EA5BF",
"#. c #9FA5C0",
"$. c #9FA6C0",
"%. c #A0A7C1",
"&. c #A3A9C3",
"*. c #A3AAC4",
"=. c #A4AAC4",
"-. c #A4AAC5",
";. c #A8AEC7",
":. c #ABB1CB",
">. c #ADB3CD",
",. c #AEB4CE",
"<. c #B0B6D0",
"1. c #B1B7D1",
"2. c #B2B7D1",
"3. c #B2B8D3",
"4. c #B3B9D4",
"5. c #B4BAD4",
"6. c #B4BAD5",
/* pixels */
"[ [ [ P :       . .                     . .           : P [ [ [ ",
"[ / E n i 5 4 5 5 5 5 5 5 5 5 5 5 5 5 5 5 5 5 5 6 6 4 u n E / [ ",
"[ E i r I ] _ _ ' ' ) ) ) _ ) ) _ ] ] _ ] ` ' ` ] _ ] I r i E [ ",
"P n r j ..6.6.,.&.&.>.3.1.1.3.>.=.@.@.&.$.$.%.*.>.6.6...j r n P ",
": i I ..;.3.4.&.~ ~ &.3.3.3.3.=./ T W W ! W W ^ =.1.4.;...I u : ",
". 5 ' 6.3.:.*.[ G L X.,.,.,.,.O.T m m V m m m H [ &.:.1.6.] 5   ",
"  4 ] 4.4.*.~ G F T X.<.,.<.,.O.L V V m Z m Z A L ^ =.6.6._ 5   ",
"  5 _ ,.=.[ H m v T O.3.<.<.<.@.T S H W T L S Z v L [ =.>.] 4   ",
"  5 ] =.^ H Z m Z W $.1.3.<.<.O.T H ] +.@.{ K V S S G / =.` 5 X ",
"  5 ] @.T A H L Z J [ @.X.@.@.{ H T @.4.4.@.T V Z B M Q $.' 5   ",
". 5 _ $.T J |  .H S L W T T T L A T %.6.6.@.T V V Z m T %.] 5   ",
"  5 ' $.T L | | Y V V Z V V V V Z H [ @.%.{ K V V V V Q %.] 5   ",
"  5 ] %.Q S J L F S A Z Z V Z V V D J T T H S Z m S m W $.) 5 X ",
". 5 ] %.Q V Z V v k k z V Z V Z V Z V V V V A S L L S ! %.] 5   ",
"  4 ] %.Q Z V k d 9 9 d c Z V V V V V V V V Z L  . .J W %.] 5   ",
". 4 I ` J Z Z k 9 > > 9 k F L T T L D A Z Z Z L  . .J H _ P 4 X ",
". $ t v V Z Z z 9 > > 7 k K { @.@.[ L Z V C C F L P D V z t $ . ",
"X @ & 0 z Z A c d 9 0 s z T &.6.1.$.E V V Z C C V Z C v 0 - @ X ",
"X @ & 0 z C A V c k k c M ! @.6.4.&.T V Z Z C C Z V A v 0 ; @ . ",
"X @ ; e z M z z Z S C C C G { @.$.[ H V C C C C Z V k h 8 ; @ X ",
"X # ; 0 c v d p k S A Z C D K T T H F S Z A Z Z A z s 7 2 ; @ X ",
"o @ ; y c c d p v S Z Z C V V V M Z v k k z V Z C z s 7 2 ; @ X ",
"X + ; 0 z M z z V A Z A Z Z C C Z k f 9 0 d v S C C c h 0 ; @ X ",
"X # : 0 z Z A Z c k k z Z C C C A k 0 > > 0 k Z v c C v 0 ; @ X ",
"X # & e k S S v f e 8 f c S C C Z v 0 > > 0 k v f p c v e ; @ X ",
"X # ; 0 v S A z 0 > > 9 k Z Z Z A v f 0 0 f m v d d c c y ; # X ",
"X @ ; 9 c S S k 0 > > 0 v A A A Z V v c v v Z V z c Z c y & # X ",
", > ; 2 h c v h 9 2 > 8 h v c k v k c c v v c c z c z h 2 & , , ",
"T x : % 2 0 y 0 2 2 2 2 9 9 e 0 0 0 e e y y y y y y y 3 % = b Y ",
"] ! g : - & & : ; ; ; ; : ; ; ; : ; ; ; & & ; & = = & & , g ! [ ",
"[ ( ! z , # # # # # # # + + # # # # @ @ # # # # # # # : b ! ( [ ",
"[ [ { I , X X X X X X X X X X X X X X . o X X o o X X , R [ [ [ "
};
