/* XPM */
static char *ww1740060027[] = {
/* columns rows colors chars-per-pixel */
"32 32 64 1 ",
"  c #181F26",
". c #1F262E",
"X c #20272F",
"o c #232A32",
"O c #272F38",
"+ c #29303A",
"@ c #2E3641",
"# c #2F3844",
"$ c #333B46",
"% c #333D4A",
"& c #383F49",
"* c #3A424E",
"= c #3B4654",
"- c #3D4857",
"; c #3F4959",
": c #404752",
"> c #434D5D",
", c #454F60",
"< c #465062",
"1 c #4A5365",
"2 c #4C5669",
"3 c #4F586C",
"4 c #515A6E",
"5 c #555E74",
"6 c #576076",
"7 c #596276",
"8 c #5C647C",
"9 c #646B7F",
"0 c #5F6780",
"q c #5F6881",
"w c #626A84",
"e c #666E88",
"r c #686F89",
"t c #6C7385",
"y c #6A728C",
"u c #757B8E",
"i c #6F7790",
"p c #747B95",
"a c #777F99",
"s c #787F99",
"d c #7C839C",
"f c #7F86A0",
"g c #80879B",
"h c #82899D",
"j c #8087A1",
"k c #848BA5",
"l c #898FA5",
"z c #878FA9",
"x c #8B92AC",
"c c #8F96B0",
"v c #9097B1",
"b c #949BB5",
"n c #989FB9",
"m c #9EA4BD",
"M c #9FA6C0",
"N c #A0A6C0",
"B c #A4ABC5",
"V c #A8AEC8",
"C c #ADB3CD",
"Z c #AFB6D0",
"A c #B1B7D1",
"S c #B3B9D3",
"D c #B9BED8",
"F c None",
/* pixels */
"FF.+uCSCZZAZZVVAAAAAAAAAAZZAZg& ",
"FF*2hCSCVNVVAAZCVBNNMMNMMVCSCl5&",
".*9hmCSCbkcVAVAABxdssffsfbVSAmlg",
".=hAACCNfyfVAZAAmswwwwwwefmVCACC",
"X:gSDCbhiwfBZZZZnsw000w0wijbVSSA",
"X:gCCNjtqrjVAZZZNserrrrewwesmCCC",
".=gVnkiw0wkVAASSNsrscczaewwijbBA",
"X:hBzrwrwefNCCVVnppvVZBzwwwwegNA",
"X:gNkeakaepkxzxcjyinSDCzeww0wsmA",
"X:gBjyzmzyweirryrwibVAVzewwwwsNA",
"X:hBjydxfrwwqqqqwwrjvbxsewwwwjNA",
"X:gBkeeyrwwwewwewweriyywwwwwwsNA",
"X:hVzw8w85550qqqwww0www0eisprsBS",
"X:hBkrww5<;>30eewwwwwwwwrknxisNS",
"X*tlswww4;==<0rpssprwwwwedbzrizc",
"X+>79www4;==18pcNNbswwwweypir955",
"oO#;4www5<,<4qsMSSNjwwwwewwww5,=",
"o@#,5wewq0555wsMSDBjwwwwwwwee5,=",
"oO%,5ww0qwwwwepbNVbswwwwwwww05>=",
"o+%,5q535weewwyaffsieewwwew52,;=",
"o+#,5w4<4qwwwwweewwq000wwew5,;;-",
"o+%,5q558weeewwqww052245qrwq51>-",
"XO#,5wewq0qqwwwwww02-=;4wwqww5,=",
"o@%,5wee54445qewwe8<==-5q855q5,-",
"o+#,5wew5,=;20weww82>=>505,405,-",
"X+%,5eew4;==<0eeeew53345w555q5,;",
"o+#,5wew4;=-20qwwwew08wwwwqww5,-",
"o+%%<5542;=>,4555555555555565<=%",
"FFO@&,,,>--:->>,>,>>,>,>>>,,,=@o",
"FFFO#%%#%%%%%%%%%%%%%%%%%%%%%#OX",
"FFFF++@O+O++++++++++O+++O+O+++FF",
"FFFFXooXoooooooooooXooooooooooFF"
};
