/* XPM */
static char * wall2_xpm[] = {
"64 64 505 2",
"  	c None",
". 	c #17182C",
"+ 	c #17172C",
"@ 	c #16172B",
"# 	c #16162B",
"$ 	c #16152A",
"% 	c #15152A",
"& 	c #151529",
"* 	c #151429",
"= 	c #141428",
"- 	c #221F30",
"; 	c #222030",
"> 	c #362E37",
", 	c #383038",
"' 	c #393139",
") 	c #39323A",
"! 	c #3A343C",
"~ 	c #3B353D",
"{ 	c #3B363E",
"] 	c #3C373F",
"^ 	c #3D3840",
"/ 	c #3E3841",
"( 	c #3D3841",
"_ 	c #3C3740",
": 	c #463A3D",
"< 	c #534441",
"[ 	c #5B4A45",
"} 	c #5F4F48",
"| 	c #62534C",
"1 	c #645650",
"2 	c #655A53",
"3 	c #665C55",
"4 	c #665B55",
"5 	c #675D56",
"6 	c #6A5F59",
"7 	c #6C615B",
"8 	c #6D625D",
"9 	c #6A5F5B",
"0 	c #615756",
"a 	c #50484C",
"b 	c #16172C",
"c 	c #362F37",
"d 	c #534341",
"e 	c #6E574B",
"f 	c #836753",
"g 	c #8E725A",
"h 	c #947A61",
"i 	c #978068",
"j 	c #98866D",
"k 	c #9A8970",
"l 	c #9A8A71",
"m 	c #9A8971",
"n 	c #998970",
"o 	c #9C8B73",
"p 	c #A19078",
"q 	c #A6947C",
"r 	c #A6947E",
"s 	c #9C8B79",
"t 	c #83756A",
"u 	c #141328",
"v 	c #372F38",
"w 	c #5A4843",
"x 	c #826451",
"y 	c #A47F5E",
"z 	c #B89069",
"A 	c #C19C73",
"B 	c #C5A67C",
"C 	c #C6AC83",
"D 	c #C8B188",
"E 	c #C9B289",
"F 	c #C8B087",
"G 	c #CCB48B",
"H 	c #D4BB93",
"I 	c #DBC29A",
"J 	c #D9C09B",
"K 	c #C5B091",
"L 	c #382F37",
"M 	c #5C4843",
"N 	c #896752",
"O 	c #B38662",
"P 	c #CD9C6F",
"Q 	c #D8AA7A",
"R 	c #DCB584",
"S 	c #DEBC8B",
"T 	c #E0C290",
"U 	c #E0C392",
"V 	c #E0C391",
"W 	c #E0C291",
"X 	c #DFC190",
"Y 	c #DFC18F",
"Z 	c #E4C695",
"` 	c #EED09E",
" .	c #F5D8A6",
"..	c #F2D6A8",
"+.	c #382E37",
"@.	c #5D4642",
"#.	c #8A6350",
"$.	c #B5815F",
"%.	c #CF966B",
"&.	c #DBA576",
"*.	c #DFB17F",
"=.	c #E0B986",
"-.	c #E3BF8B",
";.	c #E3C08C",
">.	c #E2BE8A",
",.	c #E7C490",
"'.	c #F1CF9A",
").	c #F9D9A4",
"!.	c #F6D8A7",
"~.	c #DCC39A",
"{.	c #A7957D",
"].	c #6E635C",
"^.	c #3E3840",
"/.	c #141429",
"(.	c #17192D",
"_.	c #372C36",
":.	c #5A413F",
"<.	c #855B4C",
"[.	c #AE7558",
"}.	c #C78863",
"|.	c #D3976C",
"1.	c #D8A375",
"2.	c #D9AC7B",
"3.	c #DBB17F",
"4.	c #DCB380",
"5.	c #DBB27F",
"6.	c #DBB17E",
"7.	c #DBB07E",
"8.	c #DFB785",
"9.	c #E9C490",
"0.	c #D5BC93",
"a.	c #A29178",
"b.	c #6B6059",
"c.	c #3D373F",
"d.	c #181A2D",
"e.	c #211F30",
"f.	c #362A35",
"g.	c #573C3D",
"h.	c #805247",
"i.	c #A76952",
"j.	c #BE7A5B",
"k.	c #CA8963",
"l.	c #CE956A",
"m.	c #D09E70",
"n.	c #D2A473",
"o.	c #D3A674",
"p.	c #D3A574",
"q.	c #D2A474",
"r.	c #D2A372",
"s.	c #D1A372",
"t.	c #D6AA79",
"u.	c #CCB48C",
"v.	c #3C363E",
"w.	c #352934",
"x.	c #56393C",
"y.	c #7E4E45",
"z.	c #A4634F",
"A.	c #BB7457",
"B.	c #C6825E",
"C.	c #CB8E65",
"D.	c #CC986A",
"E.	c #CE9D6E",
"F.	c #CF9F6F",
"G.	c #CF9F6E",
"H.	c #CF9E6E",
"I.	c #CE9D6D",
"J.	c #CE9C6C",
"K.	c #181A2E",
"L.	c #55393B",
"M.	c #7D4D44",
"N.	c #A3614E",
"O.	c #BA7256",
"P.	c #C5805D",
"Q.	c #CA8C64",
"R.	c #CB9669",
"S.	c #CF9E6D",
"T.	c #CD9B6B",
"U.	c #CD9A6B",
"V.	c #A3624E",
"W.	c #C5815D",
"X.	c #CA8D64",
"Y.	c #CC9669",
"Z.	c #A3634F",
"`.	c #BB7357",
" +	c #CA8E65",
".+	c #CC976A",
"++	c #C6825F",
"@+	c #CB8F65",
"#+	c #CD986B",
"$+	c #D0A06F",
"%+	c #C6835F",
"&+	c #CB8F66",
"*+	c #CD996B",
"=+	c #BA7356",
"-+	c #C57F5D",
";+	c #C98A63",
">+	c #CA9267",
",+	c #CD9B6C",
"'+	c #CE9C6D",
")+	c #CC986B",
"!+	c #563A3C",
"~+	c #7E4F45",
"{+	c #A4644F",
"]+	c #C37C5B",
"^+	c #C5835F",
"/+	c #C58862",
"(+	c #C88E65",
"_+	c #CA9468",
":+	c #CC996B",
"<+	c #C99267",
"[+	c #C88F65",
"}+	c #563B3C",
"|+	c #7F5046",
"1+	c #B97055",
"2+	c #C17758",
"3+	c #C17A5A",
"4+	c #C07D5C",
"5+	c #C3835F",
"6+	c #C68B64",
"7+	c #CA9368",
"8+	c #C58A63",
"9+	c #C3845F",
"0+	c #7E4F46",
"a+	c #B86E54",
"b+	c #BE7155",
"c+	c #BE7256",
"d+	c #BC7457",
"e+	c #BE795A",
"f+	c #C2835F",
"g+	c #C78D65",
"h+	c #C2825E",
"i+	c #BE7A5A",
"j+	c #352834",
"k+	c #55383B",
"l+	c #7C4C44",
"m+	c #A15E4D",
"n+	c #B56851",
"o+	c #BB6C53",
"p+	c #B96E54",
"q+	c #C99167",
"r+	c #C48761",
"s+	c #BF7B5B",
"t+	c #191B2E",
"u+	c #342734",
"v+	c #53353A",
"w+	c #794642",
"x+	c #9C5649",
"y+	c #B0604E",
"z+	c #B76550",
"A+	c #B86851",
"B+	c #B76B52",
"C+	c #BA7055",
"D+	c #BD7859",
"E+	c #C1805D",
"F+	c #C48862",
"G+	c #C07F5D",
"H+	c #BC7658",
"I+	c #332633",
"J+	c #513138",
"K+	c #743F3F",
"L+	c #964D46",
"M+	c #AA584A",
"N+	c #B35F4D",
"O+	c #B66450",
"P+	c #B76952",
"Q+	c #B96F54",
"R+	c #BB7356",
"S+	c #C68C64",
"T+	c #BF7D5C",
"U+	c #BD7758",
"V+	c #191C2E",
"W+	c #322432",
"X+	c #4E2E37",
"Y+	c #71393D",
"Z+	c #924643",
"`+	c #A65047",
" @	c #B0594B",
".@	c #B4624F",
"+@	c #B66952",
"@@	c #BA7155",
"#@	c #4D2C36",
"$@	c #6F363B",
"%@	c #8F4141",
"&@	c #A34C46",
"*@	c #AE564A",
"=@	c #B3604E",
"-@	c #B66851",
";@	c #B86D53",
">@	c #B96D53",
",@	c #B86C53",
"'@	c #DCB27F",
")@	c #4D2B36",
"!@	c #6E353B",
"~@	c #8E4040",
"{@	c #A24A45",
"]@	c #AD554A",
"^@	c #BD7759",
"/@	c #C17F5D",
"(@	c #B86B52",
"_@	c #C78E65",
":@	c #CA9367",
"<@	c #CC9769",
"[@	c #A34B45",
"}@	c #AD564A",
"|@	c #BB7256",
"1@	c #CFA06F",
"2@	c #C68A63",
"3@	c #DCB480",
"4@	c #B96E53",
"5@	c #C78D64",
"6@	c #BF7C5B",
"7@	c #C48660",
"8@	c #DAAF7E",
"9@	c #E2BE8B",
"0@	c #CA9469",
"a@	c #C07E5C",
"b@	c #CB956B",
"c@	c #D7A87A",
"d@	c #E0BA89",
"e@	c #9A8A72",
"f@	c #665D56",
"g@	c #C78C64",
"h@	c #CB9569",
"i@	c #BC7657",
"j@	c #C68A65",
"k@	c #D3A076",
"l@	c #DEB586",
"m@	c #DEBF8F",
"n@	c #9B8B72",
"o@	c #C38460",
"p@	c #C89066",
"q@	c #B86E53",
"r@	c #B96F53",
"s@	c #C28060",
"t@	c #CF9871",
"u@	c #DCB083",
"v@	c #DDBC8D",
"w@	c #C8B088",
"x@	c #665D55",
"y@	c #C58963",
"z@	c #B76B51",
"A@	c #BF7A5C",
"B@	c #CC916D",
"C@	c #D9A97E",
"D@	c #DAB688",
"E@	c #C6AB83",
"F@	c #99876E",
"G@	c #655B54",
"H@	c #C2815E",
"I@	c #C48762",
"J@	c #B76A51",
"K@	c #BD775A",
"L@	c #CA8C68",
"M@	c #D5A277",
"N@	c #D6AE80",
"O@	c #C2A37B",
"P@	c #958068",
"Q@	c #645750",
"R@	c #BF7C5C",
"S@	c #B76A52",
"T@	c #BD7659",
"U@	c #C88864",
"V@	c #D29A70",
"W@	c #D1A476",
"X@	c #BD9972",
"Y@	c #927960",
"Z@	c #BD7558",
"`@	c #C68561",
" #	c #CE946A",
".#	c #CD9B6E",
"+#	c #B9916A",
"@#	c #8F725A",
"##	c #604F48",
"$#	c #BC7557",
"%#	c #CD9166",
"&#	c #CB976A",
"*#	c #B68C65",
"=#	c #8D6F57",
"-#	c #5F4D46",
";#	c #C5825E",
">#	c #CC8F65",
",#	c #CA9568",
"'#	c #B68A64",
")#	c #8C6E56",
"!#	c #5E4C46",
"~#	c #CC9065",
"{#	c #CA9569",
"]#	c #B68B64",
"^#	c #C5825F",
"/#	c #CD9066",
"(#	c #CB966A",
"_#	c #B68B65",
":#	c #8D6E57",
"<#	c #B66951",
"[#	c #904241",
"}#	c #A44C46",
"|#	c #AF574A",
"1#	c #B4614E",
"2#	c #BA7054",
"3#	c #BD7658",
"4#	c #C6845F",
"5#	c #CD9267",
"6#	c #CB986A",
"7#	c #B78D65",
"8#	c #4E2C36",
"9#	c #B4614F",
"0#	c #CB986B",
"a#	c #B78D66",
"b#	c #8D7057",
"c#	c #A34B46",
"d#	c #CC9066",
"e#	c #CA966A",
"f#	c #1A1C2E",
"g#	c #312332",
"h#	c #4C2B36",
"i#	c #6D343C",
"j#	c #8C3F41",
"k#	c #A04946",
"l#	c #AB534A",
"m#	c #B05C4D",
"n#	c #B36450",
"o#	c #B56751",
"p#	c #BA6F55",
"q#	c #C37D5C",
"r#	c #CA8A63",
"s#	c #C89067",
"t#	c #B48662",
"u#	c #8B6B55",
"v#	c #5E4A45",
"w#	c #382F38",
"x#	c #1A1D2E",
"y#	c #4A2937",
"z#	c #6A323C",
"A#	c #883B42",
"B#	c #9B4446",
"C#	c #A64D49",
"D#	c #AD554B",
"E#	c #B25F4E",
"F#	c #B25F4D",
"G#	c #B3614E",
"H#	c #B76751",
"I#	c #C07458",
"J#	c #C8815E",
"K#	c #C68762",
"L#	c #B37E5D",
"M#	c #8A6551",
"N#	c #5D4743",
"O#	c #17182D",
"P#	c #302232",
"Q#	c #482837",
"R#	c #652F3D",
"S#	c #823743",
"T#	c #953E46",
"U#	c #A04648",
"V#	c #AD5549",
"W#	c #B25D4D",
"X#	c #BB6953",
"Y#	c #C37559",
"Z#	c #C27B5B",
"`#	c #AF7458",
" $	c #875D4D",
".$	c #5C4341",
"+$	c #1B1D2E",
"@$	c #2E2132",
"#$	c #442637",
"$$	c #5F2C3D",
"%$	c #793242",
"&$	c #8A3845",
"*$	c #A75148",
"=$	c #B76852",
"-$	c #B76E54",
";$	c #A56851",
">$	c #815548",
",$	c #583E3E",
"'$	c #412537",
")$	c #57293C",
"!$	c #6C2E40",
"~$	c #823742",
"{$	c #994F47",
"]$	c #A0594B",
"^$	c #A05E4D",
"/$	c #935A4B",
"($	c #774C44",
"_$	c #543A3C",
":$	c #2D2132",
"<$	c #3C2436",
"[$	c #4B2639",
"}$	c #642F3D",
"|$	c #69323C",
"1$	c #6C343C",
"2$	c #763F3F",
"3$	c #7A4642",
"4$	c #7B4A43",
"5$	c #754943",
"6$	c #64423F",
"7$	c #4D353A",
"8$	c #332834",
"9$	c #352234",
"0$	c #472837",
"a$	c #54373B",
"b$	c #53383B",
"c$	c #412F37",
"d$	c #2F2232",
"e$	c #302332",
"f$	c #342834",
"        . + + @ # $ $ $ $ $ $ $ $ $ $ $ $ $ $ $ $ $ $ $ $ $ $ $ $ $ $ $ $ $ $ $ $ $ $ $ $ $ $ $ $ $ $ $ $ $ % & * * = =         ",
"        - - - - - ; ; ; ; ; ; ; ; ; ; ; ; ; ; ; ; ; ; ; ; ; ; ; ; ; ; ; ; ; ; ; ; ; ; ; ; ; ; ; ; ; ; ; ; ; ; ; ; ; ; ;         ",
"        > , ' ) ! ~ { { { { { { { { { { { { { { { { { { { { { { { { { { { { { { { { { { { { { { { { { { { { { ] ^ / ( _         ",
"      : < [ } | 1 2 3 3 3 3 3 3 3 3 3 3 3 3 3 3 3 3 3 3 3 3 3 3 3 3 3 3 3 3 3 3 3 3 3 3 3 3 3 3 3 3 3 3 4 3 5 6 7 8 9 0 a       ",
"b - c d e f g h i j k l l m m m m m m m m m m m m m m m m m m m m m m m m m m m m m m m m m m m m m k n n m o p q r s t 0 _ ; u ",
"+ - v w x y z A B C D E E D D D D D D D D D D D D D D D D D D D D D D D D D D D D D D D D D D D D D D F F D G H I J K s 9 ( ; = ",
". - L M N O P Q R S T U V W T T T T T T T T T T T T T T T T T T T T T T T T T T T T T T T T T T T T T X Y W Z `  ...J r 8 / ; * ",
". - +.@.#.$.%.&.*.=.-.;.;.-.-.-.-.-.-.-.-.-.-.-.-.-.-.-.-.-.-.-.-.-.-.-.-.-.-.-.-.-.-.-.-.-.-.-.-.-.-.>.>.-.,.'.).!.~.{.].^.; /.",
"(.- _.:.<.[.}.|.1.2.3.4.4.5.5.5.5.5.5.5.5.5.5.5.5.5.5.5.5.5.5.5.5.5.5.5.5.5.5.5.5.5.5.5.5.5.5.5.5.5.5.6.7.5.8.9.'.` 0.a.b.c.; * ",
"d.e.f.g.h.i.j.k.l.m.n.o.p.q.n.n.n.n.n.n.n.n.n.n.n.n.n.n.n.n.n.n.n.n.n.n.n.n.n.n.n.n.n.n.n.n.n.n.n.n.n.r.s.q.t.8.,.Z u.o 5 v.; % ",
"d.e.w.x.y.z.A.B.C.D.E.F.G.H.H.H.H.H.H.H.H.H.H.H.H.H.H.H.H.H.H.H.H.H.H.H.H.H.H.H.H.H.H.H.H.H.H.H.H.H.H.I.J.H.q.5.-.W D m 3 { ; $ ",
"K.e.w.L.M.N.O.P.Q.R.J.S.I.J.J.J.J.J.J.J.J.J.J.J.J.J.J.J.J.J.J.J.J.J.J.J.J.J.J.J.J.J.J.J.J.J.J.J.J.J.J.T.U.J.s.7.>.Y F n 4 { ; $ ",
"K.e.w.L.M.V.O.W.X.Y.J.S.S.I.J.J.J.J.J.J.J.J.J.J.J.J.J.J.J.J.J.J.J.J.J.J.J.J.J.J.J.J.J.J.J.J.J.J.J.J.J.T.T.I.r.6.>.X F n 3 { ; $ ",
"K.e.w.x.y.Z.`.B. +.+I.G.G.S.I.I.I.I.I.I.I.I.I.I.I.I.I.I.I.I.I.I.I.I.I.I.I.I.I.I.I.I.I.I.I.I.I.I.I.I.I.J.J.H.n.5.-.T D k 3 { ; $ ",
"d.e.w.x.y.z.A.B. +.+I.G.G.H.H.H.H.H.H.H.H.H.H.H.H.H.H.H.H.H.H.H.H.H.H.H.H.H.H.H.H.H.H.H.H.H.H.H.H.H.I.J.J.H.n.5.-.T D m 3 { ; $ ",
"d.e.w.x.y.z.A.B. +.+I.G.G.H.H.H.H.H.H.H.H.H.H.H.H.H.H.H.H.H.H.H.H.H.H.H.H.H.H.H.H.H.H.H.H.H.H.H.H.H.I.J.J.H.n.5.-.T D m 3 { ; $ ",
"d.e.w.x.y.z.A.B. +.+I.G.G.H.H.H.H.H.H.H.H.H.H.H.H.H.H.H.H.H.H.H.H.H.H.H.H.H.H.H.H.H.H.H.H.H.H.H.H.H.I.J.J.H.n.5.-.T D m 3 { ; $ ",
"d.e.w.x.y.z.A.B. +.+I.G.G.H.H.H.H.H.H.H.H.H.H.H.H.H.H.H.H.H.H.H.H.H.H.H.H.H.H.H.H.H.H.H.H.H.H.H.H.H.I.J.J.H.n.5.-.T D m 3 { ; $ ",
"d.e.w.x.y.z.A.B.C.D.I.G.G.H.H.I.I.H.H.H.H.H.H.H.H.H.H.H.H.H.H.H.H.H.H.I.I.H.H.H.H.H.H.H.H.H.H.I.I.H.I.J.J.H.n.5.-.T D m 3 { ; $ ",
"d.e.w.x.y.z.A.++@+#+H.$+G.H.H.I.I.I.H.H.H.H.H.H.H.H.H.H.H.H.H.H.H.H.I.I.I.H.H.H.H.G.G.H.H.H.H.I.I.I.I.J.J.H.n.5.-.T D m 3 { ; $ ",
"d.e.w.x.y.z.A.%+&+*+G.$+F.H.H.I.I.I.H.H.H.H.H.H.H.H.H.H.H.H.H.H.H.H.I.I.I.H.H.H.G.G.G.G.H.H.H.I.I.I.I.J.J.H.n.5.-.T D m 3 { ; $ ",
"d.e.w.x.y.z.A.B. +.+I.G.G.H.H.H.H.H.H.H.H.H.H.H.H.H.H.H.H.H.H.H.H.H.H.H.H.H.I.I.I.I.I.I.I.I.H.H.H.H.I.J.J.H.n.5.-.T D m 3 { ; $ ",
"d.e.w.x.y.z.=+-+;+>+D.,+'+I.H.H.H.H.H.I.I.H.H.H.H.H.H.H.H.H.H.I.I.H.H.H.H.H.I.,+*+)+)+*+,+I.H.H.H.H.I.J.J.H.n.5.-.T D m 3 { ; $ ",
"d.e.w.!+~+{+O.]+^+/+(+_+:+'+H.G.H.H.H.I.I.I.H.H.H.H.H.H.H.H.I.I.I.H.H.H.G.H.'+.+<+[+[+<+.+'+H.G.H.H.I.J.J.H.n.5.-.T D m 3 { ; $ ",
"d.e.w.}+|+{+1+2+3+4+5+6+_+,+G.$+G.H.H.I.I.I.H.H.H.H.H.H.H.H.I.I.I.H.H.G.$+G.,+7+8+9+9+8+7+,+G.$+G.H.I.J.J.H.n.5.-.T D m 3 { ; $ ",
"K.e.w.!+0+V.a+b+c+d+e+f+(+D.I.G.H.H.H.H.H.H.H.H.H.H.H.H.H.H.H.H.H.H.H.H.G.I.D.g+h+i+i+h+g+D.I.G.H.H.I.J.J.H.n.5.-.T D m 3 { ; $ ",
"K.e.j+k+l+m+n+o+o+p+`.4+/+<+D.,+'+I.H.H.H.H.H.I.I.H.H.I.I.H.H.H.H.H.I.'+,+D.q+r+s+A.A.s+r+q+D.,+'+I.I.I.J.H.n.5.-.T D m 3 { ; $ ",
"t+e.u+v+w+x+y+z+A+B+C+D+E+/+(+_+:+'+H.G.H.H.H.I.I.I.I.I.I.H.H.H.G.H.'+:+_+(+F+G+H+C+C+H+G+F+(+_+:+'+H.S.I.H.n.5.-.T D m 3 { ; $ ",
"t+e.I+J+K+L+M+N+O+P+Q+R+D+4+f+S+_+,+G.$+G.H.H.I.I.I.I.I.I.H.H.G.$+G.,+_+S+f+T+U+O.Q+Q+O.U+T+f+S+_+,+G.G.I.H.n.5.-.T D m 3 { ; $ ",
"V+e.W+X+Y+Z+`+ @.@+@p+C+@@`.e+f+(+D.I.G.H.H.H.H.H.H.H.H.H.H.H.H.G.I.D.(+f+e+`.C+p+p+p+p+C+`.e+f+(+D.I.S.I.H.n.5.-.T D m 3 { ; $ ",
"V+e.W+#@$@%@&@*@=@-@;@p+>@p+`.T+/+<+D.,+'+I.H.H.H.H.H.H.H.H.I.'+,+D.<+/+T+`.p+,@,@;@;@,@,@p+`.T+/+<+D.U.T.I.q.'@-.T D m 3 { ; $ ",
"V+e.W+)@!@~@{@]@=@-@;@>@,@,@C+^@/@/+(+_+:+'+H.G.H.H.H.H.G.H.'+:+_+(+/+/@^@C+,@(@,@;@;@,@(@,@C+^@/@/+_@:@<@I.p.4.;.W D m 3 { ; $ ",
"V+e.W+)@!@~@[@}@=@-@;@p+;@;@Q+|@^@T+f+S+_+,+G.1@G.H.H.G.1@G.,+_+S+f+T+^@|@Q+;@,@;@;@;@;@,@;@Q+|@^@T+f+2@<+,+p.3@;.W D k 3 { ; $ ",
"V+e.W+#@$@%@[@*@=@-@;@Q+p+4@p+Q+C+`.e+f+(+D.I.G.G.H.H.G.G.I.D.(+f+e+`.C+Q+p+;@;@;@;@;@;@;@;@p+Q+C+`.e+h+5@)+n.4.;.W D m 3 { ; $ ",
"V+e.W+#@$@%@&@*@=@-@;@Q+Q+p+;@;@,@p+`.T+/+<+D.,+I.I.I.I.,+D.<+/+T+`.p+,@;@;@p+;@;@p+p+;@;@p+;@;@,@p+R+6@7@<+m.8@9@X D m 3 { ; $ ",
"V+e.W+#@$@%@&@*@=@-@;@Q+Q+p+;@,@B+,@C+^@/@/+(+0@*+'+'+*+0@(+/+/@^@C+,@B+,@;@;@p+p+p+p+p+p+;@;@,@B+,@C+H+a@/+b@c@d@X E e@f@{ ; $ ",
"V+e.W+#@$@%@&@*@=@-@;@Q+Q+p+;@;@,@;@Q+|@^@T+5+g@h@,+,+h@g@5+T+^@|@Q+;@,@;@;@;@p+p+p+p+p+p+;@;@;@,@;@p+@@i@4+j@k@l@m@E n@5 { ; $ ",
"V+e.W+#@$@%@&@*@=@-@;@Q+Q+p+;@;@;@;@p+Q+C+`.i+o@p@.+.+p@o@i+`.C+Q+p+;@;@;@;@p+p+p+p+p+p+p+p+;@;@;@;@p+q@r@A.s@t@u@v@w@l x@{ ; $ ",
"V+e.W+#@$@%@&@*@=@-@;@Q+Q+p+p+;@;@p+;@;@,@p+A.a@y@q+q+y@a@A.p+,@;@;@p+;@;@p+p+p+p+p+p+p+p+p+p+;@;@p+;@B+z@p+A@B@C@D@E@F@G@~ ; $ ",
"V+e.W+#@$@%@&@*@=@-@;@Q+Q+p+p+p+p+;@;@,@B+,@C+D+H@I@I@H@D+C+,@B+,@;@;@p+p+p+p+p+p+p+p+p+p+p+p+p+p+;@;@B+J@,@K@L@M@N@O@P@Q@! - # ",
"V+e.W+#@$@%@&@*@=@-@;@Q+Q+p+p+p+p+;@;@;@,@;@Q+A.e+R@R@e+A.Q+;@,@;@;@;@p+p+p+p+p+p+p+p+p+p+p+p+p+p+;@;@B+S@;@T@U@V@W@X@Y@| ) - @ ",
"V+e.W+#@$@%@&@*@=@-@;@Q+Q+p+p+p+p+p+;@;@;@;@p+C+O.R+R+O.C+p+;@;@;@;@p+p+p+p+p+p+p+p+p+p+p+p+p+p+p+p+;@,@(@p+Z@`@ #.#+#@###' - + ",
"V+e.W+#@$@%@&@*@=@-@;@Q+Q+p+p+p+p+p+p+;@;@p+p+p+p+p+p+p+p+p+p+;@;@p+p+p+p+p+p+p+p+p+p+p+p+p+p+p+p+p+;@,@,@p+$#^+%#&#*#=#-#, - + ",
"V+e.W+#@$@%@&@*@=@-@;@Q+Q+p+p+p+p+p+p+p+p+;@;@;@,@,@,@,@;@;@;@p+p+p+p+p+p+p+p+p+p+p+p+p+p+p+p+p+p+p+;@,@,@p+d+;#>#,#'#)#!#, - . ",
"V+e.W+#@$@%@&@*@=@-@;@Q+Q+p+p+p+p+p+p+p+p+;@;@;@;@,@,@;@;@;@;@p+p+p+p+p+p+p+p+p+p+p+p+p+p+p+p+p+p+p+;@,@,@p+d+;#~#{#]#)#!#, - + ",
"V+e.W+#@$@%@&@*@=@-@;@Q+Q+p+p+p+p+p+p+p+p+p+;@;@;@;@;@;@;@;@p+p+p+p+p+p+p+p+p+p+p+p+p+p+p+p+p+p+p+p+;@,@,@p+$#^#/#(#_#:#-#, - + ",
"V+e.W+#@$@%@&@*@=@-@;@Q+Q+p+p+p+p+p+p+p+p+p+p+p+p+p+p+p+p+p+p+p+p+p+p+p+p+p+p+p+p+p+p+p+p+p+p+p+p+p+;@,@,@p+$#^#/#(#*#=#-#, - + ",
"V+e.W+#@$@%@&@*@=@-@;@Q+Q+p+p+p+p+p+p+p+p+p+p+p+p+p+p+p+p+p+p+p+p+p+p+p+p+p+p+p+p+p+p+p+p+p+p+p+p+p+;@,@,@p+$#^#/#(#*#=#-#, - + ",
"V+e.W+#@$@%@&@*@=@-@;@Q+Q+p+p+p+p+p+p+p+p+p+p+p+p+p+p+p+p+p+p+p+p+p+p+p+p+p+p+p+p+p+p+p+p+p+p+p+p+p+;@,@,@p+$#^#/#(#*#=#-#, - + ",
"V+e.W+#@$@%@&@*@=@-@;@Q+Q+p+p+p+p+p+p+p+p+p+p+p+p+p+p+p+p+p+p+p+p+p+p+p+p+p+p+p+p+p+p+p+p+p+p+p+p+p+;@,@,@p+$#^#/#(#*#=#-#, - + ",
"V+e.W+#@$@%@&@*@=@<#;@Q+Q+p+p+p+p+p+p+p+p+p+p+p+p+p+p+p+p+p+p+p+p+p+p+p+p+p+p+p+p+p+p+p+p+p+p+p+p+p+>@,@,@p+$#^+%#&#*#=#-#, - + ",
"V+e.W+#@$@[#}#|#1#+@p+C+2#Q+Q+Q+Q+Q+Q+Q+Q+Q+Q+Q+Q+Q+Q+Q+Q+Q+Q+Q+Q+Q+Q+Q+Q+Q+Q+Q+Q+Q+Q+Q+Q+Q+Q+Q+Q+Q+p+>@;@Q+3#4#5#6#7#=#-#, - + ",
"V+e.W+8#$@[#}#|#9#S@Q+C+C+Q+Q+Q+Q+Q+Q+Q+Q+Q+Q+Q+Q+Q+Q+Q+Q+Q+Q+Q+Q+Q+Q+Q+Q+Q+Q+Q+Q+Q+Q+Q+Q+Q+Q+Q+Q+Q+Q+4@>@Q+3#4#5#0#a#b#-#, - + ",
"V+e.W+#@$@%@c#*@=@-@;@Q+p+;@;@;@;@;@;@;@;@;@;@;@;@;@;@;@;@;@;@;@;@;@;@;@;@;@;@;@;@;@;@;@;@;@;@;@;@;@;@,@,@a+d+^#d#e#_#:#-#, - + ",
"f#e.g#h#i#j#k#l#m#n#-@S@+@<#-@-@-@-@-@-@-@-@-@-@-@-@-@-@-@-@-@-@-@-@-@-@-@-@-@-@-@-@-@-@-@-@-@-@-@-@-@o#o#+@p#q#r#s#t#u#v#w#- . ",
"x#e.g#y#z#A#B#C#D#m#=@9#1#=@=@=@=@=@=@=@=@=@=@=@=@=@=@=@=@=@=@=@=@=@=@=@=@=@=@=@=@=@=@=@=@=@=@=@=@=@=@E#F#G#H#I#J#K#L#M#N#+.- O#",
"x#e.P#Q#R#S#T#U#C#l#*@|#|#*@*@*@*@*@*@*@*@*@*@*@*@*@*@*@*@*@*@*@*@*@*@*@*@*@*@*@*@*@*@*@*@*@*@*@*@*@*@]@V#*@W#X#Y#Z#`# $.$_.- (.",
"+$e.@$#$$$%$&$T#B#k#c#}#}#&@&@&@&@&@&@&@&@&@&@&@&@&@&@&@&@&@&@&@&@&@&@&@&@&@&@&@&@&@&@&@&@&@&@&@&@&@[@{@{@&@*$m#=$-$;$>$,$f.e.d.",
"+$e.@$'$)$!$%$~$A#j#%@[#[#%@%@%@%@%@%@%@%@%@%@%@%@%@%@%@%@%@%@%@%@%@%@%@%@%@%@%@%@%@%@%@%@%@%@%@%@%@%@~@~@%@Z+{$]$^$/$($_$w.e.d.",
"+$e.:$<$[$)$$$}$|$1$$@$@$@$@$@$@$@$@$@$@$@$@$@$@$@$@$@$@$@$@$@$@$@$@$@$@$@$@$@$@$@$@$@$@$@$@$@$@$@$@$@!@!@$@Y+2$3$4$5$6$7$8$e.K.",
"      9$<$'$#$0$y#h##@8##@#@#@#@#@#@#@#@#@#@#@#@#@#@#@#@#@#@#@#@#@#@#@#@#@#@#@#@#@#@#@#@#@#@#@#@#@#@#@)@)@#@X+J+v+a$b$7$c$      ",
"        :$@$@$d$e$g#W+W+W+W+W+W+W+W+W+W+W+W+W+W+W+W+W+W+W+W+W+W+W+W+W+W+W+W+W+W+W+W+W+W+W+W+W+W+W+W+W+W+W+W+W+I+u+j+w.f$        ",
"        e.e.e.e.e.e.e.e.e.e.e.e.e.e.e.e.e.e.e.e.e.e.e.e.e.e.e.e.e.e.e.e.e.e.e.e.e.e.e.e.e.e.e.e.e.e.e.e.e.e.e.e.e.e.e.e.        ",
"        +$+$+$x#x#f#V+V+V+V+V+V+V+V+V+V+V+V+V+V+V+V+V+V+V+V+V+V+V+V+V+V+V+V+V+V+V+V+V+V+V+V+V+V+V+V+V+V+V+V+V+t+t+K.K.d.        "};
